<svg width="78" height="78" viewBox="0 0 78 78" fill="none" xmlns="http://www.w3.org/2000/svg">
<path d="M40.8696 41.756C34.8017 37.7942 25.8369 29.9992 22.3063 19.9505C19.8193 12.8724 22.0333 7.45686 25.987 4.82491C29.972 2.17208 36.0094 2.15138 41.5595 6.5016C42.6614 7.36528 44.2244 7.32813 45.293 6.45034C50.4762 2.1924 56.7251 2.26688 61.0226 5.00967C65.2789 7.72627 67.7391 13.1373 65.1918 19.9303C61.5094 29.75 52.2291 37.6704 45.9905 41.7428C44.4229 42.766 42.4287 42.7739 40.8696 41.756Z" stroke="#FB6C6C" stroke-width="2" stroke-linecap="round"/>
<path d="M51.4647 58.9499C51.4647 55.5936 48.7436 52.8725 45.3873 52.8725H37.9168C36.8359 52.8725 35.7712 52.6094 34.8147 52.106L26.1802 47.5615C25.2238 47.0582 24.159 46.7951 23.0782 46.7951H16.6652C15.7455 46.7951 15 47.5406 15 48.4602V66.1984C15 67.1181 15.7455 67.8636 16.6652 67.8636H21.3251C22.0994 67.8636 22.8679 67.9987 23.5959 68.2626L38.2085 73.5617C39.9446 74.1913 41.8643 74.0717 43.509 73.2318L74.7365 57.2822C76.8459 56.2048 77.6275 53.5832 76.4523 51.5265C75.3819 49.6532 73.055 48.9123 71.0985 49.8219L51.4647 58.9499ZM51.4647 58.9499H33.2323M33.2323 58.9499C32.422 59.4226 30.8013 60.9353 30.8013 63.2043C30.8013 60.6111 32.422 59.2876 33.2323 58.9499Z" stroke="#FB6C6C" stroke-width="2" stroke-linecap="round"/>
<path d="M1.00186 69.8496L2.83628 44.7182C2.86243 44.3599 3.16067 44.0826 3.51985 44.0826H14.3884C14.767 44.0826 15.0738 44.3895 15.0738 44.768V69.8995C15.0738 70.278 14.767 70.5849 14.3884 70.5849H1.68543C1.28725 70.5849 0.972875 70.2468 1.00186 69.8496Z" stroke="#FB6C6C" stroke-width="2" stroke-linecap="round"/>
</svg>
