<svg width="78" height="78" viewBox="0 0 78 78" fill="none" xmlns="http://www.w3.org/2000/svg">
<g clip-path="url(#clip0_356_670)">
<mask id="mask0_356_670" style="mask-type:luminance" maskUnits="userSpaceOnUse" x="0" y="0" width="78" height="78">
<path d="M78 0H0V78H78V0Z" fill="white"/>
</mask>
<g mask="url(#mask0_356_670)">
<path d="M40.6244 9.30211V23.5L49.9599 13.5885V9.30211C49.9599 6.72415 47.8702 4.63429 45.2921 4.63429C42.7141 4.63429 40.6244 6.72415 40.6244 9.30211Z" stroke="#FB6C6C" stroke-width="2" stroke-linecap="round"/>
<path d="M14.3485 72.6482L28.4716 54C28.4716 54 31 59 36.5 63.5C42 68 48.0573 68.5931 48.0573 68.5931L42.9541 75.7559C42.4657 76.4414 41.676 76.8483 40.8344 76.8483H16.4032C14.2376 76.8483 13.0193 74.3578 14.3485 72.6482Z" stroke="#FB6C6C" stroke-width="2" stroke-linecap="round"/>
<path d="M60.573 51.9567L59.7032 51.2587C59.3182 51.7381 59.394 52.4388 59.8727 52.8249C60.3512 53.211 61.0521 53.137 61.4393 52.6593L60.573 51.9567ZM51.6617 45.9874L50.8051 45.2729C50.4113 45.7451 50.4738 46.4467 50.9447 46.8418C51.4156 47.2368 52.1174 47.1766 52.5139 46.707L51.6617 45.9874ZM46.5696 35.3275L45.689 34.6428C45.314 35.125 45.3968 35.819 45.8742 36.1997C46.3518 36.5804 47.0467 36.5063 47.4332 36.0335L46.5696 35.3275ZM56.4244 4.56883L30.338 33.4284L31.9931 34.9244L58.0793 6.06474L56.4244 4.56883ZM32.5307 60.7437L36.1878 63.6746L37.5829 61.9338L33.9258 59.0029L32.5307 60.7437ZM68.9076 60.0149L75.6389 51.5604L73.8936 50.1709L67.1624 58.6255L68.9076 60.0149ZM65.8014 43.7385L59.7067 51.2542L61.4393 52.6593L67.534 45.1435L65.8014 43.7385ZM61.4429 52.655L68.9755 43.2696L67.2356 41.8733L59.7032 51.2587L61.4429 52.655ZM59.2546 35.2667L50.8095 45.2677L52.5139 46.707L60.959 36.7059L59.2546 35.2667ZM52.5184 46.7016L62.1409 35.1614L60.4275 33.7328L50.8051 45.2729L52.5184 46.7016ZM52.0651 26.8426L45.7059 34.6216L47.4332 36.0335L53.7924 28.2546L52.0651 26.8426ZM47.4501 36.0121L65.79 12.4241L64.0288 11.0547L45.689 34.6428L47.4501 36.0121ZM61.2164 25.8856C58.4204 23.6382 54.3356 24.0654 52.0651 26.8426L53.7924 28.2546C55.2874 26.4256 57.9774 26.1444 59.8186 27.6243L61.2164 25.8856ZM62.1409 35.1614C64.4809 32.355 64.0643 28.175 61.2164 25.8856L59.8186 27.6243C61.6942 29.132 61.9684 31.8847 60.4275 33.7328L62.1409 35.1614ZM68.2594 34.6329C65.6147 32.2708 61.5421 32.5575 59.2546 35.2667L60.959 36.7059C62.4362 34.9566 65.0658 34.7716 66.7733 36.2968L68.2594 34.6329ZM68.9755 43.2696C71.0712 40.6582 70.7566 36.8634 68.2594 34.6329L66.7733 36.2968C68.3858 37.737 68.5888 40.1872 67.2356 41.8733L68.9755 43.2696ZM67.534 45.1435C68.9445 43.404 71.4923 43.1243 73.2468 44.5159L74.6333 42.7683C71.9208 40.6166 67.9818 41.0494 65.8014 43.7385L67.534 45.1435ZM75.6389 51.5604C77.7922 48.8559 77.3417 44.9169 74.6333 42.7683L73.2468 44.5159C74.9887 45.8979 75.2786 48.4314 73.8936 50.1709L75.6389 51.5604ZM36.1878 63.6746C46.2274 71.7211 60.8937 70.0807 68.9076 60.0149L67.1624 58.6255C59.9177 67.7251 46.6591 69.208 37.5829 61.9338L36.1878 63.6746ZM65.79 12.4241C67.7694 9.87826 67.4319 6.23297 65.0191 4.09362L63.5391 5.76287C65.0719 7.12189 65.2862 9.43756 64.0288 11.0547L65.79 12.4241ZM30.338 33.4284C23.0714 41.4677 24.0747 53.9665 32.5307 60.7437L33.9258 59.0029C26.4718 53.0288 25.5874 42.0111 31.9931 34.9244L30.338 33.4284ZM58.0793 6.06474C59.5084 4.48371 61.9444 4.34904 63.5391 5.76287L65.0191 4.09362C62.5087 1.86795 58.674 2.07999 56.4244 4.56883L58.0793 6.06474Z" fill="#FB6C6C"/>
<path d="M14.652 3.35741L15.2088 3.69498L15.7765 3.37611C16.8451 2.7759 18.7955 1.78286 20.8538 1.29131C22.9515 0.790396 24.848 0.879314 26.14 2.00085C27.9605 3.58118 29.9772 7.7083 29.1193 12.5955C28.2903 17.316 24.7297 22.9226 15.2257 27.5076C5.52532 22.9154 1.8896 17.2109 1.15088 12.4626C0.385331 7.54147 2.66917 3.4913 4.94376 2.11234C6.78201 0.997901 8.71245 1.00696 10.4693 1.46127C12.2444 1.92032 13.7535 2.81268 14.652 3.35741Z" stroke="#FB6C6C" stroke-width="2" stroke-linecap="round"/>
</g>
</g>
<defs>
<clipPath id="clip0_356_670">
<rect width="78" height="78" fill="white"/>
</clipPath>
</defs>
</svg>
