<svg width="80" height="81" viewBox="0 0 80 81" fill="none" xmlns="http://www.w3.org/2000/svg">
<path fill-rule="evenodd" clip-rule="evenodd" d="M8.66016 32.8209C8.66016 30.8086 10.1437 29.0588 12.1691 29.0588C14.2186 29.0588 15.6231 30.8309 15.6776 32.7914L15.678 32.8062V57.2855H67.2654V44.5926C67.2654 42.656 68.8377 41.0837 70.7743 41.0837C72.7169 41.0837 74.2654 42.6553 74.3249 44.5594L74.3254 44.576V73.4522C74.3254 75.3887 72.753 76.9611 70.8165 76.9611C68.8799 76.9611 67.3076 75.3887 67.3076 73.4522V67.3834H15.678V73.2412C15.678 75.2535 14.1945 77.0033 12.1691 77.0033C10.1334 77.0033 8.66016 75.2001 8.66016 73.2412V32.8209ZM12.1691 31.1823C11.4941 31.1823 10.7837 31.7954 10.7837 32.8209V73.2412C10.7837 74.2358 11.5044 74.8798 12.1691 74.8798C12.844 74.8798 13.5545 74.2667 13.5545 73.2412V65.2599H69.4311V73.4522C69.4311 74.2159 70.0527 74.8376 70.8165 74.8376C71.5802 74.8376 72.2019 74.2159 72.2019 73.4522V44.6113C72.1697 43.8221 71.5274 43.2072 70.7743 43.2072C70.0105 43.2072 69.3889 43.8288 69.3889 44.5926V59.409H13.5545V32.8369C13.5191 31.7682 12.8171 31.1823 12.1691 31.1823Z" fill="#FF9D71"/>
<path fill-rule="evenodd" clip-rule="evenodd" d="M17.3325 40.7569C17.3325 37.2284 20.1842 34.3768 23.7126 34.3768C27.2411 34.3768 30.0927 37.2284 30.0927 40.7569C30.0927 44.2853 27.2411 47.137 23.7126 47.137C20.1842 47.137 17.3325 44.2853 17.3325 40.7569ZM23.7126 36.5003C21.3569 36.5003 19.456 38.4012 19.456 40.7569C19.456 43.1126 21.3569 45.0135 23.7126 45.0135C26.0683 45.0135 27.9692 43.1126 27.9692 40.7569C27.9692 38.4012 26.0683 36.5003 23.7126 36.5003Z" fill="#FF9D71"/>
<path fill-rule="evenodd" clip-rule="evenodd" d="M31.031 43.9696C31.031 42.1762 32.487 40.7202 34.2804 40.7202C36.0738 40.7202 37.5298 42.1762 37.5298 43.9696V52.1169C37.5298 53.9103 36.0738 55.3663 34.2804 55.3663H21.1542C19.3809 55.3663 17.96 53.8992 17.9053 52.15L17.9048 52.1335V52.1169C17.9048 50.3235 19.3608 48.8674 21.1542 48.8674H31.031V43.9696ZM34.2804 42.8437C33.6598 42.8437 33.1545 43.349 33.1545 43.9696V50.9909H21.1542C20.5391 50.9909 20.0372 51.4874 20.0284 52.1005C20.0577 52.7568 20.5937 53.2428 21.1542 53.2428H34.2804C34.901 53.2428 35.4063 52.7375 35.4063 52.1169V43.9696C35.4063 43.349 34.901 42.8437 34.2804 42.8437Z" fill="#FF9D71"/>
<path fill-rule="evenodd" clip-rule="evenodd" d="M49.4753 41.8234C54.0271 41.8139 59.0229 41.8138 60.718 41.8519C62.7415 41.8974 63.9538 42.7791 64.6216 43.7577C64.9391 44.2228 65.1142 44.6804 65.2109 45.0208C65.2596 45.1923 65.2897 45.3383 65.308 45.447C65.3172 45.5014 65.3236 45.547 65.3279 45.582C65.33 45.5996 65.3317 45.6146 65.3329 45.6269L65.3345 45.6432L65.3351 45.6498L65.3354 45.6527L65.3355 45.6541C65.3355 45.6547 65.3356 45.6553 64.2774 45.7423L65.3356 45.6553L65.3392 45.6988V56.4978H39.7168V41.8565L40.7737 41.8517L40.7785 42.9134C40.7737 41.8517 40.7736 41.8517 40.7737 41.8517L41.4922 41.8486C41.9517 41.8466 42.6118 41.844 43.4144 41.841C45.0196 41.8352 47.1949 41.8281 49.4753 41.8234ZM41.8403 43.9707V54.3743H63.2157V45.8095C63.2152 45.8067 63.2147 45.8038 63.2142 45.8007C63.2071 45.7585 63.1932 45.6889 63.1683 45.6011C63.1176 45.4228 63.0264 45.1873 62.8676 44.9546C62.583 44.5376 62.0037 44.0049 60.6703 43.9749C59.0083 43.9375 54.0463 43.9374 49.4797 43.9469C47.2008 43.9516 45.0266 43.9586 43.4222 43.9645C42.8002 43.9668 42.2639 43.9689 41.8403 43.9707Z" fill="#FF9D71"/>
<path d="M43.8545 30.1943C44.6232 31.5016 45.1814 32.4466 46.0677 32.5886C47.184 32.7649 48.3004 32.8432 49.3825 32.8432C51.9482 32.8432 54.2886 32.4074 55.7869 31.8492C56.159 31.7072 56.443 31.4184 56.5801 31.0364C56.7662 30.5125 56.7809 29.7389 55.6694 27.7167C58.2743 27.5747 62.8083 27.2712 67.0485 26.6738C75.1275 25.5378 76.7384 24.0983 77.2378 22.9771C77.6687 22.0125 77.5658 21.0038 76.9489 20.049C74.9512 16.9741 67.5137 15.0107 63.2734 15.0107C60.4825 15.0107 51.0032 15.7843 41.8372 16.5335C34.8795 17.1014 27.0307 17.7478 25.6842 17.7184C24.3867 16.9203 18.1389 11.4609 10.1971 4.18C9.869 3.88132 9.44791 3.71484 9.00235 3.71484H4.73763C4.11579 3.71484 3.55271 4.02821 3.22956 4.55702C2.9064 5.08582 2.88191 5.73214 3.16101 6.28053C6.45135 12.7584 8.6645 17.8751 8.97297 19.6916C8.37561 19.9462 6.80389 20.3477 4.05214 20.6807C3.1659 20.7884 2.5 21.5424 2.5 22.4385V23.6185C2.5 24.5194 3.1757 25.2734 4.07173 25.3763C9.09538 25.9345 34.3703 28.7009 42.9144 28.7547C43.1641 29.0338 43.5852 29.7487 43.8496 30.1992L43.8545 30.1943ZM4.57605 22.698C10.579 21.939 11.0833 21.0136 11.0833 20.0539C11.0833 17.8261 7.95453 11.1573 5.23216 5.7762H8.87994C13.2083 9.74714 23.2262 18.8494 24.9204 19.6524C25.4149 19.8875 26.071 19.8924 41.9988 18.5899C50.6996 17.88 60.5609 17.0721 63.2685 17.0721C67.357 17.0721 73.7957 19.0012 75.2058 21.1703C75.4996 21.6208 75.4359 21.9048 75.338 22.1251C75.2744 22.2671 74.5056 23.5206 66.7547 24.6124C62.3137 25.2392 57.5251 25.5427 55.0672 25.6652C54.4453 25.6945 53.9018 26.0422 53.6031 26.5857C53.3045 27.1292 53.3143 27.7755 53.6276 28.3141C54.1173 29.1611 54.3768 29.7389 54.4992 30.0914C52.6288 30.6545 49.5637 31.012 46.5671 30.5664C46.3321 30.3118 45.9061 29.592 45.6417 29.1416C44.8289 27.7657 44.1924 26.6787 43.169 26.6787C35.1146 26.6787 10.2117 23.9661 4.57605 23.3443V22.7029V22.698Z" fill="#FF9D71"/>
<g style="mix-blend-mode:multiply" opacity="0.8">
<path d="M65.3599 77.8861L66.3199 72.6861H52.8799L53.8399 67.1661L69.6399 49.0861H77.3199L74.1999 66.7661H77.4799L76.4399 72.6861H73.1599L72.2399 77.8861H65.3599ZM61.1199 66.7661H67.8399L69.6399 56.6061L61.1199 66.7661Z" fill="url(#paint0_linear_144_2722)"/>
</g>
<defs>
<linearGradient id="paint0_linear_144_2722" x1="52.8799" y1="63.4861" x2="77.4799" y2="63.4861" gradientUnits="userSpaceOnUse">
<stop stop-color="#961E27"/>
<stop offset="0.5" stop-color="#FA3B3B"/>
<stop offset="1" stop-color="#FF9D71"/>
</linearGradient>
</defs>
</svg>
