<svg width="43" height="18" viewBox="0 0 43 18" fill="none" xmlns="http://www.w3.org/2000/svg">
<g clip-path="url(#clip0_144_1127)">
<path d="M1.78885 7.26948C6.77196 0.723796 14.6822 1.30344 21.6208 4.0558C28.3382 6.72086 33.6448 11.3081 39.5337 15.3064C39.8813 15.5414 40.2253 15.0214 40.0004 14.7282C37.7773 11.8326 34.6208 9.69615 31.6022 7.70824C28.1097 5.40522 24.3844 3.4478 20.4297 2.06966C13.4742 -0.348915 5.5204 0.112862 1.07862 6.68024C0.777289 7.12744 1.44396 7.72184 1.78885 7.26948Z" fill="#007BB6" stroke="#007BB6" stroke-width="0.5"/>
<path d="M30.4557 14.0604C33.8148 13.4388 37.0121 14.6295 39.9508 16.1945C40.5623 16.5172 41.4308 15.7671 40.9801 15.1385C40.0868 13.896 39.3019 12.6026 38.5917 11.2446C37.8326 9.79268 37.4548 7.77303 36.2317 6.6517C35.9703 6.41499 35.5748 6.62397 35.5446 6.94272C35.4112 8.39108 36.1988 9.7973 36.8139 11.0748C37.6299 12.7761 38.5561 14.3984 39.6761 15.9173C40.0183 15.5661 40.3632 15.2124 40.7054 14.8612C37.9108 13.4142 33.1614 11.1531 30.213 13.3689C29.9641 13.561 30.0957 14.1286 30.4557 14.0604Z" fill="#007BB6" stroke="#007BB6" stroke-width="0.5"/>
</g>
<defs>
<clipPath id="clip0_144_1127">
<rect width="42" height="17" fill="white" transform="translate(0.202148 0.126465)"/>
</clipPath>
</defs>
</svg>
