<svg width="80" height="81" viewBox="0 0 80 81" fill="none" xmlns="http://www.w3.org/2000/svg">
<path d="M54.7601 39.283C54.7237 39.283 54.6894 39.279 54.6531 39.2729C54.3321 39.2144 54.1202 38.9055 54.1787 38.5846C55.3616 32.115 49.2635 29.8461 47.368 29.3051C46.7201 29.1215 42.802 28.635 39.0131 28.1667C32.2085 27.3249 27.3134 26.6992 26.3082 26.3197C25.3675 25.9644 24.8084 25.0217 24.9779 24.075C25.2524 22.5308 27.0126 22.2906 28.0098 22.3915C28.3348 22.4238 28.571 22.7145 28.5387 23.0395C28.5064 23.3645 28.2157 23.6006 27.8907 23.5683C27.8766 23.5663 26.29 23.4391 26.1406 24.2829C26.072 24.6624 26.3243 25.0641 26.726 25.2155C27.6768 25.5748 34.0434 26.3621 39.1605 26.9939C43.995 27.5914 46.9946 27.9688 47.695 28.1687C52.1016 29.4263 56.4274 32.878 55.3455 38.7965C55.293 39.0811 55.0447 39.281 54.7641 39.281L54.7601 39.283Z" fill="#FF9D71" stroke="#FF9D71" stroke-width="0.8"/>
<path d="M37.634 23.6915C36.7014 23.6915 36.1019 23.6835 36.005 23.6814C27.6501 23.5563 26.0029 21.3924 25.7405 20.914C25.2116 20.1348 25.2601 19.4666 25.3953 19.0407C25.8071 17.7387 27.4825 17.0968 27.6723 17.0262C27.9791 16.9151 28.3182 17.0726 28.4293 17.3794C28.5403 17.6862 28.3828 18.0254 28.076 18.1364C27.7349 18.2615 26.7195 18.7621 26.5197 19.398C26.4894 19.4949 26.3966 19.7896 26.7316 20.27C26.7538 20.3023 26.772 20.3346 26.7882 20.371C26.7902 20.371 28.0155 22.3794 36.0212 22.4965C36.1201 22.4965 46.0858 22.6338 51.318 21.7052C51.968 21.5902 52.4948 21.2127 52.6603 20.7444C52.7754 20.4154 52.733 20.266 52.6745 20.163C52.5554 19.9511 52.1254 19.5494 50.5893 19.2345C50.2703 19.1699 50.0624 18.857 50.129 18.5361C50.1956 18.2151 50.5065 18.0092 50.8275 18.0758C52.3898 18.3968 53.3043 18.8732 53.7039 19.5797C53.9623 20.0359 53.9865 20.5446 53.7766 21.138C53.4678 22.0141 52.6058 22.6762 51.5279 22.8679C47.4261 23.5967 40.7184 23.6875 37.636 23.6875L37.634 23.6915Z" fill="#FF9D71" stroke="#FF9D71" stroke-width="0.8"/>
<path d="M43.0176 10.4839C43.385 11.3438 43.9058 12.2057 44.6425 12.9667L43.0176 10.4839Z" fill="white" stroke="#FF9D71" stroke-width="0.8"/>
<path d="M44.6429 13.5582C44.4875 13.5582 44.3341 13.4976 44.217 13.3785C43.4984 12.6337 42.913 11.7374 42.475 10.716C42.3458 10.4152 42.4851 10.068 42.7859 9.94087C43.0866 9.8137 43.4338 9.95096 43.561 10.2517C43.9425 11.1399 44.4492 11.9171 45.0669 12.557C45.2929 12.7911 45.2869 13.1666 45.0507 13.3926C44.9356 13.5037 44.7883 13.5582 44.6409 13.5582H44.6429Z" fill="#FF9D71" stroke="#FF9D71" stroke-width="0.8"/>
<path d="M33.3691 12.9244C33.3691 12.9244 33.791 12.0947 34.548 10.9865L33.3691 12.9244Z" fill="white" stroke="#FF9D71" stroke-width="0.8"/>
<path d="M33.3689 13.5158C33.278 13.5158 33.1872 13.4956 33.1024 13.4512C32.8117 13.3038 32.6947 12.9486 32.842 12.6559C32.8602 12.6216 33.2902 11.7778 34.0592 10.6514C34.2429 10.3809 34.6103 10.3123 34.8808 10.496C35.1513 10.6797 35.2199 11.0471 35.0362 11.3176C34.3136 12.3773 33.8998 13.1827 33.8957 13.1908C33.7908 13.3967 33.5828 13.5138 33.3689 13.5138V13.5158Z" fill="#FF9D71" stroke="#FF9D71" stroke-width="0.8"/>
<path d="M39.9956 51.5521C39.933 51.5521 39.8724 51.5521 39.8139 51.548C35.7949 51.439 34.4606 48.0296 34.3193 46.2412C34.2931 45.9162 34.5353 45.6316 34.8623 45.6053C35.1853 45.5811 35.4719 45.8213 35.4982 46.1463C35.5123 46.3138 35.8938 50.2581 39.8543 50.3671C40.0057 50.3712 43.4998 50.4519 43.8793 47.3171C43.9076 47.1737 44.3194 44.9957 41.6327 43.6634C41.3379 43.5181 40.9988 43.3889 40.5668 43.2617L39.9673 43.0861C39.0186 42.8661 36.6205 42.1515 35.5951 40.4539C35.1106 39.6525 34.9915 38.7522 35.2398 37.7732C35.2882 37.5007 35.6354 35.8031 37.0868 34.7696C38.1082 34.0429 39.4082 33.8188 40.9524 34.1075C42.5975 34.4143 43.9379 35.4397 44.5414 36.8527C44.7938 37.4442 44.9209 38.082 44.9189 38.7522C44.9189 39.0772 44.6525 39.3416 44.3275 39.3416C43.9984 39.3416 43.736 39.0752 43.736 38.7482C43.736 38.2415 43.6432 37.7611 43.4534 37.319C43.0053 36.2714 41.9879 35.5043 40.7344 35.2702C39.5172 35.0421 38.522 35.1995 37.7711 35.7324C36.6266 36.5479 36.4025 37.969 36.4005 37.9831C36.3964 38.0033 36.3924 38.0235 36.3884 38.0437C36.2128 38.7219 36.2834 39.3094 36.6044 39.8402C37.4199 41.1887 39.6141 41.7902 40.2661 41.9416L40.8979 42.1273C41.3965 42.2746 41.7962 42.426 42.1555 42.6037C44.9855 44.0066 45.2802 46.4309 45.04 47.5149C44.6545 50.7164 41.671 51.55 39.9936 51.55L39.9956 51.5521Z" fill="#FF9D71" stroke="#FF9D71" stroke-width="0.8"/>
<path d="M39.9049 32.6824L39.8262 53.5949" stroke="#FF9D71" stroke-width="0.8"/>
<path d="M39.8263 54.1843C39.4973 54.1843 39.2349 53.9178 39.2349 53.5908L39.3136 32.6783C39.3136 32.3513 39.5679 32.1111 39.9071 32.0889C40.2341 32.0889 40.4965 32.3553 40.4965 32.6823L40.4178 53.5949C40.4178 53.9198 40.1513 54.1843 39.8263 54.1843Z" fill="#FF9D71" stroke="#FF9D71" stroke-width="0.8"/>
<path d="M33.4698 75.3571C31.9619 75.3571 30.4581 75.1109 29.0108 74.6224L11.3623 68.6655C9.30132 67.9732 7.92263 66.0434 7.9307 63.8674L7.94685 59.6546C7.96703 54.4285 12.2242 50.1895 17.4463 50.1895H17.4826L27.5412 50.2278C29.0531 50.2339 30.561 50.6053 31.9014 51.3057L43.9987 57.6199C45.3007 58.1972 46.2373 59.1338 46.7339 60.2501L64.6307 51.881C65.8035 51.2492 67.1499 51.1079 68.4296 51.4793C69.7236 51.8548 70.7934 52.7127 71.4434 53.8956C72.0934 55.0764 72.2427 56.439 71.8653 57.7349C71.4918 59.0208 70.642 60.0866 69.4712 60.7365L52.8744 70.4056C52.1276 70.8416 51.3242 71.1726 50.4865 71.3906L36.9902 74.907C35.8315 75.2098 34.6487 75.3592 33.4698 75.3592V75.3571ZM17.4463 51.3723C12.8742 51.3723 9.14589 55.0825 9.12772 59.6586L9.11157 63.8714C9.10551 65.5367 10.1612 67.0143 11.7377 67.5452L29.3862 73.5021C31.75 74.2994 34.2752 74.3882 36.6894 73.7604L50.1857 70.2441C50.9184 70.0523 51.6209 69.7637 52.2769 69.3821L68.8475 59.7293C68.8475 59.7293 68.8657 59.7192 68.8737 59.7131C69.7861 59.2085 70.4402 58.391 70.7288 57.4039C71.0175 56.4127 70.9024 55.3691 70.4058 54.4648C69.9093 53.5605 69.0897 52.9044 68.0986 52.6158C67.1075 52.3271 66.0639 52.4422 65.1595 52.9388C65.1394 52.9489 47.073 61.3966 47.073 61.3966C47.2164 62.2787 47.1134 63.2234 46.7319 64.1661C46.2272 65.4156 45.2644 66.3926 44.025 66.9195C42.7835 67.4463 41.4129 67.4564 40.1634 66.9518L26.6975 60.6074C26.4028 60.4681 26.2756 60.1168 26.4149 59.8201C26.5541 59.5254 26.9054 59.3982 27.2021 59.5375L40.6378 65.8698C41.5643 66.2432 42.614 66.2352 43.5647 65.8314C44.5155 65.4277 45.2503 64.6788 45.6378 63.722C46.4876 61.6207 45.6419 59.6425 43.486 58.6837L31.3543 52.3554C30.1815 51.7417 28.8614 51.4168 27.5372 51.4127L17.4786 51.3744H17.4463V51.3723Z" fill="#FF9D71" stroke="#FF9D71" stroke-width="0.8"/>
<path fill-rule="evenodd" clip-rule="evenodd" d="M62.8294 53.3751C65.137 49.1737 65.4596 44.2523 63.7121 39.3456C62.5938 36.2067 60.3633 32.9649 57.5918 30.4538C57.4118 30.2895 57.0196 29.9716 56.5693 29.6068L56.5259 29.5717L56.417 29.4832C55.7738 28.9614 55.0149 28.3458 54.6769 28.0174C51.9781 25.3952 50.8073 22.4299 51.3806 19.6665C51.9942 16.7052 54.5942 14.1598 58.5102 12.6802C58.7141 12.6014 58.8594 12.4177 58.8877 12.2018C58.9361 11.8202 58.3629 11.2026 57.18 10.3669C54.8768 8.73989 50.0766 6.54165 43.393 9.64623C43.1528 8.78833 42.8299 7.55902 42.7834 7.02409C42.737 6.48311 42.4564 5.99663 42.0123 5.68981C41.5521 5.37087 40.9748 5.27802 40.4237 5.43143C37.412 6.27722 35.1269 9.14158 34.3417 10.2417C27.3716 7.11695 23.4313 8.75402 21.6852 10.0298C21.1382 10.4294 19.9634 11.4973 20.038 12.0625C20.0663 12.2764 20.2096 12.4581 20.4115 12.5368C24.3053 14.0407 26.8871 16.5902 27.4967 19.5272C28.0599 22.2361 26.9234 25.151 24.2993 27.7348C23.2667 28.7513 22.4265 29.3097 22.4003 29.3271L22.3998 29.3274C13.6634 35.1349 13.5867 43.0578 13.7703 45.3489C13.7855 45.5364 13.7988 45.7238 13.8121 45.9119C13.8183 45.9993 13.8245 46.0868 13.8309 46.1745C13.8551 46.5156 13.8814 46.8588 13.9096 47.1999C14.0256 48.5661 14.3634 49.8912 14.8925 51.1519C15.2718 51.0386 15.6617 50.95 16.0603 50.8878C15.5343 49.6822 15.1998 48.412 15.0885 47.101C15.0602 46.7639 15.036 46.4269 15.0118 46.0898L15.0118 46.0897C14.9916 45.8091 14.9714 45.5306 14.9492 45.252C14.7776 43.1244 14.8563 35.7586 23.0498 30.3125C23.0881 30.2883 23.9965 29.6908 25.1289 28.5765C28.0498 25.702 29.3013 22.4037 28.6554 19.287C28.0014 16.138 25.4277 13.4109 21.5479 11.7254C22.6501 10.5041 26.2613 7.74876 34.2973 11.5215C34.5678 11.6487 34.8888 11.5558 35.0482 11.3035C35.0724 11.2651 37.5008 7.48029 40.7427 6.56991C40.9526 6.51137 41.1686 6.54367 41.3381 6.66075C41.4936 6.76773 41.5884 6.93325 41.6046 7.12502C41.6873 8.07981 42.3757 10.3931 42.4544 10.6535C42.5049 10.821 42.626 10.9583 42.7875 11.0269C42.949 11.0956 43.1327 11.0895 43.2881 11.0108C50.7104 7.25219 55.6358 10.5263 57.2466 11.9171C53.4153 13.5845 50.8739 16.2853 50.2219 19.4242C49.5639 22.5975 50.8537 25.9503 53.8533 28.8631C54.247 29.2467 55.0625 29.9067 55.7811 30.4881C56.2272 30.8494 56.6188 31.1684 56.7964 31.3278C59.4287 33.7138 61.5421 36.78 62.5958 39.7413C64.4105 44.8362 63.8433 49.9331 60.9991 54.0974C60.9539 54.1636 60.9082 54.2294 60.862 54.2948C61.5929 53.9531 62.2591 53.6417 62.8294 53.3751ZM26.948 60.0705L26.9457 60.0704H26.9478L26.948 60.0705Z" fill="#FF9D71"/>
<path d="M63.7121 39.3456L64.0889 39.2114L64.0889 39.2114L63.7121 39.3456ZM62.8294 53.3751L62.9988 53.7375L63.1171 53.6821L63.18 53.5677L62.8294 53.3751ZM57.5918 30.4538L57.322 30.7492L57.3232 30.7502L57.5918 30.4538ZM56.5693 29.6068L56.3175 29.9176L56.3175 29.9176L56.5693 29.6068ZM56.5259 29.5717L56.2739 29.8823L56.2741 29.8824L56.5259 29.5717ZM56.417 29.4832L56.669 29.1726L56.669 29.1726L56.417 29.4832ZM54.6769 28.0174L54.9557 27.7305L54.9557 27.7305L54.6769 28.0174ZM51.3806 19.6665L51.7722 19.7477L51.7723 19.7476L51.3806 19.6665ZM58.5102 12.6802L58.6516 13.0544L58.6543 13.0533L58.5102 12.6802ZM58.8877 12.2018L59.2843 12.2536L59.2845 12.2521L58.8877 12.2018ZM57.18 10.3669L57.4108 10.0402L57.4108 10.0402L57.18 10.3669ZM43.393 9.64623L43.0079 9.75408L43.1348 10.2073L43.5616 10.009L43.393 9.64623ZM42.7834 7.02409L42.3849 7.05829L42.3849 7.05868L42.7834 7.02409ZM42.0123 5.68981L41.7845 6.01858L41.785 6.0189L42.0123 5.68981ZM40.4237 5.43143L40.3164 5.04608L40.3156 5.04633L40.4237 5.43143ZM34.3417 10.2417L34.1781 10.6067L34.477 10.7407L34.6673 10.4741L34.3417 10.2417ZM21.6852 10.0298L21.9212 10.3527L21.9212 10.3527L21.6852 10.0298ZM20.038 12.0625L20.4346 12.0101L20.4346 12.0101L20.038 12.0625ZM20.4115 12.5368L20.2661 12.9095L20.2674 12.91L20.4115 12.5368ZM27.4967 19.5272L27.1051 19.6085L27.1051 19.6086L27.4967 19.5272ZM24.2993 27.7348L24.5799 28.0198L24.5799 28.0198L24.2993 27.7348ZM22.4003 29.3271L22.1789 28.9939L22.1781 28.9945L22.4003 29.3271ZM22.3998 29.3274L22.6212 29.6605L22.622 29.66L22.3998 29.3274ZM13.7703 45.3489L13.3716 45.3809L13.3716 45.3812L13.7703 45.3489ZM13.8121 45.9119L13.4131 45.9402H13.4131L13.8121 45.9119ZM13.8309 46.1745L14.2299 46.1462L14.2298 46.1454L13.8309 46.1745ZM13.9096 47.1999L13.511 47.233L13.5111 47.2338L13.9096 47.1999ZM14.8925 51.1519L14.5237 51.3067L14.6627 51.6379L15.0069 51.5351L14.8925 51.1519ZM16.0603 50.8878L16.122 51.283L16.6342 51.2031L16.4269 50.7279L16.0603 50.8878ZM15.0885 47.101L14.6899 47.1344L14.6899 47.1349L15.0885 47.101ZM15.0118 46.0898L15.4108 46.0611L15.4106 46.0586L15.0118 46.0898ZM15.0118 46.0897L14.6128 46.1184L14.613 46.1209L15.0118 46.0897ZM14.9492 45.252L15.3479 45.2202L15.3479 45.2199L14.9492 45.252ZM23.0498 30.3125L22.8361 29.9742L22.8283 29.9794L23.0498 30.3125ZM25.1289 28.5765L25.4095 28.8616L25.4095 28.8616L25.1289 28.5765ZM28.6554 19.287L29.047 19.2058L29.047 19.2056L28.6554 19.287ZM21.5479 11.7254L21.251 11.4574L20.8782 11.8705L21.3886 12.0922L21.5479 11.7254ZM34.2973 11.5215L34.4675 11.1595L34.4673 11.1594L34.2973 11.5215ZM35.0482 11.3035L35.3864 11.5172L35.3864 11.5171L35.0482 11.3035ZM40.7427 6.56991L40.6352 6.18461L40.6345 6.18481L40.7427 6.56991ZM41.3381 6.66075L41.1109 6.98991L41.1113 6.99024L41.3381 6.66075ZM41.6046 7.12502L41.206 7.15859L41.2061 7.15956L41.6046 7.12502ZM42.4544 10.6535L42.8374 10.5381L42.8373 10.5377L42.4544 10.6535ZM42.7875 11.0269L42.631 11.3951L42.631 11.3951L42.7875 11.0269ZM43.2881 11.0108L43.1074 10.6539L43.1073 10.654L43.2881 11.0108ZM57.2466 11.9171L57.4062 12.2839L57.9895 12.0301L57.508 11.6144L57.2466 11.9171ZM50.2219 19.4242L49.8303 19.3429L49.8302 19.343L50.2219 19.4242ZM53.8533 28.8631L54.1325 28.5766L54.132 28.5762L53.8533 28.8631ZM55.7811 30.4881L56.0328 30.1773L56.0327 30.1771L55.7811 30.4881ZM56.7964 31.3278L57.0651 31.0315L57.0636 31.0302L56.7964 31.3278ZM62.5958 39.7413L62.219 39.8754L62.219 39.8755L62.5958 39.7413ZM60.9991 54.0974L61.3294 54.3231L61.3294 54.323L60.9991 54.0974ZM60.862 54.2948L60.5353 54.0641L59.6659 55.2956L61.0314 54.6572L60.862 54.2948ZM26.948 60.0705L26.9296 60.4701L27.1162 59.7076L26.948 60.0705ZM26.9457 60.0704V59.6704L26.9274 60.47L26.9457 60.0704ZM26.9478 60.0704L27.116 59.7075L27.036 59.6704H26.9478V60.0704ZM63.3353 39.4798C65.0477 44.2881 64.7268 49.0896 62.4788 53.1825L63.18 53.5677C65.5472 49.2578 65.8714 44.2165 64.0889 39.2114L63.3353 39.4798ZM57.3232 30.7502C60.0518 33.2225 62.2417 36.4104 63.3353 39.4799L64.0889 39.2114C62.9459 36.0031 60.6747 32.7073 57.8603 30.1574L57.3232 30.7502ZM56.3175 29.9176C56.7739 30.2874 57.1533 30.5951 57.322 30.7492L57.8615 30.1584C57.6703 29.9838 57.2652 29.6559 56.8211 29.296L56.3175 29.9176ZM56.2741 29.8824L56.3175 29.9176L56.8211 29.296L56.7778 29.2609L56.2741 29.8824ZM56.165 29.7939L56.2739 29.8823L56.778 29.261L56.669 29.1726L56.165 29.7939ZM54.3982 28.3042C54.7526 28.6486 55.5304 29.279 56.165 29.7939L56.669 29.1726C56.0172 28.6438 55.2773 28.043 54.9557 27.7305L54.3982 28.3042ZM50.9889 19.5852C50.3789 22.5259 51.6378 25.6223 54.3982 28.3042L54.9557 27.7305C52.3183 25.1681 51.2357 22.3339 51.7722 19.7477L50.9889 19.5852ZM58.3688 12.306C54.3792 13.8134 51.6404 16.4414 50.9889 19.5853L51.7723 19.7476C52.3481 16.969 54.8091 14.5062 58.6516 13.0543L58.3688 12.306ZM58.4911 12.1499C58.482 12.2193 58.4346 12.2806 58.3661 12.307L58.6543 13.0533C58.9936 12.9223 59.2369 12.6162 59.2843 12.2536L58.4911 12.1499ZM56.9492 10.6936C57.5317 11.1051 57.945 11.45 58.2027 11.727C58.3316 11.8657 58.4104 11.9756 58.4535 12.0575C58.4977 12.1418 58.4889 12.1671 58.4909 12.1514L59.2845 12.2521C59.3107 12.0457 59.2484 11.8507 59.1618 11.6857C59.074 11.5184 58.9447 11.3502 58.7885 11.1822C58.4759 10.8461 58.0112 10.4643 57.4108 10.0402L56.9492 10.6936ZM43.5616 10.009C50.0805 6.98086 54.7281 9.1246 56.9492 10.6936L57.4108 10.0402C55.0254 8.35517 50.0726 6.10244 43.2245 9.28346L43.5616 10.009ZM42.3849 7.05868C42.4111 7.36034 42.5108 7.82905 42.6268 8.30818C42.7449 8.79604 42.8871 9.32286 43.0079 9.75408L43.7782 9.53838C43.6588 9.11171 43.5194 8.59492 43.4043 8.11991C43.2872 7.63618 43.2022 7.22277 43.1819 6.9895L42.3849 7.05868ZM41.785 6.0189C42.1298 6.25718 42.3486 6.63498 42.3849 7.05829L43.182 6.98989C43.1254 6.33124 42.783 5.73609 42.2397 5.36072L41.785 6.0189ZM40.531 5.81678C40.9712 5.69422 41.4251 5.76954 41.7845 6.01858L42.2402 5.36103C41.6791 4.97221 40.9784 4.86181 40.3164 5.04608L40.531 5.81678ZM34.6673 10.4741C35.0501 9.93777 35.7996 8.97029 36.8182 8.03597C37.8395 7.09912 39.1095 6.21597 40.5319 5.81653L40.3156 5.04633C38.7262 5.49268 37.3478 6.4646 36.2774 7.44642C35.2042 8.43076 34.4186 9.44553 34.0161 10.0093L34.6673 10.4741ZM21.9212 10.3527C23.5419 9.16858 27.3281 7.53581 34.1781 10.6067L34.5054 9.87671C27.415 6.69808 23.3207 8.33945 21.4492 9.70678L21.9212 10.3527ZM20.4346 12.0101C20.4351 12.0136 20.4322 11.9955 20.447 11.9476C20.4616 11.9007 20.4887 11.8393 20.5327 11.7639C20.6211 11.612 20.7576 11.4364 20.9243 11.2533C21.2571 10.8877 21.667 10.5385 21.9212 10.3527L21.4492 9.70678C21.1564 9.92074 20.7054 10.3053 20.3327 10.7148C20.1466 10.9192 19.9692 11.1416 19.8413 11.3614C19.7219 11.5665 19.6048 11.8371 19.6415 12.1149L20.4346 12.0101ZM20.5568 12.1642C20.4896 12.138 20.4436 12.0782 20.4346 12.0101L19.6415 12.1148C19.689 12.4747 19.9296 12.7783 20.2661 12.9095L20.5568 12.1642ZM27.8884 19.4459C27.2411 16.3275 24.522 13.6956 20.5556 12.1637L20.2674 12.91C24.0887 14.3858 26.5331 16.8528 27.1051 19.6085L27.8884 19.4459ZM24.5799 28.0198C27.265 25.376 28.4881 22.3305 27.8883 19.4458L27.1051 19.6086C27.6317 22.1417 26.5818 24.926 24.0186 27.4497L24.5799 28.0198ZM22.6217 29.6602C22.6612 29.634 23.5234 29.0599 24.5799 28.0198L24.0186 27.4497C23.0099 28.4428 22.1919 28.9853 22.1789 28.9939L22.6217 29.6602ZM22.622 29.66L22.6225 29.6597L22.1781 28.9945L22.1776 28.9948L22.622 29.66ZM14.1691 45.3169C13.9914 43.1015 14.0543 35.3553 22.6212 29.6605L22.1784 28.9943C13.2724 34.9144 13.1819 43.0141 13.3716 45.3809L14.1691 45.3169ZM14.2111 45.8836C14.1978 45.6959 14.1844 45.5064 14.169 45.3167L13.3716 45.3812C13.3866 45.5663 13.3998 45.7517 13.4131 45.9402L14.2111 45.8836ZM14.2298 46.1454C14.2235 46.0582 14.2173 45.9711 14.2111 45.8836L13.4131 45.9402C13.4193 46.0275 13.4255 46.1154 13.432 46.2036L14.2298 46.1454ZM14.3083 47.1669C14.2801 46.8275 14.254 46.4859 14.2299 46.1462L13.4319 46.2028C13.4562 46.5454 13.4826 46.8902 13.511 47.233L14.3083 47.1669ZM15.2614 50.997C14.7475 49.7728 14.4205 48.4884 14.3082 47.1661L13.5111 47.2338C13.6308 48.6438 13.9793 50.0096 14.5237 51.3067L15.2614 50.997ZM15.9986 50.4926C15.5821 50.5576 15.1746 50.6502 14.7781 50.7686L15.0069 51.5351C15.369 51.4271 15.7413 51.3424 16.122 51.283L15.9986 50.4926ZM14.6899 47.1349C14.8051 48.4918 15.1513 49.8045 15.6937 51.0478L16.4269 50.7279C15.9174 49.5599 15.5944 48.3321 15.487 47.0672L14.6899 47.1349ZM14.6128 46.1184C14.637 46.4551 14.6614 46.7946 14.6899 47.1344L15.4871 47.0676C15.4591 46.7333 15.435 46.3986 15.4107 46.0611L14.6128 46.1184ZM14.613 46.1209L14.613 46.1209L15.4106 46.0586L15.4106 46.0586L14.613 46.1209ZM14.5505 45.2838C14.5725 45.5606 14.5926 45.8378 14.6128 46.1184L15.4107 46.061C15.3906 45.7805 15.3703 45.5005 15.3479 45.2202L14.5505 45.2838ZM22.8283 29.9794C14.4666 35.5374 14.3726 43.0787 14.5505 45.2842L15.3479 45.2199C15.1826 43.1701 15.2461 35.9798 23.2712 30.6456L22.8283 29.9794ZM24.8484 28.2914C24.2946 28.8362 23.7962 29.2542 23.4328 29.538C23.2512 29.6799 23.1036 29.788 23 29.8615C22.9483 29.8983 22.9075 29.9263 22.8792 29.9456C22.8496 29.9657 22.8354 29.9748 22.8362 29.9743L23.2634 30.6507C23.3225 30.6133 24.254 29.9985 25.4095 28.8616L24.8484 28.2914ZM28.2637 19.3682C28.8742 22.3138 27.7038 25.4814 24.8483 28.2914L25.4095 28.8616C28.3958 25.9227 29.7284 22.4936 29.047 19.2058L28.2637 19.3682ZM21.3886 12.0922C25.1915 13.7444 27.6443 16.386 28.2637 19.3683L29.047 19.2056C28.3584 15.89 25.6638 13.0774 21.7073 11.3585L21.3886 12.0922ZM34.4673 11.1594C30.395 9.24753 27.3981 8.96877 25.2512 9.35708C23.1021 9.74581 21.8486 10.7952 21.251 11.4574L21.8449 11.9934C22.3494 11.4343 23.4527 10.4954 25.3936 10.1443C27.3369 9.79281 30.1637 10.0227 34.1273 11.8836L34.4673 11.1594ZM34.7101 11.0898C34.659 11.1706 34.5564 11.2013 34.4675 11.1595L34.1271 11.8835C34.5792 12.096 35.1185 11.941 35.3864 11.5172L34.7101 11.0898ZM40.6345 6.18481C38.9104 6.66896 37.4323 7.9044 36.3993 8.98767C35.3598 10.0778 34.7308 11.0569 34.71 11.0899L35.3864 11.5171C35.3861 11.5176 35.4237 11.4587 35.4963 11.3533C35.5685 11.2485 35.6748 11.0985 35.812 10.9162C36.0866 10.5511 36.4837 10.0584 36.9783 9.53975C37.9761 8.49341 39.333 7.38124 40.8508 6.95501L40.6345 6.18481ZM41.5654 6.33159C41.2907 6.14191 40.9505 6.09668 40.6352 6.18461L40.8501 6.95521C40.9546 6.92606 41.0464 6.94542 41.1109 6.9899L41.5654 6.33159ZM42.0032 7.09145C41.9772 6.78332 41.8215 6.50787 41.5649 6.33125L41.1113 6.99024C41.1656 7.02759 41.1996 7.08319 41.206 7.15859L42.0032 7.09145ZM42.8373 10.5377C42.7987 10.4102 42.6084 9.77175 42.4178 9.04781C42.2241 8.31213 42.041 7.52808 42.0031 7.09048L41.2061 7.15956C41.2509 7.67675 41.4534 8.52674 41.6442 9.25151C41.8381 9.98802 42.0314 10.6364 42.0715 10.7693L42.8373 10.5377ZM42.9439 10.6588C42.8938 10.6375 42.8543 10.5942 42.8374 10.5381L42.0714 10.7689C42.1555 11.0479 42.3582 11.2791 42.631 11.3951L42.9439 10.6588ZM43.1073 10.654C43.0577 10.6791 42.9974 10.6815 42.9439 10.6588L42.631 11.3951C42.9005 11.5096 43.2076 11.4999 43.4688 11.3676L43.1073 10.654ZM57.508 11.6144C56.67 10.8909 54.9777 9.68357 52.5331 9.14239C50.0799 8.59931 46.8988 8.734 43.1074 10.6539L43.4688 11.3676C47.0997 9.52898 50.0924 9.42144 52.3602 9.92348C54.6366 10.4274 56.2123 11.5526 56.9852 12.2199L57.508 11.6144ZM50.6136 19.5056C51.2311 16.5324 53.6527 13.9174 57.4062 12.2839L57.087 11.5504C53.178 13.2515 50.5167 16.0383 49.8303 19.3429L50.6136 19.5056ZM54.132 28.5762C51.1983 25.7274 49.9913 22.506 50.6136 19.5055L49.8302 19.343C49.1364 22.689 50.5091 26.1733 53.5747 29.1501L54.132 28.5762ZM56.0327 30.1771C55.3059 29.5892 54.5093 28.9438 54.1325 28.5766L53.5742 29.1496C53.9846 29.5495 54.8191 30.2243 55.5295 30.7991L56.0327 30.1771ZM57.0636 31.0302C56.8765 30.8621 56.4746 30.5351 56.0328 30.1773L55.5293 30.7989C55.9798 31.1637 56.3611 31.4746 56.5292 31.6255L57.0636 31.0302ZM62.9727 39.6072C61.8941 36.576 59.7398 33.4559 57.0651 31.0315L56.5278 31.6242C59.1176 33.9717 61.1901 36.984 62.219 39.8754L62.9727 39.6072ZM61.3294 54.323C64.2516 50.0445 64.8266 44.8123 62.9726 39.6071L62.219 39.8755C63.9944 44.8601 63.435 49.8217 60.6688 53.8718L61.3294 54.323ZM61.1888 54.5255C61.2361 54.4584 61.283 54.391 61.3294 54.3231L60.6689 53.8718C60.6248 53.9362 60.5803 54.0004 60.5353 54.0641L61.1888 54.5255ZM62.66 53.0127C62.0897 53.2794 61.4235 53.5908 60.6926 53.9325L61.0314 54.6572C61.7623 54.3155 62.4285 54.0041 62.9988 53.7375L62.66 53.0127ZM26.9664 59.671L26.9641 59.6709L26.9274 60.47L26.9296 60.4701L26.9664 59.671ZM26.9457 60.4704H26.9478V59.6704H26.9457V60.4704ZM26.7796 60.4334L26.7798 60.4335L27.1162 59.7076L27.116 59.7075L26.7796 60.4334Z" fill="#FF9D71"/>
<g style="mix-blend-mode:multiply" opacity="0.8">
<path d="M66.9999 77.8861L70.8799 55.8861H66.9199L68.0399 49.5261H79.1199L74.1199 77.8861H66.9999Z" fill="url(#paint0_linear_144_2661)"/>
</g>
<defs>
<linearGradient id="paint0_linear_144_2661" x1="66.9199" y1="63.7061" x2="79.1199" y2="63.7061" gradientUnits="userSpaceOnUse">
<stop stop-color="#961E27"/>
<stop offset="0.5" stop-color="#FA3B3B"/>
<stop offset="1" stop-color="#FF9D71"/>
</linearGradient>
</defs>
</svg>
