<svg width="161" height="49" viewBox="0 0 161 49" fill="none" xmlns="http://www.w3.org/2000/svg">
<g style="mix-blend-mode:luminosity">
<path d="M104.649 11.1586V39.632C104.649 40.2314 104.603 40.8166 104.424 41.3859C104.113 42.3921 103.464 43.0945 102.504 43.5214C101.975 43.7562 101.406 43.8817 100.823 43.9413C99.9293 44.0378 99.036 44.0177 98.149 43.8389C97.6921 43.7497 97.2616 43.6032 96.8516 43.3816C95.8918 42.8692 95.3289 42.0581 95.1168 41.0055C95.0376 40.6182 94.998 40.2147 94.998 39.8238C94.9844 35.475 94.9916 31.1361 94.9916 26.7904V26.4929C94.9716 26.4829 94.9521 26.476 94.9384 26.466C92.8268 28.9289 90.7348 31.4074 88.5968 33.9067C86.4656 31.4374 84.3808 28.9786 82.2424 26.4929C82.2223 26.5989 82.2091 26.6548 82.2091 26.7076C82.2023 27.078 82.2023 27.4484 82.2023 27.8166V39.7713C82.2023 40.3111 82.1495 40.8409 81.9843 41.3601C81.6266 42.5479 80.8189 43.2965 79.647 43.6769C79.1309 43.8457 78.5948 43.9582 78.0455 43.9613C76.278 43.9814 74.4972 43.984 72.7233 43.994C72.6701 43.994 72.6173 43.984 72.5513 43.974V11.1686C72.6245 11.1586 72.7033 11.1455 72.7829 11.1455C74.2856 11.1455 75.7947 11.1323 77.2974 11.1524C78.3568 11.1569 79.3758 11.3507 80.3091 11.8837C80.8721 12.2081 81.3686 12.6186 81.7918 13.1183C83.9963 15.7623 86.2207 18.4004 88.4247 21.0381C88.478 21.0945 88.5308 21.1506 88.5968 21.2234C88.67 21.141 88.7424 21.0581 88.8152 20.979C90.9468 18.4136 93.0917 15.8552 95.216 13.2867C96.0966 12.2145 97.1756 11.5031 98.5527 11.271C98.9896 11.1987 99.426 11.1524 99.8634 11.1524C101.366 11.1355 102.862 11.1455 104.358 11.1455C104.444 11.1455 104.523 11.1522 104.649 11.1586Z" fill="black" fill-opacity="0.5"/>
<path d="M22.2417 11.1587H22.5662C27.3319 11.1587 32.1048 11.1542 36.8641 11.1633C38.3536 11.1633 39.8231 11.2893 41.2594 11.6862C42.292 11.9779 43.2718 12.4048 44.1323 13.0697C45.2905 13.9635 46.0319 15.1352 46.3627 16.545C46.8196 18.4323 46.7869 20.3182 46.1907 22.175C45.6682 23.8233 44.6284 25.0681 43.133 25.9355C43.0333 25.9946 42.9277 26.0574 42.828 26.117C42.8217 26.1229 42.8148 26.1329 42.8021 26.157C42.9341 26.2298 43.0733 26.3053 43.2053 26.3781C44.4104 27.023 45.463 27.8541 46.284 28.9604C47.1177 30.0849 47.5942 31.3528 47.7662 32.7335C47.9983 34.5566 47.8791 36.3673 47.3489 38.1313C46.5816 40.7125 44.8937 42.4141 42.3579 43.2874C41.3586 43.6379 40.3264 43.8409 39.2738 43.9096C38.6381 43.9497 38.0028 43.9865 37.367 43.9865C32.4557 43.9911 27.5439 43.991 22.639 43.991H22.2417V11.1624V11.1587ZM31.8996 37.2398C31.9792 37.2461 32.032 37.2562 32.0916 37.2562C33.0245 37.2562 33.9516 37.2661 34.8849 37.2498C35.229 37.2425 35.5735 37.2067 35.9043 37.1307C36.9966 36.9017 37.7315 36.2468 38.0355 35.1541C38.294 34.2375 38.294 33.3111 38.0624 32.3909C37.8435 31.5399 37.3474 30.898 36.5328 30.5303C36.0695 30.3251 35.5867 30.2165 35.0834 30.2097C34.0772 30.1901 33.0646 30.2001 32.0584 30.2001C32.012 30.2001 31.9592 30.2132 31.8996 30.2232V37.2398ZM31.926 17.8052C31.86 18.182 31.8727 23.8683 31.9392 24.0731C32.0056 24.0777 32.0784 24.0869 32.1512 24.0869C32.9718 24.0869 33.7927 24.0932 34.6137 24.08C34.8981 24.0754 35.1894 24.0469 35.4675 23.9904C36.4277 23.7825 37.0894 23.2163 37.367 22.2565C37.6055 21.3891 37.6123 20.5221 37.367 19.662C37.1222 18.8174 36.5724 18.2649 35.7323 17.9932C35.3218 17.858 34.905 17.8145 34.4813 17.8081C33.7135 17.8035 32.9454 17.8034 32.1776 17.8034H31.926V17.8052Z" fill="black" fill-opacity="0.5"/>
<path d="M49.9019 11.1586H70.1241C70.1314 11.2214 70.1442 11.2678 70.1442 11.3106C70.1378 12.7073 70.1442 14.1007 70.1241 15.4942C70.1178 16.1031 69.9858 16.6888 69.7073 17.2354C69.2372 18.1588 68.443 18.6316 67.4569 18.8104C67.1124 18.8701 66.7688 18.8933 66.4179 18.8933C64.2462 18.9001 62.0818 18.8978 59.9242 18.8978H59.5597V23.588H69.1776V23.8957C69.1776 25.124 69.1848 26.3517 69.1776 27.5795C69.1712 28.1357 69.1116 28.685 68.9395 29.2179C68.5823 30.3033 67.8473 30.9655 66.7419 31.2431C66.305 31.3555 65.855 31.3955 65.4049 31.3991H59.5465V39.8782C59.5465 40.4808 59.4541 41.0761 59.2353 41.6395C58.812 42.6948 58.0174 43.3297 56.9516 43.6683C56.3627 43.8567 55.7534 43.9422 55.1313 43.9623C54.2311 43.9923 53.3378 43.9522 52.4704 43.6783C50.9349 43.1809 50.1403 42.0991 49.9551 40.5304C49.9082 40.2091 49.9019 39.8883 49.9019 39.5638V11.1599V11.1586Z" fill="black" fill-opacity="0.5"/>
<path d="M108.103 10.3395C107.726 9.67101 107.666 8.9127 107.759 8.15498C107.898 7.06641 108.527 6.32838 109.533 5.9411C110.506 5.56702 111.493 5.57706 112.452 5.97754C113.299 6.33478 113.928 6.94044 114.147 7.85744C114.339 8.64474 114.245 9.41932 113.908 10.1607C113.882 10.2335 113.842 10.303 113.803 10.3826C113.848 10.4354 113.889 10.4851 113.935 10.5315C114.868 11.6501 115.06 12.9144 114.636 14.2747C114.392 15.0592 113.816 15.5952 113.114 15.9957C112.498 16.3366 111.85 16.4891 111.148 16.5054C110.466 16.5155 109.804 16.4559 109.175 16.171C107.851 15.5589 107.15 14.5394 107.117 13.0667C107.097 12.4078 107.19 11.7694 107.521 11.1937C107.686 10.9088 107.898 10.6476 108.103 10.3395ZM112.075 12.9307C112.068 12.2991 111.638 11.8653 111.016 11.8621C110.38 11.8621 109.943 12.3088 109.956 12.9541C109.956 13.5866 110.4 14.0135 111.022 14.0067C111.645 13.9967 112.075 13.5565 112.075 12.9307ZM111.803 8.80028C111.803 8.25418 111.452 7.89336 110.916 7.897C110.374 7.897 110.016 8.25425 110.016 8.79717C110.016 9.33327 110.387 9.71046 110.916 9.71046C111.439 9.71046 111.803 9.33638 111.803 8.80028Z" fill="black" fill-opacity="0.5"/>
<path d="M128.259 15.1635C128.887 14.399 129.529 13.6413 130.059 12.8303C129.728 12.7011 129.397 12.6118 129.093 12.4661C127.855 11.8604 127.206 10.8511 127.107 9.48717C127.067 8.87144 127.094 8.26614 127.352 7.69682C127.722 6.89587 128.345 6.35975 129.139 6.03846C130.357 5.53878 131.595 5.52917 132.793 6.07846C133.759 6.5117 134.435 7.23358 134.673 8.29257C134.818 8.9083 134.746 9.52356 134.62 10.1329C134.454 10.8674 134.176 11.5591 133.825 12.2213C133.183 13.4159 132.436 14.5378 131.529 15.544C131.323 15.7629 131.092 15.9677 130.847 16.1402C130.297 16.5274 129.583 16.4777 129.133 15.9939C128.907 15.7528 128.642 15.5375 128.398 15.3127C128.351 15.2726 128.312 15.2232 128.259 15.1635ZM131.939 9.25541C131.939 8.62011 131.509 8.19331 130.88 8.19969C130.251 8.20651 129.814 8.64664 129.814 9.26874C129.821 9.89767 130.257 10.3414 130.873 10.3414C131.509 10.3414 131.946 9.90118 131.939 9.25541Z" fill="black" fill-opacity="0.5"/>
<path d="M118.352 12.7968C117.743 12.6681 117.22 12.4363 116.736 12.0887C115.949 11.5093 115.538 10.7285 115.406 9.78189C115.333 9.28539 115.319 8.78573 115.426 8.29241C115.637 7.33263 116.227 6.66403 117.054 6.2003C117.895 5.74066 118.795 5.6183 119.741 5.71432C120.397 5.78395 121.006 5.97236 121.555 6.34007C122.502 6.98857 123.025 7.86875 123.005 9.0406C122.998 9.86112 122.8 10.6356 122.482 11.3769C121.939 12.668 121.178 13.8394 120.311 14.9316C120.046 15.2661 119.761 15.5839 119.457 15.8751C119.285 16.044 119.06 16.1896 118.835 16.2824C118.352 16.4872 117.882 16.438 117.477 16.0571C117.167 15.7691 116.849 15.4877 116.518 15.1801C117.147 14.4023 117.782 13.6542 118.352 12.7968ZM119.166 8.19953C118.537 8.19953 118.094 8.62692 118.087 9.24903C118.074 9.88752 118.524 10.3412 119.146 10.3412C119.761 10.3366 120.212 9.89476 120.218 9.27903C120.218 8.65647 119.781 8.20636 119.166 8.19953Z" fill="black" fill-opacity="0.5"/>
<path d="M110.815 31.0005C110.902 31.0401 110.948 31.0733 110.994 31.0934C112.04 31.5434 111.921 32.8537 111.292 33.377C111.067 33.5595 110.815 33.6718 110.538 33.7141C110.319 33.7542 110.081 33.7712 109.856 33.7739C109.26 33.7875 108.671 33.7783 108.082 33.7783C108.009 33.7783 107.93 33.7847 107.863 33.7688C107.598 33.7251 107.446 33.5763 107.413 33.3119C107.407 33.2195 107.407 33.1258 107.407 33.037C107.407 31.786 107.413 30.5418 107.4 29.2939C107.4 28.7837 107.512 28.5194 108.161 28.5231C108.876 28.5358 109.598 28.5231 110.319 28.579C111.18 28.6387 111.722 29.4656 111.457 30.267C111.391 30.4854 111.265 30.6641 111.087 30.8029C111.007 30.8657 110.928 30.9217 110.815 31.0014M108.499 32.9473C108.969 32.9473 109.412 32.9518 109.856 32.9473C109.935 32.9473 110.014 32.9177 110.094 32.8977C110.478 32.799 110.67 32.5537 110.663 32.1864C110.65 31.8324 110.458 31.5945 110.074 31.518C109.558 31.4188 109.041 31.4616 108.499 31.4616V32.9473ZM108.505 30.6801C108.81 30.6801 109.095 30.6873 109.386 30.6801C109.577 30.6705 109.77 30.6604 109.955 30.6245C110.253 30.5612 110.444 30.3065 110.452 30.0052C110.458 29.6939 110.312 29.4956 109.975 29.4232C109.492 29.3267 109.009 29.3334 108.505 29.3635V30.6801Z" fill="black" fill-opacity="0.5"/>
<path d="M109.286 42.2866C109.002 42.237 108.704 42.2076 108.426 42.128C107.91 41.9823 107.532 41.6445 107.327 41.148C107.268 41.0092 107.241 40.8436 107.241 40.6916C107.228 40.4663 107.36 40.3044 107.572 40.2443C107.784 40.1883 107.983 40.2488 108.101 40.4432C108.174 40.5592 108.227 40.6884 108.287 40.814C108.591 41.4461 109.426 41.6545 110.002 41.254C110.465 40.93 110.438 40.3634 109.928 40.125C109.677 40.0025 109.386 39.9535 109.121 39.8639C108.777 39.7546 108.419 39.6718 108.095 39.523C107.373 39.1721 107.115 38.3647 107.479 37.6666C107.612 37.405 107.823 37.2098 108.089 37.0873C108.856 36.7428 109.624 36.72 110.399 37.054C110.783 37.2228 111.06 37.5174 111.16 37.948C111.2 38.1232 111.18 38.2951 111.067 38.4439C110.875 38.686 110.537 38.6993 110.345 38.4604C110.266 38.3584 110.2 38.2291 110.134 38.1131C109.829 37.607 109.094 37.4482 108.611 37.7791C108.247 38.0239 108.247 38.4345 108.638 38.6397C108.896 38.7717 109.187 38.8348 109.472 38.9277C109.723 39.0005 109.982 39.0701 110.24 39.1457C110.345 39.1789 110.445 39.2253 110.551 39.2686C111.729 39.7546 111.59 41.3037 110.769 41.8566C110.385 42.1115 109.895 42.257 109.286 42.2866Z" fill="black" fill-opacity="0.5"/>
<path d="M112.79 22.0808C112.87 22.0148 112.91 21.9852 112.942 21.9552C113.353 21.5679 113.849 21.4755 114.385 21.6143C114.849 21.7331 115.127 22.0575 115.226 22.5176C115.259 22.6796 115.279 22.8453 115.279 23.0105V24.8708C115.279 24.9605 115.266 25.0529 115.246 25.1457C115.186 25.4238 115.015 25.5496 114.736 25.5364C114.472 25.5263 114.326 25.3876 114.286 25.0995C114.273 24.9903 114.266 24.881 114.266 24.7686V23.2991C114.266 23.1699 114.26 23.0443 114.24 22.9118C114.154 22.4085 113.763 22.2 113.293 22.4216C113.062 22.5277 112.91 22.7066 112.85 22.9578C112.81 23.1171 112.79 23.2853 112.79 23.4478V24.8313C112.79 24.9373 112.79 25.0397 112.764 25.1357C112.698 25.4302 112.519 25.5559 112.221 25.5364C111.956 25.52 111.804 25.3542 111.784 25.0562V20.8135C111.784 20.7307 111.784 20.6477 111.797 20.5617C111.817 20.3037 111.983 20.1349 112.234 20.1149C112.485 20.0885 112.691 20.2277 112.751 20.4757C112.784 20.595 112.79 20.7174 112.79 20.8366V22.0808Z" fill="black" fill-opacity="0.5"/>
<path d="M117.237 41.7404C117.104 41.8264 116.979 41.9125 116.859 41.9853C116.396 42.2502 115.906 42.3329 115.39 42.1973C114.893 42.0617 114.576 41.6549 114.569 41.1711C114.563 40.6683 114.834 40.2778 115.35 40.1285C115.794 39.9993 116.251 39.9201 116.694 39.8145C116.846 39.7777 116.998 39.7381 117.144 39.6921C117.157 39.1951 116.972 39.0003 116.509 38.9735C116.085 38.9539 115.754 39.0996 115.535 39.4837C115.469 39.6029 115.396 39.7079 115.231 39.7248C114.9 39.7448 114.695 39.5359 114.754 39.2119C114.807 38.9143 114.999 38.699 115.251 38.5502C115.503 38.3977 115.774 38.3286 116.065 38.2917C116.482 38.2389 116.893 38.2649 117.296 38.3646C117.78 38.477 118.044 38.7846 118.11 39.2679C118.137 39.4467 118.15 39.6325 118.157 39.8145C118.164 40.053 118.164 40.2974 118.157 40.5358C118.144 40.9163 118.176 41.2871 118.296 41.6575C118.382 41.9192 118.309 42.0781 118.097 42.1973C117.899 42.3065 117.7 42.2733 117.521 42.0849C117.429 41.9888 117.349 41.8697 117.237 41.7404ZM117.177 40.3305C116.753 40.4334 116.363 40.5157 115.979 40.6054C115.92 40.6218 115.866 40.6619 115.807 40.6952C115.522 40.8699 115.489 41.2247 115.754 41.4327C115.846 41.5087 115.979 41.5684 116.105 41.5816C116.628 41.6444 117.058 41.3004 117.144 40.7807C117.163 40.6483 117.163 40.5062 117.177 40.3305Z" fill="black" fill-opacity="0.5"/>
<path d="M117.05 23.8104C117.076 24.2277 117.196 24.5484 117.547 24.7473C117.891 24.942 118.241 24.8993 118.566 24.6908C118.718 24.5912 118.85 24.4592 118.996 24.34C119.049 24.3004 119.102 24.234 119.175 24.2144C119.313 24.1612 119.466 24.1543 119.585 24.264C119.711 24.3695 119.698 24.5121 119.658 24.6477C119.585 24.8798 119.432 25.0483 119.234 25.1844C119.009 25.3464 118.758 25.4519 118.48 25.4983C118.036 25.5743 117.593 25.561 117.169 25.409C116.693 25.2333 116.355 24.9026 116.169 24.4293C115.938 23.8072 115.944 23.1813 116.216 22.566C116.448 22.0199 116.884 21.7023 117.473 21.5994C118.129 21.477 118.744 21.5599 119.247 22.0432C119.612 22.384 119.771 22.8173 119.737 23.3207C119.711 23.5823 119.612 23.6979 119.347 23.7575C119.181 23.7908 119.003 23.8039 118.83 23.8071C118.341 23.8139 117.851 23.8118 117.361 23.8118H117.05V23.8104ZM117.07 23.2147H118.612C118.658 23.2147 118.698 23.2014 118.744 23.1913C118.718 22.6088 118.393 22.2516 117.897 22.2616C117.427 22.2662 117.09 22.6354 117.07 23.2147Z" fill="black" fill-opacity="0.5"/>
<path d="M128.159 32.1381C128.165 32.5486 128.285 32.8791 128.629 33.0816C128.966 33.2769 129.317 33.2567 129.648 33.0514C129.806 32.9522 129.939 32.8267 130.078 32.7074C130.131 32.6678 130.177 32.6147 130.23 32.5814C130.369 32.4927 130.508 32.4985 130.647 32.575C130.8 32.6546 130.8 32.7997 130.773 32.9385C130.734 33.1606 130.601 33.3264 130.436 33.4656C130.018 33.8028 129.529 33.8989 129.006 33.8894C128.827 33.8821 128.642 33.8493 128.463 33.8065C127.794 33.6404 127.377 33.2071 127.199 32.5454C127.066 32.0326 127.08 31.5191 127.271 31.0226C127.543 30.3341 128.066 29.9701 128.794 29.9205C129.072 29.9004 129.37 29.916 129.641 29.9834C130.33 30.149 130.786 30.7384 130.839 31.4433C130.879 31.9361 130.707 32.1282 130.217 32.135C129.635 32.1419 129.059 32.1395 128.476 32.1395H128.159V32.1381ZM129.853 31.5657C129.846 30.9236 129.469 30.6055 129 30.6095C128.503 30.6095 128.172 31.0528 128.179 31.5657H129.853Z" fill="black" fill-opacity="0.5"/>
<path d="M125.196 42.2411C124.065 42.2411 123.283 41.4997 123.263 40.3679C123.257 40.0862 123.283 39.7914 123.363 39.5197C123.588 38.7456 124.249 38.2822 125.097 38.2622C125.328 38.2576 125.56 38.2823 125.785 38.3351C126.447 38.5039 126.877 38.928 127.069 39.5866C127.202 40.0721 127.189 40.5521 127.03 41.0327C126.765 41.7968 126.09 42.2411 125.196 42.2411ZM124.23 40.2385C124.283 40.4765 124.303 40.7115 124.388 40.9232C124.521 41.2645 124.772 41.4656 125.163 41.476C125.567 41.4897 125.845 41.3071 125.997 40.9598C126.209 40.4797 126.209 39.9902 125.99 39.5132C125.831 39.176 125.547 39.004 125.169 39.0177C124.799 39.03 124.534 39.2125 124.402 39.5497C124.316 39.7686 124.283 40.0069 124.23 40.2385Z" fill="black" fill-opacity="0.5"/>
<path d="M109.682 21.0798V24.7532C109.682 24.8893 109.669 25.0348 109.63 25.1636C109.556 25.4053 109.391 25.5178 109.133 25.5178C108.881 25.5178 108.703 25.3989 108.63 25.1636C108.597 25.0417 108.59 24.9056 108.59 24.7832C108.583 23.6646 108.59 22.546 108.59 21.4274V21.1029C108.504 21.0984 108.431 21.0798 108.365 21.0798C108.034 21.0798 107.696 21.0867 107.372 21.0798C107.061 21.0698 106.889 20.8944 106.909 20.6127C106.916 20.3911 107.048 20.2387 107.28 20.2028C107.372 20.1896 107.465 20.1897 107.557 20.1897H110.715C110.807 20.1897 110.901 20.1896 110.986 20.2028C111.244 20.2487 111.384 20.4243 111.364 20.6692C111.35 20.9045 111.198 21.0628 110.953 21.0765C110.649 21.0897 110.344 21.0812 110.04 21.0812H109.682V21.0798Z" fill="black" fill-opacity="0.5"/>
<path d="M115.08 33.3214C114.96 33.4243 114.881 33.5074 114.795 33.5729C114.371 33.9111 113.888 33.9635 113.378 33.8247C112.875 33.6823 112.604 33.3087 112.571 32.7521C112.557 32.3853 112.564 32.0143 112.564 31.647C112.564 31.2366 112.557 30.8297 112.564 30.4224C112.578 30.0716 112.783 29.8959 113.12 29.9296C113.319 29.9423 113.458 30.0387 113.511 30.2267C113.55 30.36 113.557 30.4984 113.564 30.634C113.571 31.1437 113.564 31.6535 113.571 32.1637C113.571 32.3089 113.584 32.4608 113.616 32.6006C113.716 33.0306 114.041 33.2163 114.457 33.0639C114.782 32.9378 115 32.703 115.014 32.3421C115.034 31.872 115.034 31.3985 115.04 30.9289C115.046 30.7464 115.04 30.558 115.06 30.376C115.093 30.0816 115.252 29.9359 115.523 29.9296C115.815 29.9159 115.973 30.0351 116.033 30.33C116.046 30.4124 116.053 30.4983 116.053 30.578V33.269C116.053 33.3609 116.046 33.4542 116.02 33.5429C115.973 33.765 115.801 33.9011 115.596 33.9112C115.391 33.9157 115.199 33.7714 115.133 33.5698C115.113 33.4975 115.106 33.4279 115.08 33.3214Z" fill="black" fill-opacity="0.5"/>
<path d="M123.849 30.4544C124.101 30.1932 124.358 29.9943 124.683 29.932C124.968 29.8751 125.253 29.8682 125.53 29.9615C125.987 30.1104 126.252 30.425 126.331 30.8946C126.365 31.0898 126.371 31.2819 126.371 31.4739C126.378 32.0428 126.378 32.6225 126.371 33.1918C126.371 33.301 126.357 33.4135 126.331 33.5196C126.271 33.7444 126.086 33.8836 125.861 33.8804C125.636 33.8804 125.445 33.7143 125.391 33.4858C125.372 33.3966 125.372 33.3011 125.372 33.2083C125.372 32.7118 125.378 32.2088 125.372 31.7154C125.372 31.5302 125.352 31.345 125.319 31.1661C125.245 30.7784 124.934 30.5942 124.557 30.6893C124.24 30.7757 124.014 30.9842 123.941 31.305C123.895 31.4902 123.889 31.6859 123.882 31.8843C123.875 32.3244 123.882 32.7682 123.882 33.2083C123.882 33.3138 123.875 33.4135 123.849 33.5127C123.789 33.7443 123.584 33.8904 123.359 33.8836C123.134 33.8667 122.942 33.7078 122.896 33.4698C122.883 33.3965 122.883 33.3211 122.883 33.2478C122.876 32.3281 122.876 31.401 122.883 30.4813C122.883 30.4249 122.883 30.3684 122.889 30.3124C122.915 30.0739 123.048 29.9279 123.26 29.902C123.518 29.8683 123.697 29.9716 123.783 30.2064C123.809 30.2756 123.823 30.3484 123.849 30.4544Z" fill="black" fill-opacity="0.5"/>
<path d="M128.809 38.8281C128.895 38.7425 128.955 38.6887 129.015 38.6354C129.465 38.2491 129.981 38.1558 130.544 38.3414C131.007 38.4939 131.279 38.8376 131.319 39.3241C131.351 39.7082 131.338 40.0954 131.338 40.4831C131.338 40.9032 131.351 41.3201 131.338 41.7306C131.325 42.0715 131.119 42.2534 130.809 42.237C130.59 42.2206 130.425 42.085 130.378 41.8697C130.358 41.76 130.358 41.6477 130.358 41.5357C130.345 40.9459 130.338 40.357 130.332 39.7649C130.332 39.708 130.326 39.6553 130.318 39.6025C130.226 39.1055 129.822 38.8971 129.366 39.1192C129.055 39.2716 128.909 39.5429 128.883 39.8769C128.869 40.1026 128.869 40.337 128.869 40.5687V41.5357C128.863 41.6445 128.856 41.7574 128.829 41.8661C128.776 42.1046 128.598 42.237 128.346 42.237C128.101 42.2302 127.929 42.0883 127.876 41.843C127.863 41.7575 127.863 41.661 127.856 41.5682V38.8845C127.856 38.8117 127.856 38.7347 127.876 38.6592C127.909 38.4176 128.062 38.2687 128.287 38.255C128.525 38.235 128.704 38.3715 128.776 38.6159C128.789 38.6691 128.789 38.7225 128.809 38.8281Z" fill="black" fill-opacity="0.5"/>
<path d="M133.033 29.9082C133.357 29.8914 133.668 29.9341 133.953 30.0697C134.118 30.1462 134.264 30.265 134.409 30.3742C134.469 30.4179 134.509 30.4869 134.535 30.5497C134.648 30.7518 134.615 30.9934 134.469 31.109C134.31 31.2419 134.026 31.2353 133.86 31.0828C133.767 31.0036 133.695 30.9076 133.615 30.8184C133.37 30.5499 132.933 30.4706 132.629 30.6326C132.51 30.6954 132.417 30.7788 132.417 30.9308C132.417 31.066 132.497 31.1655 132.616 31.2119C132.874 31.3016 133.139 31.374 133.404 31.4632C133.668 31.5529 133.953 31.6326 134.204 31.745C134.562 31.9102 134.807 32.1881 134.8 32.6054C134.793 33.0518 134.621 33.4064 134.218 33.638C133.834 33.8464 133.41 33.8898 132.98 33.8798C132.616 33.8698 132.265 33.8037 131.947 33.6085C131.702 33.4592 131.517 33.2641 131.444 32.9692C131.391 32.728 131.484 32.5327 131.689 32.4467C131.868 32.3771 132.04 32.4098 132.166 32.5623C132.212 32.6219 132.245 32.6815 132.285 32.7443C132.543 33.1748 132.96 33.274 133.41 33.1807C133.483 33.168 133.556 33.1311 133.615 33.0951C133.886 32.9231 133.886 32.6087 133.609 32.4467C133.489 32.3739 133.338 32.3275 133.205 32.2879C132.907 32.1882 132.602 32.1121 132.304 32.0092C132.172 31.9696 132.046 31.907 131.934 31.831C131.279 31.4241 131.391 30.6126 131.868 30.2353C132.212 29.9677 132.616 29.8814 133.033 29.9082Z" fill="black" fill-opacity="0.5"/>
<path d="M136.97 29.9085C137.347 29.8889 137.718 29.9454 138.042 30.1338C138.194 30.2266 138.34 30.3521 138.452 30.4909C138.605 30.6966 138.578 30.9711 138.426 31.1031C138.261 31.2492 137.949 31.229 137.77 31.0502C137.685 30.9678 137.612 30.8683 137.532 30.7791C137.308 30.5443 136.87 30.4746 136.586 30.6298C136.467 30.6867 136.367 30.7689 136.361 30.9182C136.354 31.0634 136.447 31.1626 136.573 31.2126C136.824 31.3018 137.082 31.3715 137.334 31.4571C137.605 31.5467 137.883 31.6233 138.141 31.7357C138.499 31.8977 138.743 32.169 138.743 32.5895C138.75 33.0232 138.585 33.3839 138.194 33.6083C137.797 33.8504 137.36 33.8935 136.917 33.8772C136.533 33.864 136.162 33.7909 135.838 33.5661C135.626 33.4204 135.467 33.2378 135.401 32.9834C135.335 32.7322 135.421 32.5366 135.619 32.4506C135.838 32.3577 136.017 32.4169 136.162 32.639C136.195 32.6786 136.228 32.7281 136.255 32.775C136.533 33.2351 137.056 33.2712 137.42 33.1583C137.592 33.1087 137.744 33.0068 137.757 32.7979C137.764 32.5931 137.651 32.4638 137.472 32.3941C137.314 32.3313 137.142 32.2849 136.97 32.2321C136.738 32.1557 136.499 32.093 136.261 32.0106C136.136 31.9674 136.003 31.9045 135.884 31.8348C135.228 31.4412 135.321 30.6298 135.805 30.2398C136.063 30.0277 136.367 29.9317 136.698 29.9085C136.784 29.9017 136.883 29.9085 136.97 29.9085Z" fill="black" fill-opacity="0.5"/>
<path d="M118.47 33.913C118.013 33.8861 117.596 33.8369 117.238 33.5921C116.98 33.4205 116.801 33.1991 116.781 32.8737C116.768 32.7085 116.835 32.5855 116.974 32.5004C117.152 32.3871 117.384 32.4271 117.523 32.5955C117.57 32.6624 117.609 32.7321 117.656 32.8012C117.933 33.2709 118.483 33.2972 118.827 33.1848C118.999 33.1288 119.152 33.0301 119.158 32.8235C119.172 32.625 119.052 32.4968 118.873 32.4208C118.827 32.4035 118.774 32.3806 118.721 32.3606C118.595 32.3215 118.477 32.2879 118.351 32.2519C118.119 32.1819 117.887 32.119 117.662 32.0366C117.536 31.9938 117.41 31.9334 117.291 31.8611C116.596 31.4342 116.768 30.6237 117.186 30.286C117.397 30.1072 117.642 29.9974 117.907 29.9583C118.377 29.8923 118.841 29.8982 119.297 30.0834C119.522 30.1735 119.721 30.306 119.853 30.5171C119.999 30.7488 119.986 30.9909 119.826 31.1229C119.661 31.2753 119.364 31.2553 119.178 31.0742C119.112 31.0173 119.052 30.9603 119.006 30.8911C118.787 30.5903 118.483 30.5434 118.139 30.5967C118.066 30.6067 117.987 30.6537 117.92 30.696C117.708 30.8321 117.695 31.0537 117.907 31.1893C118.026 31.2726 118.165 31.3254 118.311 31.3682C118.536 31.4342 118.774 31.4806 119.006 31.5498C119.198 31.613 119.396 31.6922 119.588 31.7851C120.429 32.1892 120.211 33.264 119.661 33.589C119.476 33.7014 119.27 33.7843 119.059 33.8407C118.853 33.8903 118.642 33.8939 118.47 33.913Z" fill="black" fill-opacity="0.5"/>
<path d="M126.571 14.7994C126.578 15.0811 126.531 15.3492 126.399 15.6036C126.154 16.0705 125.783 16.3449 125.254 16.4018C124.261 16.501 123.539 15.8858 123.506 14.8888C123.5 14.6608 123.533 14.4226 123.599 14.2101C123.824 13.4961 124.466 13.0984 125.234 13.1817C125.955 13.2636 126.478 13.7901 126.551 14.5214C126.564 14.6143 126.564 14.7102 126.571 14.7994Z" fill="black" fill-opacity="0.5"/>
<path d="M112.358 39.1009C111.962 39.0686 111.802 38.9522 111.802 38.7274C111.802 38.4958 111.955 38.383 112.345 38.3534C112.352 38.2606 112.352 38.1613 112.358 38.0621C112.365 37.8341 112.352 37.6025 112.385 37.3773C112.424 37.086 112.61 36.9498 112.888 36.9635C113.146 36.9699 113.325 37.1354 113.345 37.4135C113.365 37.6055 113.365 37.804 113.365 37.9988C113.371 38.1016 113.365 38.2178 113.365 38.3634C113.497 38.3634 113.603 38.3588 113.709 38.3679C113.801 38.3774 113.894 38.3837 113.973 38.4274C114.106 38.4866 114.145 38.609 114.139 38.751C114.132 38.8934 114.066 39 113.921 39.0323C113.749 39.0696 113.576 39.0855 113.404 39.1092C113.391 39.1219 113.378 39.1351 113.378 39.1487C113.378 39.7872 113.365 40.4299 113.371 41.0584C113.378 41.4257 113.51 41.5117 113.867 41.4457C113.953 41.4293 114.033 41.4256 114.113 41.4124C114.264 41.4028 114.371 41.4785 114.424 41.6077C114.477 41.7306 114.483 41.8656 114.384 41.9717C114.304 42.0509 114.198 42.1342 114.093 42.167C113.735 42.2767 113.365 42.2861 112.994 42.2001C112.663 42.1209 112.471 41.9057 112.412 41.5748C112.385 41.3928 112.365 41.2072 112.358 41.022C112.352 40.4795 112.358 39.9298 112.358 39.3905V39.1018V39.1009Z" fill="black" fill-opacity="0.5"/>
<path d="M120.077 38.3274C120.269 38.3274 120.415 38.3173 120.547 38.3319C120.825 38.3587 120.984 38.6865 120.811 38.885C120.725 38.9682 120.586 39.0037 120.467 39.0374C120.361 39.0633 120.249 39.0436 120.13 39.0436C120.116 39.1264 120.103 39.1862 120.103 39.2454V40.9664C120.103 41.0301 120.103 41.0962 120.11 41.1626C120.143 41.3574 120.255 41.4434 120.461 41.4297C120.58 41.4238 120.692 41.387 120.811 41.381C120.984 41.371 121.123 41.4498 121.156 41.5959C121.208 41.7416 121.189 41.8902 121.063 41.9926C120.984 42.0526 120.904 42.1088 120.818 42.1288C120.461 42.2348 120.097 42.2475 119.726 42.1615C119.408 42.0855 119.21 41.8871 119.144 41.5622C119.117 41.3869 119.097 41.1985 119.097 41.0133C119.091 40.4704 119.097 39.9239 119.097 39.3787V39.0732C118.912 39.0308 118.706 39.0669 118.601 38.8985C118.561 38.8252 118.535 38.7397 118.535 38.6627C118.541 38.4484 118.673 38.3588 119.097 38.2997V37.7035C119.097 37.6006 119.097 37.4951 119.104 37.399C119.137 37.0905 119.302 36.9257 119.574 36.9257C119.859 36.9189 120.05 37.0749 120.07 37.3757C120.097 37.677 120.077 37.9783 120.077 38.3292" fill="black" fill-opacity="0.5"/>
<path d="M122.502 40.2844C122.502 40.7376 122.508 41.1877 122.502 41.6414C122.502 41.7474 122.489 41.8635 122.456 41.9627C122.383 42.1607 122.211 42.254 121.992 42.254C121.787 42.2472 121.641 42.1548 121.569 41.9592C121.529 41.8599 121.509 41.7443 121.509 41.6383C121.502 40.7149 121.502 39.7916 121.509 38.8682C121.509 38.7954 121.516 38.7257 121.536 38.6524C121.602 38.398 121.794 38.252 122.039 38.272C122.29 38.292 122.482 38.4741 122.502 38.7358C122.516 38.8782 122.502 39.0271 122.502 39.1795V40.2844Z" fill="black" fill-opacity="0.5"/>
<path d="M120.937 31.8651V30.5609C120.937 30.4886 120.937 30.4124 120.944 30.3392C120.97 30.0843 121.129 29.9187 121.361 29.9027C121.646 29.8732 121.83 29.9953 121.909 30.2565C121.93 30.3462 121.943 30.4384 121.943 30.528V33.2121C121.943 33.3145 121.923 33.4142 121.896 33.5134C121.83 33.7446 121.625 33.8939 121.407 33.8812C121.168 33.8612 120.976 33.6922 120.95 33.4406C120.93 33.3018 120.937 33.1626 120.937 33.0206V31.8651Z" fill="black" fill-opacity="0.5"/>
<path d="M122.502 37.3262C122.509 37.6307 122.31 37.8356 122.006 37.8329C121.721 37.826 121.509 37.6243 121.502 37.3531C121.502 37.0614 121.721 36.8466 122.019 36.8498C122.317 36.8498 122.502 37.0286 122.502 37.3262Z" fill="black" fill-opacity="0.5"/>
<path d="M121.419 29.4988C121.108 29.4915 120.935 29.3199 120.935 29.0186C120.942 28.7205 121.134 28.5258 121.445 28.5317C121.743 28.539 121.942 28.7305 121.942 29.0186C121.942 29.2471 121.776 29.5247 121.419 29.4988Z" fill="black" fill-opacity="0.5"/>
</g>
</svg>
