<svg width="80" height="81" viewBox="0 0 80 81" fill="none" xmlns="http://www.w3.org/2000/svg">
<path fill-rule="evenodd" clip-rule="evenodd" d="M33.5801 65.67C33.5922 65.237 33.9467 64.8924 34.3798 64.8924H47.6243C48.0575 64.8924 48.412 65.2371 48.424 65.6702C48.436 66.1017 48.1035 66.4646 47.6731 66.4909C47.6727 66.4909 47.672 66.491 47.671 66.491C47.6669 66.4914 47.658 66.4921 47.6448 66.4935C47.6185 66.4962 47.5754 66.5014 47.5195 66.5106C47.4066 66.529 47.2463 66.5627 47.0661 66.6222C46.6972 66.7443 46.3015 66.9557 46.0257 67.3103C45.5408 67.9337 45.0802 69.523 47.4426 73.3422L47.4426 73.3423C47.5015 73.4375 47.556 73.5329 47.6061 73.6284H52.2749C53.8059 73.6284 55.0503 74.867 55.0503 76.4039C55.0503 77.9408 53.8059 79.1794 52.2749 79.1794H29.7329C28.1981 79.1794 26.9536 77.9369 26.9536 76.4039C26.9536 74.866 28.1991 73.6284 29.7329 73.6284H34.5029C36.8515 69.6787 36.4265 68.0015 35.9359 67.3329C35.6649 66.9635 35.2772 66.7476 34.9194 66.6238C34.7439 66.5632 34.5876 66.529 34.4778 66.5104C34.4234 66.5012 34.3817 66.496 34.3564 66.4933C34.3438 66.492 34.3354 66.4912 34.3316 66.4909L34.3329 66.491L34.3339 66.491C34.3326 66.491 34.3313 66.4909 34.3301 66.4908C33.9 66.4641 33.568 66.1012 33.5801 65.67ZM34.3301 66.4908C34.3304 66.4908 34.3309 66.4909 34.3316 66.4909L34.3314 66.4909L34.3298 66.4908C34.3299 66.4908 34.33 66.4908 34.3301 66.4908ZM37.3007 66.4924C38.328 68.0092 38.2384 70.4963 35.8474 74.4976L35.8471 74.4981C35.7927 74.5891 35.7486 74.6742 35.7134 74.7535C35.5849 75.0423 35.2985 75.2284 34.9824 75.2284H29.7329C29.0787 75.2284 28.5536 75.7537 28.5536 76.4039C28.5536 77.0512 29.0797 77.5794 29.7329 77.5794H52.2749C52.9243 77.5794 53.4503 77.0551 53.4503 76.4039C53.4503 75.7527 52.9243 75.2284 52.2749 75.2284H47.0827C46.7395 75.2284 46.4346 75.0095 46.3248 74.6843C46.2753 74.5379 46.1976 74.3712 46.0818 74.1839M37.3007 66.4924H44.6426H37.3007ZM34.3296 66.4908C34.3293 66.4908 34.3294 66.4908 34.3297 66.4908L34.3296 66.4908Z" fill="#FF9D71"/>
<path fill-rule="evenodd" clip-rule="evenodd" d="M28.3474 20.5169H12.3944C10.4076 20.5169 8.78564 22.1259 8.78564 24.1218V62.8695C8.78564 64.8645 10.4028 66.4744 12.3944 66.4744H69.6095C71.6028 66.4744 73.2144 64.8628 73.2144 62.8695V24.1218C73.2144 22.1285 71.6028 20.5169 69.6095 20.5169H53.6493C53.8378 21.1194 53.9918 21.7308 54.1085 22.3454H69.6095C70.5929 22.3454 71.3858 23.1384 71.3858 24.1218V62.8695C71.3858 63.8529 70.5929 64.6459 69.6095 64.6459H12.3944C11.4093 64.6459 10.6142 63.8512 10.6142 62.8695V24.1218C10.6142 23.141 11.4123 22.3454 12.3944 22.3454H27.8877C28.0046 21.7308 28.1587 21.1194 28.3474 20.5169Z" fill="#FF9D71"/>
<path fill-rule="evenodd" clip-rule="evenodd" d="M27.7187 26.6791H18.8276C17.2323 26.6791 15.8296 27.8987 15.8296 29.534V57.4573C15.8296 59.0938 17.2297 60.3084 18.8276 60.3084H63.1769C64.7625 60.3084 66.1788 59.0981 66.1788 57.4573V29.534C66.1788 27.8955 64.765 26.6791 63.1769 26.6791H54.2765C54.1993 27.3014 54.0749 27.913 53.9003 28.5076H63.1769C63.8852 28.5076 64.3502 29.0308 64.3502 29.534V57.4573C64.3502 57.9582 63.8877 58.4798 63.1769 58.4798H18.8276C18.1137 58.4798 17.6582 57.9624 17.6582 57.4573V29.534C17.6582 29.0277 18.1188 28.5076 18.8276 28.5076H28.0947C27.9202 27.913 27.7958 27.3014 27.7187 26.6791Z" fill="#FF9D71"/>
<path fill-rule="evenodd" clip-rule="evenodd" d="M41.0017 3.37946C41.5066 3.37946 41.916 3.78879 41.916 4.29374V7.22407C41.916 7.72902 41.5066 8.13835 41.0017 8.13835C40.4967 8.13835 40.0874 7.72902 40.0874 7.22407V4.29374C40.0874 3.78879 40.4967 3.37946 41.0017 3.37946Z" fill="#FF9D71"/>
<path fill-rule="evenodd" clip-rule="evenodd" d="M51.1493 6.36216C51.5741 6.63515 51.6972 7.20081 51.4242 7.6256L49.7348 10.2544C49.4618 10.6792 48.8962 10.8022 48.4714 10.5293C48.0466 10.2563 47.9235 9.69061 48.1965 9.26582L49.8859 6.63702C50.1589 6.21223 50.7246 6.08918 51.1493 6.36216Z" fill="#FF9D71"/>
<path fill-rule="evenodd" clip-rule="evenodd" d="M30.9395 6.30918C31.3658 6.03852 31.9307 6.16468 32.2014 6.59096L33.9024 9.27002C34.173 9.6963 34.0469 10.2613 33.6206 10.5319C33.1943 10.8026 32.6293 10.6764 32.3587 10.2501L30.6577 7.57108C30.387 7.1448 30.5132 6.57983 30.9395 6.30918Z" fill="#FF9D71"/>
<path fill-rule="evenodd" clip-rule="evenodd" d="M58.0566 14.3469C58.2819 14.7988 58.0982 15.3478 57.6463 15.5731L55.0407 16.872C54.5887 17.0973 54.0398 16.9136 53.8145 16.4617C53.5892 16.0098 53.7729 15.4608 54.2248 15.2355L56.8304 13.9366C57.2823 13.7113 57.8313 13.895 58.0566 14.3469Z" fill="#FF9D71"/>
<path fill-rule="evenodd" clip-rule="evenodd" d="M23.9331 14.3768C24.1419 13.917 24.6838 13.7135 25.1436 13.9223L28.0043 15.2212C28.4641 15.43 28.6676 15.9719 28.4588 16.4317C28.2501 16.8915 27.7081 17.095 27.2483 16.8862L24.3876 15.5873C23.9278 15.3785 23.7243 14.8366 23.9331 14.3768Z" fill="#FF9D71"/>
<path fill-rule="evenodd" clip-rule="evenodd" d="M53.5773 29.4452C55.9316 23.5381 52.8118 15.4932 47.531 12.0796C46.0388 11.117 44.4654 10.599 42.8301 10.3748C42.227 10.2975 41.6162 10.2627 41.0015 10.2549C40.383 10.2627 39.7683 10.2975 39.1691 10.3748C37.53 10.599 35.9488 11.1209 34.4682 12.0796C29.1874 15.4932 26.0638 23.5381 28.4181 29.4452C29.0542 31.0441 30.1072 32.2612 31.172 33.492C31.7703 34.1836 32.3724 34.8795 32.9064 35.6499C34.3507 37.7353 34.6574 37.9071 34.677 40.3548C34.6784 40.5342 34.6783 40.715 34.677 40.8972H47.3223C47.3204 40.6865 47.3203 40.4777 47.3223 40.2708C47.3456 37.8535 47.6649 37.7081 49.0928 35.6499C49.6263 34.8803 50.2271 34.1851 50.8241 33.4943C51.8885 32.2627 52.9407 31.0451 53.5773 29.4452ZM47.6635 34.6583C48.254 33.8064 48.9507 33.0003 49.566 32.2884C49.7851 32.0348 49.994 31.7932 50.184 31.5656C50.9572 30.64 51.5667 29.7928 51.9608 28.8021L51.9612 28.8011C52.9434 26.3368 52.8208 23.3007 51.7809 20.4176C50.7416 17.5365 48.8554 15.0074 46.5872 13.541C45.3383 12.7355 44.0159 12.2942 42.6013 12.0993C42.0881 12.0339 41.5555 12.0023 41.0015 11.9947C40.4424 12.0023 39.9066 12.034 39.3983 12.0993C37.9791 12.2942 36.6498 12.7395 35.4138 13.5399L35.4126 13.5406C33.1439 15.0071 31.2566 17.5366 30.2163 20.4181C29.1754 23.3012 29.0521 26.3371 30.0341 28.8011L30.0345 28.8021C30.4284 29.7922 31.0383 30.639 31.8126 31.5649C32.0024 31.7918 32.2108 32.0327 32.4296 32.2855C33.0462 32.9983 33.7446 33.8054 34.3362 34.6589C35.808 36.784 36.2651 36.9637 36.3824 39.1576H45.6152C45.7315 36.9598 46.191 36.7808 47.6635 34.6583Z" fill="#FF9D71"/>
<path fill-rule="evenodd" clip-rule="evenodd" d="M34.0662 41.0841C33.4412 41.0841 32.9316 41.5921 32.9316 42.2187C32.9316 42.8354 33.439 43.3456 34.0662 43.3456H47.937C48.567 43.3456 49.0716 42.8365 49.0716 42.2187C49.0716 41.591 48.5648 41.0841 47.937 41.0841H34.0662ZM31.103 42.2187C31.103 40.58 32.4336 39.2555 34.0662 39.2555H47.937C49.5746 39.2555 50.9002 40.5811 50.9002 42.2187C50.9002 43.8509 49.5724 45.1742 47.937 45.1742H34.0662C32.4358 45.1742 31.103 43.852 31.103 42.2187Z" fill="#FF9D71"/>
<path fill-rule="evenodd" clip-rule="evenodd" d="M34.0662 45.1742C33.4446 45.1742 32.9316 45.6866 32.9316 46.3127C32.9316 46.9294 33.439 47.4396 34.0662 47.4396H47.937C48.567 47.4396 49.0716 46.9305 49.0716 46.3127C49.0716 45.6854 48.5614 45.1742 47.937 45.1742H34.0662ZM31.103 46.3127C31.103 44.6812 32.4302 43.3456 34.0662 43.3456H47.937C49.578 43.3456 50.9002 44.6823 50.9002 46.3127C50.9002 47.9449 49.5724 49.2682 47.937 49.2682H34.0662C32.4358 49.2682 31.103 47.946 31.103 46.3127Z" fill="#FF9D71"/>
<g style="mix-blend-mode:multiply" opacity="0.8">
<path d="M2.99992 78.4432L6.87992 56.4432H2.91992L4.03992 50.0832H15.1199L10.1199 78.4432H2.99992Z" fill="url(#paint0_linear_144_2232)"/>
</g>
<defs>
<linearGradient id="paint0_linear_144_2232" x1="2.91992" y1="64.2632" x2="15.1199" y2="64.2632" gradientUnits="userSpaceOnUse">
<stop stop-color="#961E27"/>
<stop offset="0.5" stop-color="#FA3B3B"/>
<stop offset="1" stop-color="#FF9D71"/>
</linearGradient>
</defs>
</svg>
