<svg width="81" height="81" viewBox="0 0 81 81" fill="none" xmlns="http://www.w3.org/2000/svg">
<path d="M65.7964 75.3564H46.7294C46.4601 75.3564 46.2115 75.214 46.0769 74.9836L36.5433 58.7854C36.4035 58.5472 36.4035 58.2546 36.5433 58.0164L46.0769 41.8182C46.2141 41.5877 46.4627 41.4453 46.7294 41.4453H65.7964C66.0657 41.4453 66.3143 41.5877 66.4489 41.8182L75.9825 58.0164C76.1223 58.2546 76.1223 58.5472 75.9825 58.7854L66.4489 74.9836C66.3117 75.214 66.0631 75.3564 65.7964 75.3564ZM47.1644 73.8391H65.364L74.4496 58.3996L65.364 42.9574H47.1644L38.0788 58.3996L47.1644 73.8391Z" fill="#FF9D71" stroke="#FF9D71" stroke-width="0.5"/>
<path d="M29.6514 58.5498C29.3096 58.5498 28.9989 58.3168 28.9135 57.9673C28.841 57.6669 28.7736 57.3847 46.9164 12.6221C27.8985 17.596 16.6431 31.697 16.5292 31.842C16.2703 32.1708 15.7938 32.2278 15.465 31.9714C15.1362 31.7125 15.0792 31.2361 15.3355 30.9072C15.4547 30.7545 27.58 15.5376 47.9961 10.7967C48.2705 10.7346 48.5579 10.8278 48.7418 11.0401C48.9256 11.255 48.9748 11.5528 48.8712 11.8143C44.2236 23.4503 30.7648 56.6131 30.4023 57.8948C30.3608 58.1951 30.1408 58.454 29.8275 58.5291C29.7679 58.5421 29.7084 58.5498 29.6514 58.5498Z" fill="#FF9D71" stroke="#FF9D71" stroke-width="0.5"/>
<path d="M20.0287 75.3565C15.0004 75.3565 12.1108 71.5297 11.8415 67.6044C11.6939 65.476 12.4966 63.314 13.988 61.8226C15.0366 60.774 16.2665 60.2173 17.3644 60.2924C18.5347 60.3727 19.4306 61.0666 19.7646 62.1463C20.0727 63.1457 19.8397 64.228 19.2105 64.7226L19.0422 64.852C18.4156 65.3336 17.8252 65.7867 17.8537 67.0322C17.8693 67.6588 18.2576 68.3035 18.8687 68.7126C19.4357 69.0932 20.0727 69.189 20.619 68.9819C21.8774 68.4977 23.0736 65.5926 23.9462 63.472L24.2828 62.659C25.3547 60.0982 25.8959 59.1946 26.8021 58.4618C27.4572 57.9284 28.5472 57.7783 29.513 58.0864C30.4477 58.3841 31.1261 59.0625 31.3721 59.9454C31.8252 61.5637 31.1624 62.9205 29.8418 65.621C29.6554 66.0042 29.4535 66.4159 29.2386 66.8613C29.0858 67.1772 28.9356 67.4982 28.7829 67.8271C27.2759 71.0584 25.3987 75.0821 20.5776 75.3436C20.3912 75.3539 20.2073 75.3591 20.0261 75.3591L20.0287 75.3565ZM17.165 61.8019C16.5384 61.8019 15.7409 62.2136 15.0574 62.8946C13.8715 64.0804 13.2345 65.8023 13.3511 67.5008C13.5815 70.8254 16.1086 74.0619 20.4973 73.8263C24.4096 73.614 25.9347 70.3438 27.4106 67.1823C27.5659 66.8509 27.7187 66.5221 27.874 66.201C28.0889 65.7531 28.2935 65.3362 28.4799 64.953C29.6684 62.5243 30.2095 61.4135 29.9118 60.3494C29.7719 59.8522 29.368 59.6296 29.0521 59.5286C28.5291 59.3629 27.9828 59.4535 27.7575 59.6373C27.1516 60.1293 26.7296 60.7378 25.681 63.2441L25.3495 64.0468C24.2647 66.6852 23.0322 69.6758 21.1628 70.393C20.1504 70.7814 19.0059 70.626 18.0246 69.9683C17.0096 69.29 16.3649 68.1766 16.339 67.0632C16.2924 65.0488 17.3903 64.2047 18.1178 63.6455L18.2732 63.5263C18.3534 63.4357 18.4674 62.9567 18.2784 62.4829C18.1075 62.0583 17.776 61.8356 17.2608 61.8019C17.2297 61.8019 17.1986 61.7993 17.1676 61.7993L17.165 61.8019Z" fill="#FF9D71" stroke="#FF9D71" stroke-width="0.5"/>
<path d="M65.5754 55.0255C65.5754 52.8065 64.1696 51.7402 61.9794 51.7402C60.1172 51.7402 58.0555 53.7923 56.8242 55.0178C56.6171 55.2249 56.3889 55.4493 56.2431 55.5797C56.1127 55.457 55.9171 55.2518 55.7368 55.0657C54.6206 53.9035 52.5417 51.7402 50.6296 51.7402C48.2553 51.7402 46.9492 52.958 46.9492 55.1674C46.9492 59.4499 52.1504 66.7109 56.1012 66.7109C60.052 66.7109 65.5773 59.2562 65.5773 55.0255H65.5754ZM56.0993 65.9764C54.5535 65.9764 52.4573 64.492 50.6277 62.1023C48.8383 59.7664 47.6838 57.0449 47.6838 55.1693C47.6838 53.2936 48.7635 52.4785 50.6296 52.4785C52.2291 52.4785 54.1661 54.4961 55.2056 55.5797C55.8231 56.2222 55.9881 56.3948 56.2335 56.3948C56.479 56.3948 56.6478 56.2318 57.3401 55.5433C58.4161 54.4731 60.4183 52.4785 61.9775 52.4785C63.7534 52.4785 64.8389 53.215 64.8389 55.0274C64.8389 56.8397 63.6269 59.634 61.7512 62.0218C59.8333 64.4632 57.6681 65.9783 56.0993 65.9783V65.9764Z" fill="#FF9D71"/>
<path fill-rule="evenodd" clip-rule="evenodd" d="M47.5582 52.2593C48.3031 51.5655 49.3622 51.2401 50.6296 51.2401C51.7573 51.2401 52.8669 51.8684 53.7852 52.5697C54.7152 53.2801 55.5365 54.1353 56.0918 54.7135L56.0959 54.7177C56.1306 54.7536 56.1652 54.7893 56.1992 54.8245C56.2173 54.8433 56.2352 54.8618 56.253 54.8802C56.3241 54.8103 56.398 54.7368 56.4707 54.6642L56.4715 54.6633L56.4804 54.6545C57.092 54.0458 57.9365 53.2052 58.8682 52.5171C59.7903 51.8361 60.8813 51.2401 61.9794 51.2401C63.1483 51.2401 64.1807 51.5242 64.9269 52.1734C65.578 52.7399 65.9582 53.5379 66.0523 54.5254H66.0773V55.0254C66.0773 56.1808 65.7034 57.513 65.1085 58.8406C64.5107 60.1748 63.6746 61.5379 62.7143 62.7631C61.7549 63.9872 60.6603 65.088 59.5387 65.8872C58.4258 66.6802 57.2374 67.2109 56.1012 67.2109C54.9667 67.2109 53.7989 66.6939 52.7132 65.9158C51.6204 65.1326 50.5655 64.0528 49.6462 62.8484C47.823 60.4597 46.4492 57.467 46.4492 55.1673C46.4492 53.9633 46.8078 52.9584 47.5582 52.2593ZM56.1865 65.4763H56.0993C55.4743 65.4763 54.6657 65.1695 53.7588 64.5273C52.8621 63.8924 51.9157 62.9621 51.0247 61.7983L51.0246 61.7982C49.2666 59.5033 48.1838 56.8883 48.1838 55.1692C48.1838 54.3282 48.4226 53.8134 48.7853 53.4975C49.1611 53.1702 49.7583 52.9785 50.6296 52.9785C51.2472 52.9785 52.0143 53.3837 52.8186 54.0158C53.6011 54.6308 54.3223 55.3811 54.8447 55.9258L54.8451 55.9261C54.8562 55.9377 54.8671 55.9491 54.878 55.9604C55.1592 56.253 55.3699 56.4723 55.5402 56.6132C55.7381 56.7771 55.9505 56.8947 56.2335 56.8947C56.5118 56.8947 56.7229 56.7837 56.9305 56.6185C57.1172 56.47 57.3565 56.232 57.6927 55.8977L57.6927 55.8977C58.2337 55.3597 58.9809 54.6166 59.7806 54.0072C60.6043 53.3796 61.3778 52.9785 61.9775 52.9785C62.8088 52.9785 63.3882 53.1528 63.7543 53.4576C64.1028 53.7476 64.3389 54.2243 64.3389 55.0273C64.3389 55.8366 64.0641 56.916 63.5407 58.1077C63.0208 59.2912 62.2709 60.5507 61.358 61.7128C60.4226 62.9036 59.4364 63.8558 58.5076 64.5059C57.6104 65.1339 56.8113 65.4492 56.1865 65.4763Z" fill="#FF9D71"/>
<path fill-rule="evenodd" clip-rule="evenodd" d="M69.8357 49.1593C70.4266 49.2493 71.0254 49.4015 71.6279 49.6274C71.8738 49.718 72.1509 49.6766 72.358 49.516C72.5651 49.3555 72.6765 49.0992 72.648 48.8377C72.591 48.2913 71.1463 35.2779 62.7002 24.9443C54.3215 14.6935 48.8116 11.0479 48.5811 10.8977C48.4776 10.8304 48.3559 10.7889 48.229 10.7786C47.9675 10.7579 21.9432 8.82372 5.78896 20.9258C5.59995 21.0656 5.48861 21.2857 5.48602 21.5213C5.48343 21.7569 5.58959 21.9796 5.77083 22.1272C5.83298 22.1764 11.8866 27.0856 11.9643 35.441C11.9669 35.8553 12.3035 36.1893 12.7177 36.1919C12.8498 36.1919 25.2211 36.3964 33.0665 47.4006C33.2192 47.613 33.4678 47.7321 33.7267 47.7165C33.8044 47.7112 38.0355 47.5096 43.2205 48.2634L44.0528 46.8491C40.4098 46.2712 37.1786 46.163 35.3554 46.163V46.1604C34.7987 46.1604 34.3585 46.1708 34.0607 46.1811C26.7488 36.2359 16.4333 34.8843 13.4634 34.7005C13.1372 27.7406 9.13942 23.2043 7.45124 21.5886C22.4403 10.9702 45.5336 12.125 47.9105 12.2752C48.8634 12.9458 54.0884 16.8037 61.5273 25.9049C68.2593 34.1386 70.4187 44.4282 70.9754 47.8408C70.2656 47.6644 69.5665 47.5688 68.8827 47.5398L69.8357 49.1593Z" fill="#FF9D71"/>
<path d="M71.6279 49.6274L71.5401 49.8615L71.5414 49.862L71.6279 49.6274ZM69.8357 49.1593L69.6202 49.2861L69.6805 49.3885L69.7981 49.4064L69.8357 49.1593ZM72.358 49.516L72.2049 49.3184V49.3184L72.358 49.516ZM72.648 48.8377L72.3994 48.8636L72.3995 48.8647L72.648 48.8377ZM62.7002 24.9443L62.8938 24.786L62.8938 24.786L62.7002 24.9443ZM48.5811 10.8977L48.7176 10.6882L48.7174 10.6881L48.5811 10.8977ZM48.229 10.7786L48.2493 10.5294L48.2487 10.5294L48.229 10.7786ZM5.78896 20.9258L5.93764 21.1268L5.93885 21.1259L5.78896 20.9258ZM5.48602 21.5213L5.23603 21.5186L5.48602 21.5213ZM5.77083 22.1272L5.61296 22.3211L5.61566 22.3232L5.77083 22.1272ZM11.9643 35.441L12.2143 35.4394L12.2143 35.4387L11.9643 35.441ZM12.7177 36.1919L12.7162 36.4419H12.7177V36.1919ZM33.0665 47.4006L32.8629 47.5458L32.8635 47.5466L33.0665 47.4006ZM33.7267 47.7165L33.7417 47.9661L33.7439 47.9659L33.7267 47.7165ZM43.2205 48.2634L43.1845 48.5108L43.3508 48.535L43.4359 48.3902L43.2205 48.2634ZM44.0528 46.8491L44.2682 46.9759L44.4543 46.6596L44.0919 46.6021L44.0528 46.8491ZM35.3554 46.163H35.1054V46.413H35.3554V46.163ZM35.3554 46.1604H35.6054V45.9104H35.3554V46.1604ZM34.0607 46.1811L33.8593 46.3292L33.9375 46.4355L34.0694 46.431L34.0607 46.1811ZM13.4634 34.7005L13.2137 34.7122L13.2242 34.9361L13.448 34.95L13.4634 34.7005ZM7.45124 21.5886L7.30673 21.3846L7.05951 21.5598L7.27839 21.7692L7.45124 21.5886ZM47.9105 12.2752L48.0544 12.0707L47.9967 12.0301L47.9263 12.0257L47.9105 12.2752ZM61.5273 25.9049L61.3337 26.0631L61.3337 26.0631L61.5273 25.9049ZM70.9754 47.8408L70.9151 48.0834L71.2832 48.1749L71.2221 47.8006L70.9754 47.8408ZM68.8827 47.5398L68.8933 47.2901L68.4342 47.2706L68.6673 47.6666L68.8827 47.5398ZM71.7156 49.3933C71.0966 49.1612 70.481 49.0047 69.8733 48.9121L69.7981 49.4064C70.3722 49.4939 70.9542 49.6418 71.5401 49.8615L71.7156 49.3933ZM72.2049 49.3184C72.0667 49.4255 71.8803 49.454 71.7143 49.3928L71.5414 49.862C71.8674 49.982 72.2351 49.9276 72.5112 49.7136L72.2049 49.3184ZM72.3995 48.8647C72.4184 49.0383 72.3446 49.2102 72.2049 49.3184L72.5112 49.7136C72.7857 49.5008 72.9346 49.16 72.8965 48.8106L72.3995 48.8647ZM62.5066 25.1025C70.9042 35.3768 72.3435 48.3277 72.3994 48.8636L72.8967 48.8117C72.8386 48.255 71.3883 35.179 62.8938 24.786L62.5066 25.1025ZM48.4446 11.1071C48.653 11.2429 54.1437 14.8711 62.5066 25.1025L62.8938 24.786C54.4992 14.5159 48.9702 10.8528 48.7176 10.6882L48.4446 11.1071ZM48.2087 11.0278C48.295 11.0348 48.3767 11.063 48.4449 11.1073L48.7174 10.6881C48.5784 10.5978 48.4168 10.5431 48.2493 10.5294L48.2087 11.0278ZM5.93885 21.1259C13.9642 15.1136 24.4572 12.579 32.9985 11.5544C41.5346 10.5304 48.0883 11.0182 48.2093 11.0278L48.2487 10.5294C48.1082 10.5182 41.519 10.0287 32.939 11.0579C24.3641 12.0866 13.7679 14.6359 5.63907 20.7257L5.93885 21.1259ZM5.736 21.524C5.73774 21.3658 5.81231 21.2195 5.93763 21.1268L5.64028 20.7248C5.38758 20.9117 5.23947 21.2056 5.23603 21.5186L5.736 21.524ZM5.92869 21.9333C5.80572 21.8332 5.73426 21.6825 5.736 21.524L5.23603 21.5186C5.2326 21.8313 5.37345 22.126 5.61298 22.321L5.92869 21.9333ZM12.2143 35.4387C12.1355 26.9646 6.00235 21.9916 5.92601 21.9312L5.61566 22.3232C5.6155 22.3231 5.62169 22.328 5.63448 22.3386C5.64683 22.3488 5.66467 22.3637 5.68765 22.3833C5.7336 22.4225 5.79998 22.4802 5.8839 22.5561C6.05173 22.7079 6.28954 22.9325 6.57406 23.2269C7.14325 23.8161 7.89842 24.6841 8.65423 25.8087C10.1661 28.0583 11.676 31.3274 11.7143 35.4433L12.2143 35.4387ZM12.7193 35.9419C12.4408 35.9401 12.216 35.7157 12.2143 35.4394L11.7143 35.4426C11.7177 35.9948 12.1662 36.4384 12.7162 36.4419L12.7193 35.9419ZM33.27 47.2555C25.3515 36.1487 12.8711 35.9419 12.7177 35.9419V36.4419C12.7175 36.4419 12.7207 36.4419 12.7284 36.442C12.7356 36.4421 12.7458 36.4424 12.7589 36.4427C12.7851 36.4434 12.8227 36.4446 12.8714 36.4466C12.9686 36.4507 13.1094 36.4581 13.2898 36.4715C13.6506 36.4981 14.1693 36.5485 14.8133 36.6431C16.1017 36.8324 17.8898 37.1985 19.9173 37.9057C23.9719 39.32 28.9776 42.0961 32.8629 47.5458L33.27 47.2555ZM33.7118 47.467C33.5395 47.4773 33.3727 47.3982 33.2694 47.2546L32.8635 47.5466C33.0658 47.8277 33.3961 47.9868 33.7417 47.9661L33.7118 47.467ZM43.2565 48.016C38.05 47.2591 33.8005 47.4608 33.7095 47.4671L33.7439 47.9659C33.7435 47.966 33.7475 47.9657 33.7584 47.9652C33.7683 47.9647 33.7822 47.964 33.8 47.9633C33.8357 47.9617 33.8869 47.9597 33.9528 47.9574C34.0846 47.9529 34.275 47.9476 34.5178 47.9437C35.0033 47.9359 35.6981 47.9337 36.5521 47.9552C38.2605 47.9982 40.6043 48.1357 43.1845 48.5108L43.2565 48.016ZM43.8373 46.7223L43.005 48.1366L43.4359 48.3902L44.2682 46.9759L43.8373 46.7223ZM35.3554 46.413C37.1698 46.413 40.3873 46.5207 44.0136 47.096L44.0919 46.6021C40.4323 46.0216 37.1873 45.913 35.3554 45.913V46.413ZM35.1054 46.1604V46.163H35.6054V46.1604H35.1054ZM34.0694 46.431C34.3645 46.4207 34.8017 46.4104 35.3554 46.4104V45.9104C34.7956 45.9104 34.3525 45.9208 34.052 45.9313L34.0694 46.431ZM13.448 34.95C16.3871 35.1319 26.6117 36.4715 33.8593 46.3292L34.2622 46.033C26.8859 36.0003 16.4795 34.6367 13.4789 34.4509L13.448 34.95ZM7.27839 21.7692C8.94579 23.365 12.8918 27.8447 13.2137 34.7122L13.7132 34.6888C13.3826 27.6366 9.33305 23.0436 7.6241 21.408L7.27839 21.7692ZM47.9263 12.0257C46.7289 11.95 40.3441 11.6231 32.3786 12.6457C24.4175 13.6677 14.8498 16.041 7.30673 21.3846L7.59576 21.7926C15.0418 16.5178 24.5152 14.1593 32.4423 13.1416C40.3649 12.1246 46.7152 12.4501 47.8948 12.5247L47.9263 12.0257ZM61.7208 25.7466C54.2673 16.6276 49.0255 12.7542 48.0544 12.0707L47.7666 12.4796C48.7012 13.1374 53.9095 16.9799 61.3337 26.0631L61.7208 25.7466ZM71.2221 47.8006C70.6633 44.375 68.4951 34.0321 61.7208 25.7466L61.3337 26.0631C68.0234 34.2451 70.1741 44.4814 70.7286 47.8811L71.2221 47.8006ZM68.8722 47.7896C69.5397 47.8179 70.2222 47.9112 70.9151 48.0834L71.0357 47.5982C70.309 47.4176 69.5932 47.3197 68.8933 47.2901L68.8722 47.7896ZM70.0512 49.0325L69.0982 47.413L68.6673 47.6666L69.6202 49.2861L70.0512 49.0325Z" fill="#FF9D71"/>
<path fill-rule="evenodd" clip-rule="evenodd" d="M57.0802 42.2957H58.6266C58.1775 35.0504 56.3281 21.6354 49.0367 11.4388L51.2142 6.41831C51.3799 6.03511 51.2039 5.58717 50.8207 5.42146C50.4375 5.25575 49.9895 5.43182 49.8238 5.81502L47.4728 11.2317C47.364 11.4803 47.3951 11.7651 47.5556 11.9826C54.7156 21.7491 56.5979 35.0955 57.0802 42.2957Z" fill="#FF9D71"/>
<path d="M58.6266 42.2957V42.5457H58.8926L58.8761 42.2802L58.6266 42.2957ZM57.0802 42.2957L56.8307 42.3124L56.8464 42.5457H57.0802V42.2957ZM49.0367 11.4388L48.8073 11.3393L48.751 11.4692L48.8333 11.5842L49.0367 11.4388ZM51.2142 6.41831L51.4436 6.51779L51.4437 6.51754L51.2142 6.41831ZM50.8207 5.42146L50.7214 5.65092H50.7214L50.8207 5.42146ZM49.8238 5.81502L50.0531 5.91456L50.0533 5.91425L49.8238 5.81502ZM47.4728 11.2317L47.7018 11.3319L47.7021 11.3312L47.4728 11.2317ZM47.5556 11.9826L47.7573 11.8348L47.7568 11.8341L47.5556 11.9826ZM58.6266 42.0457H57.0802V42.5457H58.6266V42.0457ZM48.8333 11.5842C56.0824 21.7216 57.9287 35.0773 58.3771 42.3111L58.8761 42.2802C58.4263 35.0234 56.5738 21.5492 49.24 11.2934L48.8333 11.5842ZM50.9849 6.31883L48.8073 11.3393L49.266 11.5383L51.4436 6.51779L50.9849 6.31883ZM50.7214 5.65092C50.9772 5.76152 51.096 6.06187 50.9848 6.31908L51.4437 6.51754C51.6639 6.00834 51.4306 5.41282 50.9199 5.192L50.7214 5.65092ZM50.0533 5.91425C50.1639 5.65851 50.4642 5.5397 50.7214 5.65092L50.9199 5.192C50.4107 4.9718 49.8152 5.20513 49.5943 5.71579L50.0533 5.91425ZM47.7021 11.3312L50.0531 5.91456L49.5945 5.71549L47.2435 11.1322L47.7021 11.3312ZM47.7568 11.8341C47.6498 11.6892 47.6286 11.4993 47.7018 11.3319L47.2437 11.1315C47.0995 11.4612 47.1404 11.8409 47.3545 12.131L47.7568 11.8341ZM57.3296 42.279C56.8467 35.0693 54.9615 21.6617 47.7573 11.8348L47.354 12.1304C54.4698 21.8366 56.3491 35.1217 56.8307 42.3124L57.3296 42.279Z" fill="#FF9D71"/>
<g style="mix-blend-mode:multiply" opacity="0.8">
<path d="M56.3867 80.4861L57.2667 75.4061C64.3867 70.2861 71.7467 65.3261 72.5067 60.8461C72.9067 58.6861 72.1467 57.4461 70.1467 57.4461C68.0667 57.4461 66.7867 58.8861 66.2267 61.8061H59.5867C61.0667 54.7261 66.1867 51.6861 71.5067 51.6861C78.1467 51.6861 80.3467 55.6461 79.5467 60.2861C78.4667 66.3661 71.9067 71.3661 66.6667 74.9261H77.4667L76.4667 80.4861H56.3867Z" fill="url(#paint0_linear_144_2684)"/>
</g>
<defs>
<linearGradient id="paint0_linear_144_2684" x1="56.3867" y1="66.0861" x2="79.7035" y2="66.0861" gradientUnits="userSpaceOnUse">
<stop stop-color="#961E27"/>
<stop offset="0.5" stop-color="#FA3B3B"/>
<stop offset="1" stop-color="#FF9D71"/>
</linearGradient>
</defs>
</svg>
