<svg width="80" height="81" viewBox="0 0 80 81" fill="none" xmlns="http://www.w3.org/2000/svg">
<path fill-rule="evenodd" clip-rule="evenodd" d="M54.1435 69.7342L60.1038 57.9439L66.0641 69.7342C66.2121 70.0231 66.5742 70.1464 66.8744 70.0019C66.9892 69.9509 67.0776 69.8701 67.1394 69.7745L69.2082 65.2866L74.0193 66.4575L74.2026 66.5042C74.3041 66.5106 74.4145 66.4915 74.5139 66.4426C74.8164 66.3023 74.9378 65.9538 74.7965 65.6649L69.2705 54.7324H71.2347L76.3849 64.9212L76.3947 64.941C76.9339 66.0437 76.4861 67.4035 75.2985 67.9657C74.9053 68.1547 74.4825 68.2254 74.0876 68.2006C73.9736 68.1934 73.8605 68.1756 73.75 68.1474L73.5764 68.1032L70.2189 67.2861L68.754 70.4639C68.7208 70.536 68.6824 70.6057 68.6391 70.6726C68.4164 71.017 68.0836 71.3308 67.64 71.5339C66.4425 72.0943 65.0435 71.587 64.4796 70.4854L64.4758 70.4779L60.1038 61.8295L55.7326 70.4764L55.7323 70.4768C55.1643 71.6027 53.7452 72.091 52.5558 71.5294C52.1242 71.3275 51.7849 71.0132 51.558 70.6492C51.521 70.5898 51.4878 70.5284 51.4586 70.4652L49.99 67.2861L46.6261 68.1055L46.5972 68.1122L46.4096 68.1547C46.3392 68.1707 46.2678 68.1825 46.1959 68.19C45.7086 68.241 45.2731 68.1324 44.9338 67.9762L44.9247 67.972C43.7384 67.4179 43.261 66.0482 43.8286 64.9227L48.978 54.7324H50.9422L45.4177 65.6649C45.272 65.9538 45.3956 66.3023 45.6959 66.4426C45.7975 66.4893 45.9034 66.5106 46.005 66.5L46.1927 66.4575L50.9994 65.2866L53.0726 69.7745C53.1322 69.8701 53.2205 69.9509 53.3309 70.0019C53.6334 70.1464 53.9977 70.0231 54.1435 69.7342Z" fill="#FF9D71"/>
<path fill-rule="evenodd" clip-rule="evenodd" d="M17.1562 28.0362C17.1562 27.5225 17.4938 27.106 17.9103 27.106H39.7396C40.156 27.106 40.4936 27.5225 40.4936 28.0362C40.4936 28.5499 40.156 28.9663 39.7396 28.9663H17.9103C17.4938 28.9663 17.1562 28.5499 17.1562 28.0362Z" fill="#FF9D71"/>
<path fill-rule="evenodd" clip-rule="evenodd" d="M17.1562 40.8554C17.1562 40.3417 17.4938 39.9253 17.9103 39.9253H39.7396C40.156 39.9253 40.4936 40.3417 40.4936 40.8554C40.4936 41.3691 40.156 41.7856 39.7396 41.7856H17.9103C17.4938 41.7856 17.1562 41.3691 17.1562 40.8554Z" fill="#FF9D71"/>
<path fill-rule="evenodd" clip-rule="evenodd" d="M17.1562 34.4458C17.1562 33.9321 17.4938 33.5156 17.9103 33.5156H39.7396C40.156 33.5156 40.4936 33.9321 40.4936 34.4458C40.4936 34.9595 40.156 35.3759 39.7396 35.3759H17.9103C17.4938 35.3759 17.1562 34.9595 17.1562 34.4458Z" fill="#FF9D71"/>
<path fill-rule="evenodd" clip-rule="evenodd" d="M13.8331 18.8874C12.9665 18.8874 12.3837 19.5223 12.3837 20.1676V52.0091C12.3837 52.6564 12.9688 53.2932 13.8331 53.2932H48.3249C48.3735 54.0023 48.5416 54.6271 48.9776 55.0638C49.0089 55.0951 49.0412 55.125 49.0744 55.1535H13.8331C12.0701 55.1535 10.5234 53.808 10.5234 52.0091V20.1676C10.5234 18.3665 12.0723 17.0271 13.8331 17.0271H64.4075C66.1732 17.0271 67.7171 18.3675 67.7171 20.1676V30.9264C67.0794 30.9304 66.4817 30.8761 65.9881 30.6717C65.9441 30.6534 65.9003 30.6335 65.8568 30.6121V20.1676C65.8568 19.5213 65.2768 18.8874 64.4075 18.8874H13.8331ZM49.9312 53.9606C49.9578 53.9917 49.9856 54.0218 50.0148 54.051C50.7331 54.7681 52.0092 54.6893 53.2881 54.6104C54.2776 54.5493 55.2688 54.4882 56.0048 54.7953C56.1711 54.8641 56.3335 54.9574 56.4931 55.0694C56.1561 54.7477 55.8114 54.4833 55.4485 54.3331C54.6979 54.02 53.6872 54.0823 52.6782 54.1446C51.6749 54.2065 50.6734 54.2683 49.9312 53.9606ZM66.8865 54.0953C66.2494 54.0846 65.6499 54.1293 65.1601 54.3331C64.7665 54.4961 64.3944 54.7939 64.0301 55.1535H64.4075C64.6061 55.1535 64.8018 55.1365 64.9929 55.1038C65.1677 54.9764 65.3458 54.871 65.5286 54.7953C65.7555 54.7009 66.0064 54.6413 66.2739 54.6058C66.4989 54.4603 66.7049 54.2889 66.8865 54.0953Z" fill="#FF9D71"/>
<path fill-rule="evenodd" clip-rule="evenodd" d="M60.2829 34.3543C55.6304 34.3543 51.8616 38.1251 51.8616 42.7755C51.8616 47.4257 55.6324 51.1946 60.2829 51.1946C64.9332 51.1946 68.7019 47.4258 68.7019 42.7755C68.7019 38.1249 64.9352 34.3543 60.2829 34.3543ZM50.8198 42.7755C50.8198 37.5499 55.0549 33.3125 60.2829 33.3125C65.511 33.3125 69.7437 37.5501 69.7437 42.7755C69.7437 48.0012 65.5086 52.2364 60.2829 52.2364C55.0574 52.2364 50.8198 48.0014 50.8198 42.7755Z" fill="#FF9D71"/>
<path fill-rule="evenodd" clip-rule="evenodd" d="M50.583 42.7755C50.583 37.4193 54.924 33.0759 60.2826 33.0759C65.6415 33.0759 69.98 37.4195 69.98 42.7755C69.98 48.1318 65.6389 52.4729 60.2826 52.4729C54.9265 52.4729 50.583 48.1321 50.583 42.7755ZM60.2826 33.549C55.1853 33.549 51.0561 37.6805 51.0561 42.7755C51.0561 47.8707 55.1876 51.9998 60.2826 51.9998C65.3777 51.9998 69.5069 47.8706 69.5069 42.7755C69.5069 37.6806 65.38 33.549 60.2826 33.549ZM60.2826 34.5908C55.7608 34.5908 52.0979 38.2557 52.0979 42.7755C52.0979 47.295 55.7627 50.958 60.2826 50.958C64.8023 50.958 68.4651 47.2952 68.4651 42.7755C68.4651 38.2555 64.8041 34.5908 60.2826 34.5908ZM51.6248 42.7755C51.6248 37.9945 55.4995 34.1177 60.2826 34.1177C65.0656 34.1177 68.9382 37.9944 68.9382 42.7755C68.9382 47.5565 65.0636 51.4311 60.2826 51.4311C55.5015 51.4311 51.6248 47.5564 51.6248 42.7755Z" fill="#FF9D71"/>
<path fill-rule="evenodd" clip-rule="evenodd" d="M75.043 45.5362C76.1425 44.5754 77.2635 43.5959 77.2635 42.3893C77.2635 41.182 76.1439 40.2032 75.045 39.2424C74.226 38.5265 73.4186 37.8206 73.0948 37.0378C72.7499 36.2089 72.8184 35.095 72.8867 33.9838C72.9752 32.5464 73.0633 31.1134 72.256 30.3075C71.4477 29.4992 70.0115 29.5877 68.5725 29.6765C67.4632 29.7449 66.3522 29.8134 65.5257 29.4712C64.7453 29.1458 64.0411 28.3402 63.3267 27.5231C62.3653 26.4233 61.3855 25.3025 60.1767 25.3025C58.9689 25.3025 57.9897 26.4223 57.0286 27.5214C56.313 28.3397 55.6075 29.1465 54.8251 29.4712C53.9986 29.8134 52.8871 29.7449 51.7774 29.6765C50.338 29.5877 48.9017 29.4992 48.0948 30.3075C47.2882 31.1156 47.3763 32.5511 47.4646 33.9897C47.5327 35.0994 47.6009 36.211 47.2586 37.0378C46.9329 37.8199 46.1263 38.5257 45.3084 39.2413C44.2093 40.2031 43.0898 41.1827 43.0898 42.3893C43.0898 43.5958 44.2099 44.5745 45.3091 45.5349C46.1273 46.2498 46.9339 46.9547 47.2586 47.7358C47.6009 48.5615 47.5327 49.6728 47.4646 50.7827C47.3763 52.2216 47.2881 53.658 48.0948 54.4661C48.9019 55.2718 50.3357 55.1833 51.7727 55.0946C52.8844 55.026 53.9981 54.9573 54.8251 55.3024C55.6078 55.6261 56.3135 56.4324 57.0294 57.2501C57.9902 58.3477 58.9692 59.4661 60.1767 59.4661C61.3846 59.4661 62.3639 58.3468 63.3247 57.2488C64.0398 56.4315 64.7446 55.626 65.5257 55.3024C66.355 54.9573 67.4696 55.0261 68.5814 55.0947C70.0183 55.1833 71.4504 55.2717 72.256 54.4661C73.0634 53.6587 72.9751 52.2241 72.8867 50.7865C72.8184 49.6754 72.7499 48.5624 73.0948 47.7358C73.4184 46.9558 74.2247 46.2512 75.043 45.5362ZM73.7347 45.284C74.7375 44.4078 75.7598 43.5144 75.7598 42.4141C75.7598 41.313 74.7387 40.4203 73.7365 39.5441C72.9896 38.8911 72.2532 38.2473 71.9579 37.5334C71.6433 36.7774 71.7058 35.7616 71.7682 34.7481C71.8488 33.4372 71.9292 32.1303 71.1929 31.3953C70.4557 30.6581 69.146 30.7389 67.8336 30.8198C66.8218 30.8822 65.8086 30.9447 65.0548 30.6326C64.3431 30.3358 63.7008 29.6011 63.0493 28.8558C62.1725 27.8528 61.2788 26.8307 60.1764 26.8307C59.0749 26.8307 58.1819 27.8519 57.3053 28.8543C56.6527 29.6006 56.0093 30.3364 55.2957 30.6326C54.542 30.9447 53.5282 30.8822 52.5162 30.8198C51.2034 30.7389 49.8935 30.6581 49.1576 31.3953C48.4219 32.1323 48.5023 33.4415 48.5828 34.7535C48.6449 35.7656 48.7071 36.7793 48.395 37.5334C48.0979 38.2467 47.3623 38.8904 46.6164 39.5431C45.614 40.4202 44.593 41.3136 44.593 42.4141C44.593 43.5144 45.6145 44.4069 46.617 45.2829C47.3632 45.9349 48.0988 46.5777 48.395 47.2902C48.7071 48.0431 48.6449 49.0567 48.5828 50.0689C48.5023 51.3812 48.4219 52.6912 49.1576 53.4283C49.8937 54.163 51.2013 54.0823 52.5119 54.0015C53.5258 53.9389 54.5415 53.8762 55.2957 54.1909C56.0095 54.4862 56.6532 55.2215 57.306 55.9673C58.1824 56.9683 59.0752 57.9883 60.1764 57.9883C61.2781 57.9883 62.1712 56.9675 63.0474 55.9661C63.6996 55.2207 64.3424 54.4861 65.0548 54.1909C65.8112 53.8762 66.8277 53.9389 67.8417 54.0015C69.1521 54.0824 70.4582 54.1629 71.1929 53.4283C71.9293 52.6919 71.8488 51.3835 71.7681 50.0724C71.7058 49.059 71.6434 48.044 71.9579 47.2902C72.253 46.5788 72.9884 45.9361 73.7347 45.284Z" fill="#FF9D71"/>
<path fill-rule="evenodd" clip-rule="evenodd" d="M58.6591 26.1837C58.1621 26.5858 57.6907 27.1238 57.2068 27.6771L57.2026 27.682C56.8478 28.0877 56.4865 28.5009 56.1148 28.8531C55.7421 29.2063 55.3456 29.5114 54.916 29.6897L54.9158 29.6898C54.465 29.8765 53.9482 29.9468 53.4155 29.9643C52.8844 29.9817 52.3198 29.9469 51.7694 29.913L51.7631 29.9126C51.0384 29.8679 50.3404 29.8255 49.7241 29.8908C49.1089 29.956 48.611 30.1255 48.2625 30.4746C47.9139 30.8238 47.7447 31.322 47.6795 31.9371C47.6143 32.5534 47.6564 33.2509 47.7009 33.9753L47.7013 33.9815C47.7351 34.532 47.7697 35.0966 47.7521 35.6277C47.7345 36.1605 47.6641 36.6773 47.4774 37.1283L47.4772 37.1287C47.2984 37.558 46.9932 37.9544 46.64 38.3272C46.2878 38.6989 45.8748 39.0603 45.4692 39.4152L45.4644 39.4194C44.9111 39.9036 44.3731 40.3752 43.9711 40.8723C43.5703 41.3679 43.3266 41.8628 43.3266 42.3893C43.3266 42.9157 43.5703 43.4103 43.9713 43.9055C44.3735 44.4022 44.9116 44.8733 45.465 45.3568L45.4698 45.361C45.8754 45.7155 46.2886 46.0765 46.6407 46.4478C46.9939 46.8201 47.2989 47.2161 47.4772 47.6451L47.4773 47.6453C47.6641 48.0957 47.7345 48.6123 47.7521 49.1448C47.7697 49.6758 47.7351 50.2403 47.7013 50.7908L47.7009 50.7972C47.6564 51.5216 47.6143 52.2195 47.6795 52.836C47.7447 53.4513 47.9138 53.9495 48.2622 54.2987C48.6109 54.6468 49.1083 54.8156 49.7226 54.8805C50.3381 54.9455 51.0348 54.9032 51.7584 54.8585L51.7647 54.8582C52.3161 54.8241 52.8818 54.7892 53.4138 54.807C53.9474 54.8248 54.4651 54.8958 54.9164 55.0841C55.346 55.2619 55.7424 55.5665 56.1151 55.9192C56.4869 56.2711 56.8484 56.684 57.2033 57.0894L57.2075 57.0943C57.6913 57.6469 58.1625 58.1842 58.6594 58.5857C59.1549 58.9861 59.6498 59.2295 60.1769 59.2295C60.7041 59.2295 61.1993 58.9859 61.6949 58.5853C62.1919 58.1835 62.6632 57.6458 63.1468 57.093L63.1511 57.0882C63.5056 56.683 63.8667 56.2703 64.238 55.9187C64.6103 55.5661 65.0063 55.2616 65.4354 55.0838C65.8877 54.8957 66.4059 54.8248 66.94 54.807C67.4725 54.7892 68.0384 54.8242 68.5899 54.8582L68.5962 54.8586C69.3196 54.9032 70.0159 54.9455 70.6307 54.8805C71.2444 54.8156 71.741 54.6468 72.0889 54.2989C72.4378 53.95 72.6071 53.4523 72.6722 52.8377C72.7376 52.2219 72.6953 51.5248 72.6508 50.801L72.6504 50.7947C72.6165 50.2436 72.5817 49.6782 72.5996 49.1465C72.6174 48.6132 72.6884 48.0958 72.8766 47.6448C73.0544 47.2164 73.3591 46.8209 73.7119 46.4489C74.0639 46.0778 74.4769 45.7169 74.8826 45.3624L74.8875 45.3581C75.4411 44.8744 75.9795 44.403 76.3819 43.9061C76.7832 43.4105 77.0271 42.9157 77.0271 42.3893C77.0271 41.8625 76.7834 41.3676 76.3826 40.8722C75.9806 40.3754 75.4427 39.9042 74.8895 39.4205L74.8847 39.4164C74.4786 39.0614 74.0651 38.6998 73.7127 38.3279C73.3593 37.9549 73.0542 37.5582 72.8764 37.1282C72.6884 36.6762 72.6174 36.1583 72.5996 35.6246C72.5817 35.0924 72.6165 34.5268 72.6504 33.9756L72.6508 33.9693C72.6953 33.2456 72.7376 32.549 72.6722 31.9338C72.607 31.3199 72.4378 30.823 72.0891 30.4749L72.0889 30.4748C71.7396 30.1254 71.2413 29.956 70.626 29.8908C70.0096 29.8255 69.3118 29.8679 68.5873 29.9126L68.581 29.913C68.0307 29.9469 67.4664 29.9817 66.9355 29.9643C66.4029 29.9467 65.8863 29.8765 65.4354 29.6898L65.4349 29.6896C65.0064 29.5109 64.6109 29.206 64.2389 28.8532C63.8679 28.5013 63.5072 28.0888 63.153 27.6836L63.1488 27.6788C62.6648 27.1251 62.1932 26.5867 61.6959 26.1843C61.2 25.7831 60.7045 25.5391 60.1769 25.5391C59.6497 25.5391 59.1547 25.7828 58.6591 26.1837ZM58.3616 25.8159C58.8978 25.3821 59.4962 25.066 60.1769 25.066C60.858 25.066 61.4569 25.3824 61.9934 25.8165C62.5256 26.247 63.022 26.8149 63.497 27.3582L63.505 27.3674C63.8638 27.7778 64.211 28.1747 64.5644 28.5099C64.9182 28.8455 65.2649 29.1061 65.6168 29.2528C65.9923 29.4083 66.4443 29.4748 66.951 29.4914C67.4575 29.5081 68.0011 29.4748 68.5582 29.4404L68.5703 29.4396C69.2811 29.3958 70.0162 29.3505 70.6759 29.4204C71.3405 29.4908 71.9645 29.6813 72.4234 30.1402C72.8819 30.598 73.0722 31.2206 73.1427 31.8839C73.2126 32.5423 73.1675 33.2763 73.1238 33.9862L73.123 33.9983C73.0887 34.5564 73.0554 35.1011 73.0724 35.6088C73.0894 36.1168 73.1566 36.5701 73.3133 36.9469L73.3135 36.9473C73.4595 37.3002 73.7201 37.6478 74.0561 38.0025C74.3917 38.3567 74.7895 38.7047 75.2008 39.0644L75.21 39.0723C75.7529 39.547 76.3202 40.043 76.7504 40.5746C77.1841 41.1107 77.5002 41.7089 77.5002 42.3893C77.5002 43.0695 77.1837 43.6677 76.7496 44.2038C76.319 44.7355 75.7512 45.2316 75.208 45.7063L75.1988 45.7143C74.7878 46.0735 74.3905 46.4209 74.0552 46.7744C73.7195 47.1284 73.4593 47.475 73.3134 47.8265L73.3133 47.8269C73.1566 48.2025 73.0894 48.6549 73.0724 49.1624C73.0554 49.6696 73.0887 50.214 73.123 50.772L73.1238 50.7842C73.1674 51.4942 73.2126 52.2286 73.1427 52.8876C73.0723 53.5516 72.882 54.1749 72.4234 54.6334C71.9658 55.091 71.3435 55.2808 70.6805 55.351C70.0224 55.4206 69.2888 55.3753 68.5792 55.3315L68.5671 55.3308C68.0087 55.2963 67.4637 55.2629 66.9557 55.2798C66.4474 55.2967 65.9938 55.3639 65.6168 55.5208L65.6165 55.5209C65.2643 55.6668 64.9174 55.9269 64.5633 56.2622C64.2096 56.5972 63.8621 56.994 63.5029 57.4045L63.4949 57.4137C63.0202 57.9562 62.5241 58.5232 61.9923 58.9532C61.456 59.3867 60.8575 59.7026 60.1769 59.7026C59.4965 59.7026 58.8982 59.3869 58.3621 58.9537C57.8304 58.524 57.3343 57.9573 56.8596 57.415L56.8516 57.4059C56.492 56.9952 56.1441 56.598 55.7899 56.2628C55.4353 55.9272 55.0877 55.6669 54.7349 55.521L54.7342 55.5207C54.3585 55.3639 53.9058 55.2968 53.398 55.2798C52.8905 55.2629 52.3458 55.2963 51.7875 55.3307L51.7754 55.3315C51.0656 55.3753 50.3316 55.4206 49.6729 55.351C49.0093 55.2809 48.3863 55.0911 47.9279 54.6335L47.9277 54.6332C47.4696 54.1743 47.2794 53.5504 47.2091 52.8858C47.1392 52.2262 47.1843 51.491 47.2279 50.7803L47.2287 50.7682C47.2629 50.2108 47.2961 49.6671 47.2793 49.1605C47.2625 48.6536 47.1958 48.2016 47.0403 47.8265C46.8939 47.4743 46.6333 47.1274 46.2975 46.7733C45.962 46.4197 45.5646 46.0722 45.1537 45.7131L45.1445 45.7051C44.6014 45.2306 44.0339 44.7347 43.6036 44.2032C43.1698 43.6674 42.8535 43.0694 42.8535 42.3893C42.8535 41.7092 43.1696 41.111 43.6033 40.5748C44.0334 40.0429 44.6007 39.5465 45.1437 39.0713L45.1529 39.0633C45.5637 38.7039 45.961 38.3559 46.2966 38.0018C46.6325 37.6473 46.8934 37.2998 47.0404 36.947C47.1959 36.5713 47.2625 36.119 47.2793 35.612C47.2961 35.1053 47.2629 34.5615 47.2287 34.0042L47.2279 33.9921C47.1843 33.2816 47.1392 32.5467 47.2091 31.8873C47.2795 31.2229 47.4696 30.5993 47.9277 30.1404C48.386 29.6813 49.0097 29.4908 49.6742 29.4204C50.3338 29.3505 51.0691 29.3958 51.78 29.4396L51.7922 29.4404C52.3495 29.4747 52.8932 29.5081 53.3999 29.4914C53.9069 29.4748 54.3591 29.4082 54.7348 29.2527C55.0875 29.1063 55.435 28.8456 55.7894 28.5097C56.1435 28.1742 56.4913 27.7767 56.8507 27.3657L56.8587 27.3565C57.3335 26.8135 57.8297 26.2461 58.3616 25.8159ZM58.8055 27.6505C58.3539 28.0158 57.9252 28.5051 57.4836 29.01L57.4794 29.0149C57.1561 29.3846 56.826 29.7621 56.4863 30.084C56.1455 30.4069 55.7818 30.6871 55.3866 30.8511L55.3864 30.8512C54.9719 31.0228 54.4978 31.087 54.0108 31.1031C53.5255 31.119 53.0098 31.0872 52.5081 31.0563L52.5019 31.0559C51.8405 31.0151 51.2058 30.9766 50.6457 31.036C50.0868 31.0952 49.6383 31.2488 49.3253 31.5624C49.0122 31.8761 48.8588 32.3249 48.7996 32.8837C48.7403 33.4437 48.7786 34.078 48.8191 34.7391L48.8195 34.7453C48.8503 35.247 48.882 35.7627 48.8659 36.2481C48.8498 36.7351 48.7854 37.2093 48.6137 37.6239L48.6135 37.6243C48.4491 38.0192 48.1688 38.3829 47.8459 38.7237C47.524 39.0634 47.1467 39.3935 46.7772 39.7169L46.7724 39.7211C46.2674 40.163 45.7782 40.5919 45.4129 41.0436C45.0488 41.4939 44.8298 41.9406 44.8298 42.4141C44.8298 42.8874 45.0489 43.3339 45.4131 43.7838C45.7785 44.2351 46.2678 44.6635 46.7729 45.1048L46.7777 45.109C47.1473 45.432 47.5247 45.7618 47.8466 46.1011C48.1694 46.4415 48.4496 46.8048 48.6136 47.1994L48.6137 47.1996C48.7854 47.6137 48.8497 48.0876 48.8659 48.5745C48.882 49.0597 48.8503 49.5754 48.8195 50.0771L48.8191 50.0834C48.7786 50.7445 48.7403 51.3792 48.7996 51.9394C48.8588 52.4985 49.0122 52.9475 49.3253 53.2611C49.6384 53.5736 50.0865 53.7266 50.6444 53.7855C51.2036 53.8446 51.8372 53.8061 52.4975 53.7654L52.5038 53.765C53.0063 53.734 53.5231 53.7021 54.0093 53.7183C54.4971 53.7346 54.9721 53.7995 55.387 53.9726C55.7821 54.1362 56.1458 54.4159 56.4865 54.7384C56.8264 55.06 57.1566 55.4372 57.48 55.8066L57.4842 55.8115C57.9257 56.3158 58.3543 56.8044 58.8058 57.1692C59.2558 57.5329 59.7027 57.7518 60.1766 57.7518C60.6508 57.7518 61.0978 57.5327 61.548 57.1688C61.9996 56.8037 62.4282 56.3148 62.8696 55.8103L62.8739 55.8054C63.197 55.4362 63.5268 55.0593 63.8661 54.7379C64.2064 54.4156 64.5696 54.1361 64.9642 53.9725C65.38 53.7995 65.8556 53.7346 66.344 53.7183C66.8306 53.7021 67.3476 53.734 67.8502 53.765L67.8564 53.7654C68.5167 53.8062 69.1498 53.8446 69.7085 53.7855C70.266 53.7265 70.7134 53.5735 71.0258 53.261C71.3392 52.9476 71.4927 52.4993 71.5519 51.9409C71.6112 51.3814 71.5729 50.7475 71.5322 50.0869L71.5318 50.0806C71.5009 49.5784 71.4692 49.062 71.4855 48.576C71.5018 48.0885 71.5667 47.6138 71.7398 47.1991C71.9033 46.805 72.1831 46.4422 72.5057 46.1021C72.8273 45.763 73.2047 45.4332 73.5744 45.1102L73.5792 45.1059C74.0844 44.6645 74.574 44.2358 74.9397 43.7843C75.3042 43.3341 75.5235 42.8874 75.5235 42.4141C75.5235 41.9403 75.3044 41.4936 74.9403 41.0436C74.575 40.5921 74.0859 40.1636 73.581 39.7222L73.5762 39.718C73.2062 39.3945 72.8284 39.0642 72.5063 38.7243C72.1833 38.3833 71.9031 38.0193 71.7395 37.6238C71.5667 37.2083 71.5018 36.7331 71.4855 36.2452C71.4692 35.7589 71.501 35.2422 71.5319 34.7399L71.5323 34.7336C71.5729 34.0731 71.6112 33.4397 71.5519 32.8807C71.4926 32.323 71.3392 31.8754 71.026 31.5627L71.0258 31.5626C70.7121 31.2488 70.2632 31.0952 69.7042 31.036C69.1441 30.9766 68.5095 31.0151 67.8483 31.0559L67.842 31.0563C67.3406 31.0872 66.8251 31.119 66.3399 31.1031C65.853 31.087 65.379 31.0228 64.9645 30.8512L64.964 30.8509C64.5698 30.6866 64.207 30.4066 63.8669 30.084C63.5279 29.7625 63.1984 29.3856 62.8756 29.0164L62.8714 29.0115C62.4297 28.5063 62.0008 28.0167 61.5489 27.651C61.0984 27.2866 60.6511 27.0672 60.1766 27.0672C59.7026 27.0672 59.2557 27.2863 58.8055 27.6505ZM58.5079 27.2827C58.9988 26.8856 59.5491 26.5941 60.1766 26.5941C60.8046 26.5941 61.3553 26.8859 61.8464 27.2832C62.3332 27.677 62.7869 28.1961 63.2196 28.6911L63.2276 28.7002C63.555 29.0747 63.871 29.4359 64.1925 29.7408C64.5143 30.046 64.8283 30.2817 65.1459 30.4142C65.4851 30.5546 65.8944 30.6151 66.3554 30.6302C66.8162 30.6454 67.3109 30.6151 67.8192 30.5837L67.8313 30.583C68.4788 30.543 69.1507 30.5016 69.7541 30.5655C70.3623 30.63 70.9368 30.8046 71.3602 31.2279C71.7833 31.6502 71.9578 32.2236 72.0223 32.8308C72.0863 33.433 72.045 34.1038 72.0052 34.7505L72.0045 34.7627C71.9731 35.2718 71.9428 35.7675 71.9583 36.2294C71.9738 36.6916 72.0349 37.1022 72.1765 37.4425L72.1767 37.443C72.3084 37.7614 72.5441 38.0762 72.8498 38.3989C73.1551 38.7211 73.5171 39.0379 73.8924 39.366L73.9015 39.3739C74.3961 39.8063 74.9146 40.2597 75.3081 40.746C75.7051 41.2366 75.9966 41.7868 75.9966 42.4141C75.9966 43.0411 75.7047 43.5913 75.3073 44.082C74.9135 44.5683 74.3945 45.0218 73.8996 45.4542L73.8905 45.4622C73.5155 45.7899 73.1539 46.1061 72.8489 46.4277C72.5435 46.7496 72.3082 47.0636 72.1766 47.3808L72.1764 47.3813C72.0349 47.7204 71.9738 48.1302 71.9583 48.5919C71.9428 49.0533 71.9731 49.5488 72.0044 50.0579L72.0052 50.07C72.045 50.7168 72.0863 51.3881 72.0223 51.9908C71.9579 52.5985 71.7834 53.1725 71.3604 53.5955C70.9382 54.0177 70.3651 54.1918 69.7583 54.256C69.1564 54.3196 68.4859 54.2782 67.8394 54.2384L67.8273 54.2376C67.3179 54.2062 66.8219 54.1758 66.3597 54.1912C65.8972 54.2066 65.4864 54.2677 65.1459 54.4093L65.1456 54.4095C64.8278 54.5411 64.5135 54.7764 64.1914 55.0814C63.8697 55.3861 63.5534 55.7473 63.2257 56.1219L63.2177 56.131C62.7853 56.6252 62.3318 57.1435 61.8454 57.5367C61.3545 57.9335 60.8042 58.2249 60.1766 58.2249C59.5494 58.2249 58.9992 57.9337 58.5084 57.5372C58.0221 57.1442 57.5687 56.6263 57.1362 56.1322L57.1282 56.1231C56.8002 55.7483 56.4835 55.3869 56.1613 55.082C55.8388 54.7767 55.5239 54.5413 55.2055 54.4095L55.2049 54.4093C54.8655 54.2677 54.4555 54.2066 53.9935 54.1912C53.5319 54.1758 53.0361 54.2062 52.5267 54.2376L52.5146 54.2383C51.868 54.2782 51.1971 54.3196 50.5947 54.256C49.9873 54.1918 49.4136 54.0178 48.9907 53.5957L48.9904 53.5954C48.5678 53.172 48.3935 52.5975 48.3291 51.9892C48.2652 51.3858 48.3065 50.7139 48.3462 50.0665L48.3469 50.0544C48.3781 49.5459 48.4083 49.051 48.393 48.5902C48.3778 48.129 48.3171 47.7196 48.1767 47.3808C48.0446 47.063 47.8088 46.7488 47.5033 46.4267C47.1982 46.105 46.8365 45.7887 46.4616 45.4611L46.4525 45.4531C45.9577 45.0208 45.439 44.5676 45.0454 44.0815C44.6483 43.591 44.3567 43.0411 44.3567 42.4141C44.3567 41.7871 44.6481 41.2369 45.0451 40.7461C45.4385 40.2597 45.957 39.8059 46.4517 39.373L46.4608 39.3651C46.8357 39.0371 47.1972 38.7204 47.5025 38.3983C47.8081 38.0758 48.0441 37.761 48.1767 37.4426C48.3172 37.1033 48.3778 36.6937 48.393 36.2324C48.4083 35.7714 48.3781 35.2765 48.3469 34.768L48.3462 34.756C48.3065 34.1087 48.2652 33.437 48.3291 32.8339C48.3935 32.2258 48.5679 31.6515 48.9904 31.2282C49.4133 30.8046 49.9876 30.63 50.5959 30.5655C51.1992 30.5016 51.8712 30.543 52.5189 30.583L52.531 30.5837C53.0394 30.615 53.5343 30.6454 53.9953 30.6302C54.4565 30.6151 54.866 30.5546 55.2053 30.4141M58.5079 27.2827C58.0215 27.6762 57.568 28.1948 57.1354 28.6895L58.5079 27.2827ZM57.1354 28.6895L57.1274 28.6986L57.1354 28.6895ZM57.1274 28.6986C56.7995 29.0736 56.483 29.4354 56.1609 29.7406L57.1274 28.6986ZM56.1609 29.7406C55.8384 30.0461 55.5237 30.2819 55.2055 30.4141L56.1609 29.7406Z" fill="#FF9D71"/>
<path fill-rule="evenodd" clip-rule="evenodd" d="M6.50182 11.8551C5.32041 11.8551 4.36031 12.8152 4.36031 13.9966V58.1799C4.36031 59.3621 5.31726 60.3214 6.50182 60.3214H46.6441V62.1817H71.765C71.7601 62.1817 71.7551 62.1817 71.7502 62.1817H6.50182C4.28828 62.1817 2.5 60.388 2.5 58.1799V13.9966C2.5 11.7878 4.29299 9.99481 6.50182 9.99481H71.7502C73.9575 9.99481 75.7442 11.7901 75.7442 13.9966V40.7995C75.4103 40.442 75.0174 40.0985 74.6274 39.7575L74.6273 39.7575C74.3725 39.5347 74.1189 39.313 73.8839 39.0892V13.9966C73.8839 12.8129 72.9254 11.8551 71.7502 11.8551H6.50182ZM73.5515 61.7523C74.8528 61.0918 75.7442 59.7384 75.7442 58.1799V44.4265C75.4098 44.7843 75.0162 45.1282 74.6257 45.4695L74.6256 45.4696L74.6253 45.4698C74.3712 45.6919 74.1183 45.9128 73.8839 46.1358V58.1799C73.8839 58.6628 73.7244 59.1081 73.4557 59.4661H73.5515V61.7523Z" fill="#FF9D71"/>
<g style="mix-blend-mode:multiply" opacity="0.8">
<path d="M13.3599 78.4432L14.3199 73.2432H0.879883L1.83988 67.7232L17.6399 49.6432H25.3199L22.1999 67.3232H25.4799L24.4399 73.2432H21.1599L20.2399 78.4432H13.3599ZM9.11988 67.3232H15.8399L17.6399 57.1632L9.11988 67.3232Z" fill="url(#paint0_linear_144_2515)"/>
</g>
<defs>
<linearGradient id="paint0_linear_144_2515" x1="0.879883" y1="64.0432" x2="25.4799" y2="64.0432" gradientUnits="userSpaceOnUse">
<stop stop-color="#961E27"/>
<stop offset="0.5" stop-color="#FA3B3B"/>
<stop offset="1" stop-color="#FF9D71"/>
</linearGradient>
</defs>
</svg>
