<svg width="81" height="81" viewBox="0 0 81 81" fill="none" xmlns="http://www.w3.org/2000/svg">
<path fill-rule="evenodd" clip-rule="evenodd" d="M20.5209 7.58572C18.145 7.58572 16.2207 9.34734 16.2207 11.5231V70.2322C16.2207 72.4088 18.1459 74.1732 20.5209 74.1732H66.2821C68.6266 74.1732 70.5359 72.4478 70.5777 70.3039C70.5755 70.2803 70.5744 70.2563 70.5744 70.2322V11.5231C70.5744 9.34969 68.6527 7.58572 66.2782 7.58572H20.5209ZM72.4362 70.1532V11.5231C72.4362 8.40819 69.6818 5.87946 66.2782 5.87946H20.5209C17.1186 5.87946 14.3589 8.40333 14.3589 11.5231V70.2322C14.3589 73.3511 17.1176 75.8795 20.5209 75.8795H66.2821C69.6819 75.8795 72.4402 73.3507 72.4402 70.2322C72.4402 70.2056 72.4388 70.1792 72.4362 70.1532Z" fill="#FF9D71"/>
<path fill-rule="evenodd" clip-rule="evenodd" d="M14.3589 15.8771C14.3589 15.406 14.7757 15.024 15.2898 15.024H71.5093C72.0234 15.024 72.4402 15.406 72.4402 15.8771C72.4402 16.3483 72.0234 16.7303 71.5093 16.7303H15.2898C14.7757 16.7303 14.3589 16.3483 14.3589 15.8771Z" fill="#FF9D71"/>
<path fill-rule="evenodd" clip-rule="evenodd" d="M59.1089 11.2309C59.1089 9.90483 60.1835 8.83026 61.5096 8.83026C62.8357 8.83026 63.9102 9.90483 63.9102 11.2309C63.9102 12.557 62.8357 13.6316 61.5096 13.6316C60.1835 13.6316 59.1089 12.557 59.1089 11.2309Z" fill="#FF9D71"/>
<path fill-rule="evenodd" clip-rule="evenodd" d="M51.9258 11.2309C51.9258 9.90481 53.0003 8.83025 54.3265 8.83025C55.6551 8.83025 56.7235 9.90741 56.7235 11.2309C56.7235 12.5557 55.6502 13.6316 54.3265 13.6316C53.0052 13.6316 51.9258 12.5583 51.9258 11.2309Z" fill="#FF9D71"/>
<path fill-rule="evenodd" clip-rule="evenodd" d="M31.0698 57.9294C29.5028 57.9294 28.2326 59.1996 28.2326 60.7666V65.1603C28.2326 66.7225 29.5053 67.9938 31.0698 67.9938H36.0731C37.6406 67.9938 38.9103 66.7231 38.9103 65.1603V60.7666C38.9103 59.1996 37.6401 57.9294 36.0731 57.9294H31.0698ZM26.5264 60.7666C26.5264 58.2573 28.5605 56.2231 31.0698 56.2231H36.0731C38.5824 56.2231 40.6165 58.2573 40.6165 60.7666V65.1603C40.6165 67.6665 38.5819 69.7001 36.0731 69.7001H31.0698C28.5652 69.7001 26.5264 67.6671 26.5264 65.1603V60.7666Z" fill="#FF9D71"/>
<path fill-rule="evenodd" clip-rule="evenodd" d="M31.0698 39.4239C29.5017 39.4239 28.2326 40.6916 28.2326 42.2575V46.6512C28.2326 48.2145 29.5064 49.4883 31.0698 49.4883H36.0731C37.6396 49.4883 38.9103 48.2151 38.9103 46.6512V42.2575C38.9103 40.6946 37.6406 39.4239 36.0731 39.4239H31.0698ZM26.5264 42.2575C26.5264 39.7471 28.5616 37.7177 31.0698 37.7177H36.0731C38.5819 37.7177 40.6165 39.7512 40.6165 42.2575V46.6512C40.6165 49.1563 38.583 51.1946 36.0731 51.1946H31.0698C28.5641 51.1946 26.5264 49.1569 26.5264 46.6512V42.2575Z" fill="#FF9D71"/>
<path fill-rule="evenodd" clip-rule="evenodd" d="M31.0698 20.9148C29.5034 20.9148 28.2326 22.188 28.2326 23.7519V28.142C28.2326 29.7115 29.5053 30.9792 31.0698 30.9792H36.0731C37.6406 30.9792 38.9103 29.712 38.9103 28.142V23.7519C38.9103 22.1849 37.6401 20.9148 36.0731 20.9148H31.0698ZM26.5264 23.7519C26.5264 21.2468 28.5599 19.2085 31.0698 19.2085H36.0731C38.5824 19.2085 40.6165 21.2426 40.6165 23.7519V28.142C40.6165 30.6555 38.5819 32.6854 36.0731 32.6854H31.0698C28.5652 32.6854 26.5264 30.656 26.5264 28.142V23.7519Z" fill="#FF9D71"/>
<path fill-rule="evenodd" clip-rule="evenodd" d="M44.415 26.8821C44.415 26.4109 44.797 26.0289 45.2682 26.0289H63.2398C63.711 26.0289 64.093 26.4109 64.093 26.8821C64.093 27.3532 63.711 27.7352 63.2398 27.7352H45.2682C44.797 27.7352 44.415 27.3532 44.415 26.8821Z" fill="#FF9D71"/>
<path fill-rule="evenodd" clip-rule="evenodd" d="M48.9429 41.9656C48.6762 41.8837 48.3796 41.914 48.1329 42.0677C47.8689 42.2326 47.7127 42.4942 47.6773 42.7645L48.0942 56.0867L48.1027 56.4201C48.1159 56.4629 48.1355 56.5063 48.1651 56.5541C48.3209 56.8059 48.6402 56.8803 48.884 56.7356L49.0404 56.6083L49.0502 56.6005L51.6727 54.5299C51.8764 54.3691 52.1423 54.3097 52.3951 54.3687C52.6404 54.4259 52.8475 54.5885 52.9615 54.8122C52.9633 54.8154 52.9663 54.8208 52.971 54.8289C52.983 54.8497 52.9999 54.8787 53.0214 54.9148C53.0639 54.9864 53.1189 55.0776 53.1753 55.1701C53.2315 55.2624 53.2879 55.3541 53.3328 55.4264C53.3654 55.4789 53.3857 55.5109 53.3954 55.5262C53.4013 55.5355 53.4033 55.5386 53.4017 55.5364C53.4108 55.5494 53.4196 55.5627 53.4279 55.5762L58.1318 63.1658C58.1317 63.1657 58.1318 63.1658 58.1318 63.1658C58.7489 64.1607 60.0597 64.4682 61.0564 63.8527L61.9013 63.3291C62.8952 62.7169 63.203 61.4122 62.5861 60.4095C62.5859 60.4092 62.5857 60.4089 62.5855 60.4086L57.8793 52.8173C57.8761 52.8122 57.8729 52.807 57.8699 52.8018C57.8706 52.803 57.8691 52.8006 57.864 52.7922L57.8459 52.7628C57.8308 52.7385 57.811 52.707 57.788 52.6702C57.7419 52.5969 57.6839 52.5051 57.6256 52.4134C57.5672 52.3216 57.5093 52.2311 57.4633 52.16C57.4348 52.1161 57.4164 52.0882 57.4063 52.073C57.3965 52.0581 57.3946 52.0551 57.3988 52.0608C57.245 51.8558 57.1916 51.5925 57.2532 51.3438C57.3148 51.095 57.485 50.8871 57.7167 50.7776L60.6927 49.3708L60.6974 49.3686L60.9914 49.2318C61.1817 49.0794 61.2461 48.8005 61.1221 48.5667C61.1161 48.5579 61.1104 48.549 61.1047 48.5399C61.0831 48.5051 61.0604 48.4761 61.0361 48.451L60.6734 48.2595L60.6686 48.2569L49.3375 42.18L48.9429 41.9656ZM62.5122 47.5745C62.5273 47.5947 62.5416 47.6156 62.555 47.6374C63.1913 48.6669 62.9021 50.0207 61.8901 50.6855C61.8555 50.7083 61.8192 50.7285 61.7816 50.746L61.4219 50.9134L61.4173 50.9155L59.3221 51.906C59.3261 51.9126 59.3297 51.9185 59.3328 51.9237L64.0383 59.5137C65.1447 61.3099 64.6015 63.669 62.7973 64.7812C62.7969 64.7814 62.7966 64.7816 62.7962 64.7819L61.9529 65.3044C60.1575 66.4132 57.7961 65.862 56.6817 64.065L51.9847 56.4865C51.9808 56.4806 51.9767 56.4742 51.9723 56.4674L50.1124 57.9358L49.9044 58.1051C49.8591 58.1419 49.8101 58.1741 49.7582 58.2009C48.7096 58.8262 47.3569 58.4906 46.7142 57.4521C46.5686 57.2168 46.4679 56.9656 46.4149 56.6944C46.4057 56.6476 46.4005 56.6002 46.3993 56.5525L46.3886 56.1353L46.3885 56.1304L45.9701 42.7579C45.9691 42.7252 45.97 42.6925 45.9728 42.6599C46.0423 41.848 46.4898 41.0818 47.2297 40.6201C47.9629 40.1632 48.8349 40.1075 49.58 40.3804C49.6192 40.3947 49.6573 40.4119 49.6939 40.4319L50.1521 40.6808L61.4701 46.7507L61.475 46.7533L61.921 46.9888C61.9677 47.0134 62.0119 47.0423 62.0532 47.0751C62.2358 47.2201 62.3877 47.3883 62.5122 47.5745Z" fill="#FF9D71"/>
<g style="mix-blend-mode:multiply" opacity="0.8">
<path d="M0 78.0432L0.88 72.9632C8 67.8432 15.36 62.8832 16.12 58.4032C16.52 56.2432 15.76 55.0032 13.76 55.0032C11.68 55.0032 10.4 56.4432 9.84 59.3632H3.2C4.68 52.2832 9.8 49.2432 15.12 49.2432C21.76 49.2432 23.96 53.2032 23.16 57.8432C22.08 63.9232 15.52 68.9232 10.28 72.4832H21.08L20.08 78.0432H0Z" fill="url(#paint0_linear_144_2483)"/>
</g>
<defs>
<linearGradient id="paint0_linear_144_2483" x1="8.68616e-08" y1="63.6432" x2="23.3167" y2="63.6432" gradientUnits="userSpaceOnUse">
<stop stop-color="#961E27"/>
<stop offset="0.5" stop-color="#FA3B3B"/>
<stop offset="1" stop-color="#FF9D71"/>
</linearGradient>
</defs>
</svg>
