<svg width="80" height="81" viewBox="0 0 80 81" fill="none" xmlns="http://www.w3.org/2000/svg">
<path fill-rule="evenodd" clip-rule="evenodd" d="M33.8981 3.37946C34.4025 3.37946 34.8114 3.78833 34.8114 4.29271V23.8283C34.8114 24.3326 34.4025 24.7415 33.8981 24.7415C33.3937 24.7415 32.9849 24.3326 32.9849 23.8283V4.29271C32.9849 3.78833 33.3937 3.37946 33.8981 3.37946Z" fill="#FF9D71"/>
<path fill-rule="evenodd" clip-rule="evenodd" d="M31.6226 18.9511C31.6226 18.4468 32.0314 18.0379 32.5358 18.0379H35.2659C35.7703 18.0379 36.1792 18.4468 36.1792 18.9511V27.825C36.1792 28.3293 35.7703 28.7382 35.2659 28.7382H32.5358C32.0314 28.7382 31.6226 28.3293 31.6226 27.825V18.9511ZM33.4491 19.8644V26.9117H34.3527V19.8644H33.4491Z" fill="#FF9D71"/>
<path fill-rule="evenodd" clip-rule="evenodd" d="M34.8119 24.9056C34.8119 24.4012 34.403 23.9924 33.8986 23.9924C33.3942 23.9924 32.9854 24.4012 32.9854 24.9056V33.7332C33.2669 33.6162 33.5753 33.5516 33.8984 33.5516C34.2223 33.5516 34.5307 33.6158 34.8119 33.7321V24.9056Z" fill="#FF9D71"/>
<path fill-rule="evenodd" clip-rule="evenodd" d="M33.8983 34.4649C33.0859 34.4649 32.4212 35.1295 32.4212 35.9419V40.8615C32.4212 41.6739 33.0859 42.3386 33.8983 42.3386C34.7165 42.3386 35.3753 41.6759 35.3753 40.8615V35.9419C35.3753 35.1276 34.7165 34.4649 33.8983 34.4649ZM30.5947 35.9419C30.5947 34.1208 32.0771 32.6384 33.8983 32.6384C35.7291 32.6384 37.2018 34.1227 37.2018 35.9419V40.8615C37.2018 42.6808 35.7291 44.1651 33.8983 44.1651C32.0771 44.1651 30.5947 42.6827 30.5947 40.8615V35.9419Z" fill="#FF9D71"/>
<path fill-rule="evenodd" clip-rule="evenodd" d="M19.6551 28.1339C19.6551 26.1695 21.0734 24.7376 22.6343 24.7376H45.1664C46.7262 24.7376 48.1417 26.1683 48.1417 28.1339C48.1417 28.1624 48.143 28.1906 48.1456 28.2184V48.1767C48.3006 48.1509 48.46 48.1347 48.6227 48.1289L48.9934 48.1174C49.3347 48.107 49.664 48.1437 49.9721 48.2205V28.1339C49.9721 28.1027 49.9705 28.0719 49.9675 28.0415C49.9227 25.2887 47.8781 22.9111 45.1664 22.9111H22.6343C19.8935 22.9111 17.8286 25.3408 17.8286 28.1339V51.7086C17.8286 58.3666 23.0932 63.811 30.0051 65.3162C28.8666 64.8188 27.9131 64.1111 27.8197 62.7418C22.9462 60.7694 19.6551 56.5149 19.6551 51.7086V28.1339Z" fill="#FF9D71"/>
<path fill-rule="evenodd" clip-rule="evenodd" d="M44.466 40.3327C44.4437 39.5832 43.5866 38.6913 42.145 38.7353C40.7095 38.783 39.9059 39.7293 39.9279 40.4861C39.9279 40.4863 39.9279 40.4865 39.9279 40.4868L40.2612 50.9345C40.2784 50.9999 40.2886 51.0682 40.2908 51.1385L40.6456 62.1296C40.6697 62.564 40.4484 62.9623 40.0998 63.1779C39.693 63.4295 39.1709 63.4014 38.779 63.083C38.7685 63.0745 38.7582 63.0657 38.7482 63.0568C38.742 63.0513 38.7401 63.0497 38.7361 63.0463C38.7316 63.0425 38.7244 63.0364 38.7049 63.0196C38.6845 63.002 38.6578 62.9784 38.6275 62.9494C38.4057 62.7565 38.1777 62.5709 37.947 62.3961C35.4778 60.5363 33.2942 59.7709 30.3723 60.2701L30.3717 60.2702C29.6512 60.3928 28.8389 60.9838 28.7347 62.2922C28.6896 62.8564 28.813 63.225 28.9956 63.4966C29.1904 63.7864 29.5036 64.041 29.9517 64.2786C30.4028 64.5178 30.9294 64.709 31.5094 64.9077C31.5761 64.9306 31.6441 64.9537 31.7128 64.9771C32.211 65.1466 32.7525 65.3308 33.2219 65.5506C34.1276 65.9694 35.0037 66.4499 35.8494 66.966L35.8532 66.9684C37.1584 67.7737 38.426 68.6935 39.5473 69.8091C39.6344 69.892 39.7167 69.9791 39.7775 70.0435L39.7794 70.0456C39.7907 70.0575 39.8017 70.0698 39.8123 70.0824C39.8796 70.152 39.9388 70.2204 39.9906 70.2832C39.9997 70.2924 40.0086 70.3018 40.0174 70.3113C41.1758 71.5787 42.8487 73.1712 44.8324 74.4319C46.8171 75.6933 49.051 76.5837 51.3574 76.5521L52.0581 76.522C52.0588 76.522 52.0596 76.5219 52.0603 76.5219C55.7017 76.3468 58.8399 75.466 61.0174 73.7723C63.1495 72.1138 64.4565 69.6032 64.3376 65.9021C64.2816 64.1414 64.1687 60.6175 64.0697 57.5341L63.8893 51.9163C63.8854 51.8922 63.8825 51.8678 63.8805 51.8431C63.8267 51.1696 63.0496 50.3842 61.7611 50.4242C61.761 50.4242 61.7611 50.4242 61.7611 50.4242L61.3946 50.4356C61.3939 50.4357 61.3931 50.4357 61.3924 50.4357C60.0958 50.4831 59.3751 51.3152 59.3673 51.982C59.3614 52.4821 58.9543 52.8844 58.4541 52.8844H58.4502C57.9586 52.8844 57.5552 52.4953 57.5376 52.004L57.5028 51.0386L57.5026 51.032C57.4832 50.3562 56.7098 49.5281 55.3892 49.5745L55.3854 49.5747L55.0126 49.5862C55.0122 49.5862 55.0119 49.5862 55.0116 49.5862C53.6902 49.6301 52.9713 50.4967 52.9914 51.176C52.9914 51.1766 52.9915 51.1772 52.9915 51.1778C53.0072 51.6819 52.6114 52.1036 52.1073 52.1194C51.6032 52.1352 51.1818 51.7394 51.1659 51.2354C51.1658 51.2346 51.1658 51.2338 51.1658 51.2331L51.1427 50.4939C51.1213 49.8138 50.3474 48.9899 49.0212 49.0302C49.0212 49.0302 49.0212 49.0302 49.0212 49.0302L48.6547 49.0416C48.6541 49.0417 48.6536 49.0417 48.6531 49.0417C47.3292 49.0889 46.6093 49.9569 46.6275 50.6367C46.6276 50.6382 46.6276 50.6396 46.6277 50.6411L46.6277 50.6428C46.6426 51.1466 46.2466 51.5673 45.7428 51.5827C45.239 51.5981 44.8179 51.2024 44.802 50.6986C44.8019 50.695 44.8018 50.6914 44.8017 50.6879L44.7746 49.7732C44.7685 49.735 44.7647 49.696 44.7634 49.6563L44.466 40.3327ZM46.5318 47.8042L46.2917 40.2782C46.2917 40.2779 46.2917 40.2776 46.2917 40.2773C46.2285 38.1777 44.1593 36.8459 42.0878 36.9097L42.0858 36.9097C40.0083 36.9782 38.0398 38.4484 38.1022 40.5412L38.4421 51.1971C38.4444 51.2677 38.4546 51.3362 38.4719 51.4017L38.7732 60.7351C36.1097 58.7957 33.4895 57.8847 30.0653 58.4696C28.5616 58.7254 27.0879 59.9646 26.914 62.1469M46.5318 47.8042C47.143 47.45 47.8607 47.2419 48.5905 47.2162L48.5941 47.2161L48.9655 47.2045C50.2911 47.1642 51.615 47.7281 52.3595 48.7146C53.0619 48.1371 53.9974 47.7921 54.9526 47.7607L54.9543 47.7606L55.3251 47.7491C55.3257 47.7491 55.3264 47.7491 55.3271 47.7491C56.7458 47.6999 58.1596 48.3496 58.866 49.464C59.5504 48.9487 60.4294 48.6426 61.3291 48.6103L61.3333 48.6102L61.704 48.5986C63.6024 48.5395 65.4656 49.7094 65.689 51.5752C65.702 51.632 65.7095 51.6901 65.7114 51.7488L64.7986 51.7781C65.7114 51.7488 65.7114 51.7487 65.7114 51.7488L65.7114 51.7492L65.7114 51.7507L65.8953 57.4755C65.9942 60.5589 66.1072 64.0827 66.1632 65.8437C66.1632 65.8436 66.1632 65.8438 66.1632 65.8437C66.299 70.074 64.7736 73.1645 62.1388 75.214C59.5496 77.228 55.987 78.1621 52.1456 78.3464L52.1411 78.3466L51.4228 78.3775C51.4144 78.3779 51.4059 78.3781 51.3974 78.3782C48.6032 78.4205 46.0127 77.3463 43.8527 75.9735C41.713 74.6135 39.9345 72.9221 38.7115 71.5898C38.7334 71.6098 38.7562 71.6287 38.7799 71.6465L38.7944 71.6574L38.7952 71.658L39.3433 70.9275L38.6692 71.5437C38.6832 71.559 38.6973 71.5744 38.7115 71.5898C38.6766 71.5579 38.6443 71.5234 38.6147 71.4864C38.561 71.4193 38.5235 71.3761 38.489 71.3416C38.4876 71.3401 38.48 71.3326 38.4723 71.3246C38.4643 71.3164 38.4478 71.2993 38.4287 71.277C38.4252 71.2728 38.4217 71.2687 38.4182 71.2644C38.4289 71.2757 38.44 71.2874 38.4515 71.2997L39.1155 70.6726L38.2986 71.0811C38.302 71.0879 38.3055 71.0946 38.309 71.1013C38.3405 71.1607 38.3772 71.2149 38.4182 71.2644C38.3658 71.2093 38.3232 71.1654 38.2837 71.1281C38.2778 71.1225 38.272 71.1168 38.2662 71.1111C37.2739 70.1223 36.1277 69.2841 34.8959 68.5239C34.8965 68.5243 34.8972 68.5247 34.8979 68.5251L35.3736 67.7456L34.8941 68.5228C34.8947 68.5232 34.8953 68.5235 34.8959 68.5239C34.0979 68.0369 33.284 67.5915 32.4534 67.2076L32.449 67.2055C32.0773 67.0313 31.6395 66.882 31.1257 66.7068C31.0576 66.6836 30.9882 66.6599 30.9174 66.6356C30.3409 66.4381 29.689 66.2067 29.096 65.8923C28.5001 65.5763 27.9036 65.1462 27.4798 64.5156C27.0437 63.8669 26.8395 63.0789 26.914 62.1469" fill="#FF9D71"/>
<g style="mix-blend-mode:multiply" opacity="0.8">
<path d="M3.72008 57.4832C4.96008 51.7232 9.28008 48.5632 15.2401 48.5632C21.4001 48.5632 24.0801 52.0832 23.3201 56.4832C22.6401 60.3232 19.9201 62.3632 17.7601 63.0432V63.2032C20.4801 64.1632 22.0801 66.4032 21.4001 70.2432C20.5201 75.1632 16.4401 78.6832 10.3201 78.6832C4.24008 78.6832 0.320083 75.8032 1.28008 69.2032H7.92008C7.56008 71.4832 8.52008 73.0032 11.0401 73.0032C13.1601 73.0032 14.6001 71.6432 14.9201 69.7232C15.3601 67.1232 13.9601 66.0832 10.4401 66.0832H9.16008L10.1601 60.5232H11.4401C13.7201 60.5232 16.0801 59.9632 16.5601 57.3232C16.8801 55.3632 15.9601 54.2832 14.0801 54.2832C11.8801 54.2832 10.8001 55.8832 10.3601 57.4832H3.72008Z" fill="url(#paint0_linear_144_2497)"/>
</g>
<defs>
<linearGradient id="paint0_linear_144_2497" x1="1.13574" y1="63.6232" x2="23.446" y2="63.6232" gradientUnits="userSpaceOnUse">
<stop stop-color="#961E27"/>
<stop offset="0.5" stop-color="#FA3B3B"/>
<stop offset="1" stop-color="#FF9D71"/>
</linearGradient>
</defs>
</svg>
