<svg width="161" height="49" viewBox="0 0 161 49" fill="none" xmlns="http://www.w3.org/2000/svg">
<g clip-path="url(#clip0_144_244)">
<g style="mix-blend-mode:luminosity" clip-path="url(#clip1_144_244)">
<g opacity="0.6">
<path d="M48.543 7.9152C48.9012 7.9152 49.2594 8.05849 49.6892 8.4167C50.1191 8.70326 50.4056 8.98983 50.7639 9.2764C51.4803 9.92117 51.6236 10.7092 51.1937 11.354C51.0504 11.6406 50.9071 11.7839 50.6922 11.7839C50.5489 11.7839 50.4056 11.7122 50.1907 11.6406C50.1191 11.5689 49.9758 11.5689 49.9042 11.5689C49.6892 11.5689 49.6176 11.7839 49.4743 11.8555C48.8295 12.5719 48.2564 13.36 47.6833 14.148C46.537 15.8674 45.3907 17.4436 44.3161 19.2346C41.6653 23.5331 39.2295 28.0465 37.0803 32.7033C36.7221 33.4913 36.2206 34.2077 36.0773 35.1391C37.0086 34.4227 37.7967 33.563 38.5131 32.7749C40.3042 30.6973 42.2385 28.6913 44.3161 26.8286C44.9609 26.1839 45.534 25.5391 46.1071 24.8227C46.4653 24.3928 46.8236 24.2495 47.2534 24.2495C47.4683 24.2495 47.7549 24.3212 48.0415 24.4645C49.9758 25.3242 50.4056 25.9689 49.5459 27.9033C49.2594 28.6197 48.8295 29.3361 48.4713 29.9809C47.3967 31.8436 46.2504 33.7779 45.1041 35.6406C44.6743 36.357 44.2444 37.1451 44.0295 38.0048C43.9579 38.148 43.8862 38.4346 43.8862 38.6495C43.8146 38.7928 43.9579 38.9361 44.0295 38.9361C44.1012 38.9361 44.1012 38.9361 44.1728 38.8645C44.3877 38.7928 44.6027 38.7212 44.7459 38.5779C46.2504 37.6465 47.6833 36.5003 49.1161 35.4257C49.8325 34.8525 50.4773 34.351 51.1937 33.7062C51.4086 33.4913 51.6236 33.2764 51.9101 33.2764C51.9818 33.2764 52.0534 33.2764 52.125 33.2764C52.34 33.2764 52.5549 33.348 52.6265 33.563C52.6982 33.7779 52.4833 33.9212 52.4116 34.0645C51.337 34.9958 50.334 36.1421 49.1877 37.0018C47.8982 38.0048 46.6086 39.0794 45.1758 39.9391C44.7459 40.154 44.3877 40.2257 43.9579 40.2257C43.6713 40.2257 43.3847 40.154 43.0982 40.0824C42.8116 40.0107 42.8116 40.0107 42.525 39.8674C41.8803 39.5809 41.3071 39.366 41.0922 38.6495C40.734 37.8615 40.6624 37.0018 40.8773 36.0704C41.3071 33.9928 42.3101 32.0585 43.4564 30.2674C43.6713 29.8376 44.0295 29.551 44.1728 29.0495C43.528 29.2645 43.0982 29.7659 42.6683 30.1958C40.6624 32.0585 38.943 34.2077 37.2236 36.2854C36.4355 37.2883 35.6474 38.4346 34.8594 39.4376C34.5728 39.8674 34.4295 40.0107 34.143 40.0107C33.9997 40.0107 33.7847 39.9391 33.4265 39.7958C33.0683 39.6525 32.7818 39.6525 32.4236 39.5092C31.7071 39.2943 31.3489 38.9361 31.2056 38.2913C31.134 37.7182 31.134 37.1451 31.2056 36.5719C31.4206 34.9958 31.8504 33.4197 32.3519 31.9152C33.3549 28.9779 34.7161 26.2555 36.2922 23.6048C38.2982 20.3092 40.3042 17.0137 42.525 13.9331C43.9579 11.9271 45.4624 10.1361 47.325 8.48834C47.8265 8.13013 48.1847 7.9152 48.543 7.9152ZM48.543 6.84058C47.7549 6.84058 47.1101 7.27043 46.6086 7.77192C44.8892 9.34804 43.2415 11.2107 41.6653 13.4316C39.3728 16.5839 37.3668 19.951 35.4325 23.1749C33.6415 26.3271 32.3519 28.9779 31.4206 31.7003C30.8474 33.4197 30.4176 34.9958 30.2027 36.5719C30.131 37.2167 30.131 37.8615 30.2027 38.5062V38.5779V38.6495C30.4892 39.9391 31.4206 40.3689 32.137 40.6555C32.3519 40.7271 32.5668 40.7988 32.7101 40.8704C32.8534 40.9421 32.9967 40.9421 33.14 41.0137C33.5698 41.157 33.8564 41.3003 34.2146 41.3003C35.0027 41.3003 35.4325 40.7988 35.7907 40.2973C36.2206 39.7242 36.6504 39.2227 37.0086 38.6495C37.3668 38.148 37.7967 37.6465 38.1549 37.1451L38.728 36.5003C39.3012 35.7839 39.9459 35.0674 40.5191 34.4227C40.3042 34.9958 40.1609 35.5689 40.0892 36.1421C39.8743 37.2883 39.9459 38.363 40.3758 39.2943C40.734 40.3689 41.5221 40.7271 42.2385 41.0137L42.3818 41.0854C42.5967 41.2286 42.74 41.2286 42.8833 41.3003L43.0265 41.3719C43.4564 41.5152 43.8862 41.5868 44.2445 41.5868C44.8176 41.5868 45.3191 41.4436 45.8922 41.157C46.8952 40.5839 47.8265 39.7958 48.6862 39.151C49.1161 38.7928 49.5459 38.5062 49.9758 38.148C50.7639 37.5033 51.4803 36.8585 52.1967 36.2137C52.5549 35.8555 52.9131 35.4973 53.343 35.1391L53.4146 35.0674L53.4862 34.9242C53.6295 34.7809 53.9877 34.2794 53.8444 33.563C53.7012 33.0615 53.2713 32.56 52.4116 32.4883C52.34 32.4883 52.1967 32.4883 52.125 32.4883C51.4086 32.4883 50.9071 32.9182 50.6206 33.2048C50.1907 33.6346 49.7609 33.9212 49.2594 34.351C49.0445 34.4943 48.8295 34.7092 48.6146 34.9242C47.6833 35.6406 46.7519 36.4286 45.8206 37.0734C45.8922 36.9301 45.9639 36.8585 46.0355 36.7152L46.1071 36.5003C47.1818 34.7092 48.328 32.8465 49.4743 30.8406C49.9042 30.1242 50.334 29.4077 50.6206 28.6197C51.7668 25.8973 50.6922 24.751 48.543 23.748C48.1131 23.5331 47.6833 23.4615 47.325 23.4615C46.6086 23.4615 45.9639 23.748 45.3907 24.3928C44.8892 25.0376 44.2444 25.6824 43.6713 26.2555C42.3101 27.4734 41.0206 28.763 39.6594 30.1958C41.3071 26.8286 43.2415 23.3898 45.3191 20.0227C46.0355 18.8048 46.8236 17.7301 47.6116 16.5122C47.9698 16.0107 48.328 15.5092 48.6862 14.9361C49.1877 14.2913 49.6892 13.6465 50.2624 13.0018C50.4056 13.0734 50.6206 13.0734 50.7639 13.0734C51.6236 13.0734 52.0534 12.357 52.1967 12.0704C52.8415 10.9242 52.6265 9.56296 51.4803 8.63162L51.4086 8.55998C51.0504 8.27341 50.6922 7.98684 50.334 7.70028C49.9042 7.19879 49.2594 6.84058 48.543 6.84058Z" fill="white"/>
<path d="M59.3606 23.1748C59.9338 23.1748 60.5785 23.3898 61.1517 23.748C61.7965 24.1778 62.3696 24.6077 62.8711 25.1808C63.5875 25.9689 63.9457 26.9719 63.4442 28.0465C62.7278 29.6226 61.9397 31.1987 60.7218 32.4166C59.7188 33.4196 58.5726 33.9928 57.1397 33.9928C57.0681 33.9928 56.9965 33.9928 56.9248 33.9928C56.2084 33.9928 55.6353 33.8495 55.0621 33.6346C54.9188 33.5629 54.7756 33.4913 54.7039 33.4913C54.5606 33.5629 54.5606 33.7062 54.4174 33.8495C53.9875 34.9957 53.7009 36.2137 53.9875 37.4316C54.2024 38.148 54.489 38.4345 55.2054 38.4345C55.2771 38.4345 55.3487 38.4345 55.4203 38.4345C56.0651 38.4345 56.7099 38.2913 57.3547 38.0763C59.7905 37.3599 62.1547 36.2853 64.3039 34.9241C64.8054 34.6375 65.2353 34.2077 65.7368 33.8495C65.88 33.7062 66.0233 33.5629 66.1666 33.4913C66.2383 33.4196 66.3099 33.4196 66.3815 33.4196C66.5248 33.4196 66.6681 33.4913 66.7397 33.6346C66.883 33.8495 66.8114 33.9928 66.6681 34.2077C66.2382 34.7092 65.4502 35.354 64.9487 35.7838C62.3696 37.5748 59.8621 38.6495 56.8532 39.5808C56.4233 39.6525 56.0651 39.7241 55.7785 39.7241C55.2054 39.7241 54.6323 39.5808 53.9875 39.2226C53.8442 39.151 53.7009 39.0793 53.5577 39.0077C52.0532 38.2913 51.48 37.2166 51.2651 35.7838C50.9785 34.2793 51.1935 32.8465 51.5517 31.4137C52.4114 28.4047 54.0591 26.0405 56.6382 24.2495C57.1397 23.9629 57.6412 23.6763 58.2144 23.5331C58.5726 23.2465 59.0024 23.1748 59.3606 23.1748ZM60.6502 26.9002C58.8591 27.1868 55.5636 30.9122 55.2054 32.5599C55.3487 32.6316 55.4203 32.6316 55.5636 32.6316C55.7069 32.6316 55.8502 32.5599 55.9935 32.4883C56.4233 32.345 56.7815 31.9868 57.0681 31.7002C58.3577 30.4823 59.3606 29.1211 60.2203 27.6883C60.3636 27.4734 60.5786 27.2584 60.6502 26.9002ZM59.3606 22.1002C58.8591 22.1002 58.3577 22.1719 57.7845 22.3868C57.1397 22.6017 56.5666 22.8883 56.0651 23.1748H55.9935L55.9218 23.2465C53.1278 25.1092 51.3368 27.6883 50.3338 30.9838C50.0472 32.2734 49.689 34.0644 50.0472 35.7838C50.3338 37.6465 51.2651 38.936 52.9129 39.7241C53.0562 39.7957 53.1994 39.8674 53.3427 39.939C54.2024 40.3689 54.9188 40.5838 55.7069 40.5838C56.1368 40.5838 56.5666 40.5122 57.0681 40.3689C60.3636 39.3659 62.9427 38.148 65.4502 36.4286C66.095 35.9987 66.9547 35.2823 67.4562 34.6375C68.1009 33.7778 67.8144 33.1331 67.5278 32.7748L67.5994 32.9181L67.5278 32.8465C67.098 32.4166 66.6681 32.345 66.3815 32.345C66.1666 32.345 65.9517 32.4166 65.7368 32.4883C65.3786 32.6316 65.092 32.8465 64.9487 33.0614C64.5189 33.4196 64.1606 33.7778 63.7308 33.9928C61.7248 35.2823 59.5756 36.2853 57.0681 37.0734C56.5666 37.2166 55.9218 37.3599 55.4203 37.3599H55.3487C55.2771 37.3599 55.2054 37.3599 55.2054 37.3599C55.1338 37.3599 55.1338 37.3599 55.1338 37.3599C55.1338 37.3599 55.1338 37.2883 55.0621 37.2166C54.9188 36.4286 54.9905 35.5689 55.2054 34.8525C55.7785 34.9957 56.3517 35.0674 56.9248 35.0674C56.9965 35.0674 57.0681 35.0674 57.1397 35.0674C58.7875 35.0674 60.1487 34.4226 61.4383 33.1331C62.5845 31.9151 63.5159 30.4107 64.3756 28.4047C64.8054 27.4734 65.0203 26.0405 63.6591 24.3928C63.086 23.748 62.4412 23.2465 61.7248 22.745C60.9368 22.3868 60.2203 22.1002 59.3606 22.1002Z" fill="white"/>
<path d="M60.0055 2.61369C61.295 2.61369 62.5846 2.68533 63.8025 2.75697C64.8055 2.82861 65.8801 2.90026 66.8115 3.18682C67.8861 3.54503 68.4592 4.26145 68.6025 5.33608C68.8891 6.48235 68.3159 7.19876 67.5279 7.91518C67.3846 8.05847 67.3129 8.13011 67.1697 8.13011C67.0264 8.13011 66.8831 7.98682 66.8115 7.70026C66.7398 7.41369 66.7398 7.27041 66.6682 7.05548C66.5965 6.69727 66.5965 6.4107 66.8115 6.0525C67.0264 5.62264 66.9547 5.62264 66.5249 5.47936C65.8801 5.40772 65.307 5.33608 64.6622 5.33608C64.0174 5.26444 63.301 5.26444 62.6562 5.26444C60.507 5.26444 58.501 5.47936 56.2801 5.62264C55.2055 5.76593 53.5577 5.90921 52.7697 5.98085C50.6204 6.26742 48.4712 6.4107 46.3219 6.62563C45.3189 6.76891 44.2443 6.9122 43.1697 7.05548C42.8831 7.12712 42.6682 7.12712 42.5249 7.41369C41.7368 8.98981 40.8771 10.1361 39.6592 11.8555C39.1577 12.5719 36.1488 17.0137 35.9338 17.3719C33.0682 21.8853 30.1309 26.6853 27.4801 31.7719C25.5458 35.4256 22.6085 40.2973 20.8891 44.0943C20.6025 44.6674 20.3876 45.0973 20.2443 45.5988C20.0294 46.1003 20.0294 46.4585 20.1726 46.6734C20.3876 47.0316 20.1726 47.3898 19.6712 47.3898C19.5995 47.3898 19.5279 47.3898 19.5279 47.3898C19.0264 47.3182 18.5965 47.2465 18.0234 47.1032C17.5935 46.96 17.3786 46.6734 17.307 46.2435C17.307 45.8137 17.3786 45.3122 17.5219 44.8107C17.8085 44.0226 18.095 42.948 18.4532 42.0167C24.1846 27.0435 32.2085 13.9331 36.7935 8.20175C32.1368 8.91817 27.5518 9.27638 22.8234 9.56294L19.9577 9.70623C18.9547 9.70623 17.8801 9.77787 16.8771 9.77787C16.0891 9.77787 15.301 9.77787 14.5846 9.70623C13.6532 9.63458 12.4353 9.63458 11.7906 8.84653C11.6473 8.41667 11.0025 7.62861 11.0025 7.19876C11.0741 6.76891 11.3607 6.55399 11.7189 6.4107C12.3637 6.12414 13.0085 5.98085 13.7249 5.98085C14.9428 5.98085 16.1607 6.12414 17.4503 6.48235C17.7368 6.55399 18.0234 6.62563 18.3816 6.62563C18.5249 6.62563 18.5965 6.62563 18.7398 6.62563C21.9637 6.33906 25.2592 5.90921 28.4831 5.40772C29.9876 5.19279 31.4921 4.97787 32.9965 4.83458C37.2234 4.26145 41.3786 3.68832 45.6055 3.40175C47.898 3.25847 50.1906 2.9719 52.4115 2.90026C54.8473 2.75697 57.4264 2.61369 60.0055 2.61369ZM60.0055 1.53906C57.4264 1.53906 54.7756 1.68235 52.1965 1.82563C51.0503 1.89727 49.904 1.96891 48.7577 2.1122C47.6115 2.18384 46.4652 2.25548 45.3906 2.32712C41.2353 2.61369 37.0801 3.18682 33.0682 3.68832L32.71 3.75996L32.3517 3.8316C30.9906 3.97488 29.5577 4.11817 28.1965 4.33309C24.3279 4.97787 21.3189 5.33608 18.5249 5.551C18.4532 5.551 18.3816 5.551 18.31 5.551C18.095 5.551 17.9517 5.551 17.7368 5.47936C16.5189 5.12115 15.301 4.90623 13.7249 4.90623C12.8652 4.90623 12.0055 5.04951 11.2891 5.40772C10.5726 5.76593 10.1428 6.33906 9.99951 6.98384V7.05548V7.19876C9.99951 7.7719 10.2861 8.34503 11.0025 9.34802C11.8622 10.4943 13.3667 10.6376 14.3697 10.6376H14.5129C15.2294 10.7092 15.9458 10.7092 16.8771 10.7092C17.3786 10.7092 17.9517 10.7092 18.4532 10.7092C18.9547 10.7092 19.4562 10.7092 19.9577 10.7092L22.8234 10.5659C26.3338 10.351 30.2741 10.0644 34.2861 9.56294C29.2712 16.5122 22.3219 28.6913 17.5219 41.5868C17.2353 42.3032 16.9488 43.1629 16.7338 43.8794C16.6622 44.0943 16.5906 44.2376 16.5906 44.4525C16.3756 45.0973 16.3756 45.6704 16.3756 46.1719V46.2435V46.3152C16.4473 47.1749 16.9488 47.8913 17.8801 48.1062C18.4532 48.2495 18.9547 48.3928 19.5279 48.4644C19.6712 48.4644 19.7428 48.4644 19.8144 48.4644C20.4592 48.4644 20.9607 48.1779 21.2473 47.748C21.5338 47.3182 21.5338 46.745 21.3189 46.2435C21.3189 46.1719 21.3189 46.1003 21.3906 45.957L21.4622 45.742C21.6055 45.3838 21.7488 44.954 22.0353 44.5241C23.1816 42.0167 24.8294 39.0794 26.4055 36.2853C27.1935 34.8525 27.9816 33.4913 28.6264 32.2734C30.9189 27.9749 33.498 23.5331 37.0801 17.945C37.295 17.5868 40.2323 13.2167 40.7338 12.5003L40.8055 12.4286C41.9517 10.8525 42.7398 9.70623 43.5279 8.20175C44.4592 8.05847 45.5338 7.84354 46.5368 7.7719C47.3965 7.70026 48.2562 7.62861 49.0443 7.55697C50.4055 7.34205 51.695 7.19876 52.9846 7.05548C53.4144 6.98384 54.1309 6.9122 54.9189 6.84056C55.4921 6.76891 55.9935 6.69727 56.495 6.69727L57.0682 6.62563C59.0025 6.48235 60.8652 6.33906 62.7995 6.33906C63.4443 6.33906 64.0891 6.33906 64.7338 6.4107C65.0204 6.4107 65.307 6.4107 65.5935 6.48235C65.5935 6.76891 65.5935 7.05548 65.6652 7.34205C65.6652 7.41369 65.6652 7.48533 65.7368 7.55697C65.7368 7.70026 65.8085 7.84354 65.8801 7.98682C66.095 8.84653 66.7398 9.20473 67.2413 9.20473C67.5279 9.20473 67.8861 9.13309 68.3159 8.70324C68.8891 8.20175 70.107 7.05548 69.6771 5.19279C69.4622 3.68832 68.5309 2.61369 67.098 2.18384C66.1667 1.89727 65.1637 1.75399 63.8025 1.68235C62.6562 1.53906 61.3667 1.53906 60.0055 1.53906Z" fill="white"/>
</g>
<path d="M90.7396 27.1152C90.7396 18.2316 80.5664 18.0167 80.5664 13.2167C80.5664 11.0674 82.2142 9.20472 86.4411 9.20472C88.0172 9.20472 89.9515 9.56293 91.5993 10.1361L93.1038 2.68532C91.0261 2.32711 88.9485 2.11218 86.656 2.11218C76.4829 2.11218 71.5396 8.05845 71.5396 15.151C71.5396 23.9629 81.7127 23.8196 81.7127 28.548C81.7127 31.342 79.5635 32.8465 75.4799 32.8465C73.5456 32.8465 71.5396 32.4167 69.7485 31.8435V39.939C71.3247 40.154 73.1873 40.2973 74.9784 40.2973C84.2202 40.4405 90.7396 34.4943 90.7396 27.1152Z" fill="black" fill-opacity="0.4"/>
<path d="M107.791 20.2376H102.417L100.483 30.6257C99.9816 33.0615 100.411 33.7779 102.202 33.7779C103.349 33.7779 104.28 33.6346 105.211 33.4197L104.423 39.5809C102.561 40.0107 100.483 40.2973 98.907 40.2973C93.2473 40.2973 91.5279 37.6466 92.7458 31.2704L94.8234 20.2376H91.0264L92.2443 14.2197H95.9697L96.7577 10.0645L104.71 8.20178L103.564 14.2197H109.008L107.791 20.2376Z" fill="black" fill-opacity="0.4"/>
<path d="M121.832 19.8077C117.032 19.8077 114.525 26.0405 114.525 30.7689C114.525 32.7032 114.954 33.5629 116.029 33.5629C118.895 33.5629 123.05 26.3271 123.981 21.4554L124.268 20.0942C123.551 19.951 122.835 19.8077 121.832 19.8077ZM128.28 39.7957H120.757C121.187 37.9331 121.832 35.8554 122.835 33.1331H122.763C120.542 36.8584 117.247 40.3689 112.805 40.3689C108.722 40.3689 106.572 37.7181 106.572 32.2733C106.572 22.4584 111.945 13.6465 123.265 13.6465C126.417 13.6465 129.856 13.9331 133.008 14.5062C131.074 24.3928 129.426 32.9898 128.28 39.7957Z" fill="black" fill-opacity="0.4"/>
<path d="M148.34 21.2405C145.187 20.0942 140.817 24.8226 139.098 34.4226L138.095 39.7957H130.357L132.937 26.3987C133.581 23.2465 134.656 17.3002 135.086 14.2196H142.465C142.107 16.0106 141.534 18.0166 140.531 20.8106H140.602C143.181 15.939 145.76 13.0733 149.844 13.6465L148.34 21.2405Z" fill="black" fill-opacity="0.4"/>
<path d="M44.3158 29.1927C43.671 29.4076 43.2412 29.9091 42.8113 30.339C40.8054 32.2016 39.086 34.3509 37.3666 36.4285C36.5785 37.4315 35.7904 38.5778 35.0024 39.5807C34.5009 40.2255 34.4293 40.2255 33.5695 39.939C33.2113 39.7957 32.9248 39.7957 32.5666 39.6524C31.8501 39.4375 31.4919 39.0793 31.3487 38.4345C31.277 37.8613 31.277 37.2882 31.3487 36.7151C31.5636 35.139 31.9934 33.5628 32.4949 32.0584C33.4979 29.121 34.8591 26.3987 36.4352 23.7479C38.4412 20.4524 40.4472 17.1569 42.6681 14.0763C44.1009 12.0703 45.6054 10.2793 47.4681 8.63149C48.3994 7.84343 48.9009 7.77179 49.8322 8.48821C50.2621 8.77478 50.5487 9.06134 50.9069 9.34791C51.6233 9.99269 51.7666 10.7807 51.3367 11.4255C51.0501 11.927 50.9069 11.9987 50.4054 11.7121C49.9755 11.4972 49.9039 11.7837 49.689 11.927C49.0442 12.6434 48.471 13.4315 47.8979 14.2196C46.7516 15.939 45.6054 17.5151 44.5307 19.3061C41.88 23.6046 39.4442 28.1181 37.2949 32.7748C36.9367 33.5628 36.4352 34.2793 36.2919 35.2106C37.2233 34.4942 38.0113 33.6345 38.7278 32.8464C40.5188 30.7688 42.4531 28.7628 44.5307 26.9002C45.1755 26.2554 45.7487 25.6106 46.3218 24.8942C46.8949 24.2494 47.4681 24.1778 48.2561 24.4643C50.1904 25.324 50.6203 25.9688 49.7606 27.9031C49.474 28.6196 49.0442 29.336 48.686 29.9807C47.6113 31.8434 46.4651 33.7778 45.3188 35.6404C44.889 36.3569 44.4591 37.1449 44.2442 38.0046C44.1725 38.1479 44.1009 38.4345 44.1009 38.6494C44.0293 38.8643 44.2442 39.0076 44.4591 38.8643C44.674 38.7927 44.889 38.721 45.0322 38.5778C46.5367 37.6464 47.9695 36.5002 49.4024 35.4255C50.1188 34.8524 50.7636 34.3509 51.48 33.7061C51.6949 33.4912 51.9815 33.2046 52.4113 33.2763C52.6263 33.2763 52.8412 33.3479 52.9128 33.5628C52.9845 33.7778 52.7696 33.921 52.6979 34.0643C51.6233 34.9957 50.6203 36.1419 49.474 37.0016C48.1845 38.0046 46.8949 39.0793 45.4621 39.939C44.7457 40.2972 44.1725 40.3688 43.3845 40.0822C43.0979 40.0106 43.0979 40.0106 42.8113 39.8673C42.1666 39.5807 41.5934 39.3658 41.3785 38.6494C41.0203 37.8613 40.9487 37.0016 41.1636 36.0703C41.5934 33.9927 42.5964 32.0584 43.7427 30.2673C43.886 30.0524 44.2442 29.6942 44.3158 29.1927Z" fill="black" fill-opacity="0.6"/>
<path d="M56.9963 33.9928C56.2799 33.9928 55.7068 33.8495 55.1336 33.6345C54.9187 33.5629 54.7754 33.4196 54.7038 33.4913C54.5605 33.5629 54.5605 33.7062 54.4172 33.8495C53.9874 34.9957 53.7008 36.2136 53.9874 37.4316C54.2023 38.2196 54.5605 38.4345 55.4202 38.3629C56.065 38.3629 56.7098 38.2196 57.3545 38.0047C59.7904 37.2883 62.1545 36.2136 64.3038 34.8524C64.8053 34.5659 65.2351 34.136 65.7366 33.7778C65.8799 33.6345 66.0232 33.4913 66.1665 33.4196C66.3814 33.2763 66.5963 33.348 66.7396 33.5629C66.8829 33.7778 66.8112 33.9211 66.668 34.136C66.2381 34.6375 65.4501 35.2823 64.9486 35.7122C62.3695 37.5032 59.862 38.5778 56.853 39.5092C55.7784 39.7957 55.062 39.7241 53.9157 39.151C53.7724 39.0793 53.6292 39.0077 53.4859 38.936C51.9814 38.2196 51.4083 37.145 51.1933 35.7122C50.9068 34.2077 51.1217 32.7748 51.4799 31.342C52.3396 28.333 53.9874 25.9689 56.5665 24.1778C57.068 23.8913 57.5695 23.6047 58.1426 23.4614C59.2172 23.0316 60.1486 23.1748 61.1516 23.8196C61.7963 24.2495 62.3695 24.6793 62.871 25.2525C63.5874 26.0405 63.9456 27.0435 63.4441 28.1181C62.7277 29.6942 61.9396 31.2704 60.7217 32.4883C59.6471 33.4913 58.4292 34.0644 56.9963 33.9928ZM55.1336 32.5599C55.4202 32.7032 55.5635 32.7032 55.9217 32.5599C56.3515 32.4166 56.7098 32.0584 56.9963 31.7719C58.2859 30.5539 59.2889 29.1927 60.1486 27.7599C60.2918 27.545 60.5068 27.3301 60.5784 26.9719C58.7874 27.1868 55.5635 30.9122 55.1336 32.5599Z" fill="black" fill-opacity="0.6"/>
<path d="M18.5965 42.0166C24.1845 27.0435 32.2084 13.933 36.7935 8.20169C32.1368 8.91811 27.5517 9.27632 22.8233 9.56288L19.9577 9.70617C18.1666 9.70617 16.3039 9.84945 14.5845 9.63453C13.6532 9.56288 12.4353 9.56288 11.7905 8.77482C11.6472 8.41662 11.0024 7.62855 11.0024 7.1987C11.0741 6.76885 11.3607 6.55393 11.7189 6.41064C12.3636 6.12408 13.0084 5.98079 13.7248 5.98079C14.9427 5.98079 16.1607 6.12408 17.4502 6.48229C17.8801 6.62557 18.2383 6.62557 18.6681 6.62557C21.892 6.339 25.1875 5.90915 28.4114 5.40766C29.9159 5.19273 31.4204 4.97781 32.9248 4.83452C37.1517 4.26139 41.3069 3.68826 45.5338 3.40169C47.8263 3.25841 50.1189 2.97184 52.3398 2.9002C56.1368 2.68527 60.0054 2.3987 63.8024 2.68527C64.8054 2.75691 65.8801 2.82855 66.8114 3.11512C67.886 3.47333 68.4592 4.18975 68.6024 5.26438C68.889 6.48229 68.3159 7.1987 67.5278 7.91512C67.1696 8.27333 66.9547 8.05841 66.8114 7.7002C66.7398 7.41363 66.7398 7.27035 66.6681 7.05542C66.5965 6.69721 66.5965 6.41064 66.8114 6.05244C67.0263 5.62258 66.9547 5.62258 66.5248 5.4793C65.8801 5.40766 65.3069 5.33602 64.6621 5.33602C61.7965 5.19273 59.1457 5.40766 56.2801 5.62258C55.2054 5.76587 53.5577 5.90915 52.7696 5.98079C50.6204 6.26736 48.4711 6.41064 46.3218 6.62557C45.3189 6.76885 44.2442 6.91214 43.1696 7.05542C42.883 7.12706 42.6681 7.12706 42.5248 7.41363C41.7368 8.98975 40.8771 10.136 39.6592 11.8554C39.1577 12.5718 36.1487 17.0136 35.9338 17.3718C33.0681 21.8853 30.1308 26.6853 27.4801 31.7718C25.5457 35.4256 22.6084 40.2972 20.889 44.0942C20.6024 44.6674 20.3875 45.0972 20.2442 45.5987C20.0293 46.1002 20.0293 46.4584 20.1726 46.6733C20.3875 47.1032 20.1726 47.4614 19.5278 47.3897C19.0263 47.3181 18.5965 47.2465 18.0233 47.1032C17.5935 46.9599 17.3786 46.6733 17.3069 46.2435C17.3069 45.8136 17.3786 45.3121 17.5218 44.8106C17.8801 43.9509 18.1666 42.8763 18.5965 42.0166Z" fill="black" fill-opacity="0.6"/>
</g>
</g>
<defs>
<clipPath id="clip0_144_244">
<rect width="160" height="48" fill="white" transform="translate(0.494629 0.750977)"/>
</clipPath>
<clipPath id="clip1_144_244">
<rect width="143.284" height="48" fill="white" transform="translate(8.85303 0.750977)"/>
</clipPath>
</defs>
</svg>
