<svg width="161" height="49" viewBox="0 0 161 49" fill="none" xmlns="http://www.w3.org/2000/svg">
<g clip-path="url(#clip0_144_279)">
<g style="mix-blend-mode:luminosity">
<path d="M152.926 41.3552L153.296 42.565H152.556L152.916 41.3552M153.696 44.1647H154.696L153.486 40.1654H152.356L151.136 44.1647H152.136L152.366 43.3348H153.466L153.696 44.1647ZM143.788 40.2354H142.868V44.1647H143.788V40.2354ZM133.87 44.2346C134.719 44.2346 135.389 43.8547 135.389 42.9849C135.389 42.305 134.909 41.9851 134.21 41.8051C133.71 41.6851 133.37 41.6051 133.37 41.3352C133.37 41.0652 133.55 41.0053 133.87 41.0053C134.278 41.0143 134.684 41.0713 135.079 41.1752L135.279 40.4154C134.824 40.2662 134.348 40.1919 133.87 40.1954C133.07 40.1954 132.41 40.5053 132.41 41.3152C132.41 42.125 132.85 42.315 133.55 42.565C134.03 42.7049 134.43 42.7549 134.43 43.0649C134.43 43.3748 134.19 43.4148 133.87 43.4148C133.411 43.4087 132.955 43.3517 132.51 43.2448L132.35 44.0047C132.842 44.1569 133.354 44.2345 133.87 44.2346ZM123.562 41.8651L122.892 40.2454H121.892L123.132 42.7849V44.1747H124.041V42.7449L125.281 40.2054H124.281L123.602 41.8251L123.562 41.8651ZM113.493 41.3652L113.863 42.575H113.123L113.483 41.3652H113.493ZM114.273 44.1747H115.273L114.053 40.1754H112.934L111.714 44.1747H112.714L112.944 43.3448H114.053L114.273 44.1747ZM101.706 40.2454V44.1747H104.405V43.3548H102.615V40.2454H101.706ZM92.5274 41.3652L92.8973 42.575H92.1574L92.5174 41.3652H92.5274ZM93.3072 44.1747H94.307L93.0872 40.1754H91.9575L90.7377 44.1747H91.7375L91.9675 43.3448H93.0772L93.3072 44.1747ZM80.5296 40.2454H79.3198V44.1747H80.2197V41.8851L80.9995 44.1747H81.6594L82.4692 41.8851V44.1747H83.3891V40.2454H82.1793L81.3994 42.6449L80.5296 40.2454Z" fill="#404040" fill-opacity="0.8"/>
<path d="M112.604 7.97129H113.933H113.474V6.97148L114.143 5.55175L114.473 5.44177H113.634L114.083 5.56174L113.474 6.81151L112.664 5.37178H112.964H111.964H112.114L112.984 6.93149V7.9313H112.554M108.185 7.9313H110.254L110.384 7.17144L109.994 7.89131H109.124V5.37178H109.544H108.225H108.644V7.9213H108.225L108.185 7.9313ZM105.535 7.9313H106.315H106.085L104.925 6.39159L105.675 5.50176L106.195 5.37178H105.195L105.575 5.50176L104.575 6.70153V6.75152L105.535 7.9313ZM103.605 7.9313H104.925H104.505V5.37178H104.925H103.605H104.015V7.9213H103.605V7.9313ZM101.376 6.65154V6.57156H100.376V5.36178H101.236L101.496 5.96167V5.31179H99.4762H99.8961V7.86131H99.4762H101.546L101.636 7.19144L101.276 7.83132H100.406V6.63154L101.376 6.65154ZM97.2266 6.65154V6.57156H96.2268V5.36178H97.0866L97.3466 5.96167V5.31179H95.277H95.6969V7.86131H95.277H97.4766L97.5666 7.19144L97.2066 7.83132H96.3368V6.63154L97.2266 6.65154ZM90.4779 7.97129H90.7478L91.4277 5.72172L92.1076 7.97129H92.3875L93.1974 5.50176L93.4973 5.36178H92.6575L93.1474 5.51176L92.4675 7.51138L91.7776 5.2718H91.4777L90.8078 7.50138L90.1879 5.33179H90.5779H89.4781H89.678L90.4779 7.97129ZM83.2792 7.97129H84.609H84.1791V5.36178H84.709L85.0089 6.00166H85.0589V5.31179H82.8293V6.00166L83.1093 5.36178H83.6492V7.9213H83.2292L83.2792 7.97129ZM78.1902 7.97129H79.12V7.91131L78.6101 7.75133V5.75171L80.3998 8.00129H80.5298V5.50176L80.9197 5.36178V5.3018H79.9998V5.36178L80.4898 5.51176V7.31141L78.8601 5.31179H78.1602L78.5601 5.40178V7.75133L78.1502 7.88131L78.1902 7.97129ZM75.9006 6.65154V6.57156H74.9008V5.36178H75.7606L76.0206 5.96167H76.0706V5.31179H74.031H74.4809V7.86131H74.061H76.1406L76.2206 7.19144L75.8606 7.83132H74.9908V6.63154L75.9006 6.65154ZM70.9016 7.97129H72.1413H71.7714L71.4814 5.40178H71.8914H71.1415L70.3617 7.62136L69.4818 5.31179H68.682L69.1019 5.38178L68.8519 7.75133L68.442 7.91131H69.4418L68.9019 7.75133L69.0919 5.75171L70.0917 8.00129H70.2817L71.0315 5.75171L71.2215 7.89131H70.8516L70.9016 7.97129ZM64.9027 7.97129H66.2324H65.8125V5.36178H66.3424L66.6424 6.00166V5.31179H64.3828V6.00166L64.6627 5.36178H65.2026V7.9213H64.7827L64.9027 7.97129ZM62.3632 6.09164V5.44177C62.1227 5.32762 61.8595 5.2695 61.5933 5.2718C61.4798 5.26083 61.3652 5.27311 61.2566 5.30787C61.1479 5.34263 61.0475 5.39916 60.9615 5.474C60.8754 5.54884 60.8055 5.64043 60.7559 5.74318C60.7064 5.84593 60.6784 5.9577 60.6735 6.07165C60.6735 6.51157 61.0134 6.68154 61.3433 6.82151C61.6733 6.96148 62.0232 7.05147 62.0232 7.47139C62.0252 7.54063 62.0122 7.60947 61.985 7.6732C61.9579 7.73693 61.9173 7.79403 61.866 7.84057C61.8147 7.88712 61.7539 7.92201 61.6879 7.94285C61.6218 7.96369 61.552 7.96998 61.4833 7.96129C61.3027 7.96585 61.1238 7.92458 60.9634 7.84131L60.6735 7.16145V7.85131C60.9277 7.95427 61.199 8.00854 61.4733 8.01129C62.0032 8.01129 62.4731 7.78133 62.4731 7.23144C62.4731 6.68154 62.0432 6.54156 61.6433 6.40159C61.2434 6.26162 61.0834 6.14164 61.0834 5.8317C61.0834 5.52175 61.2734 5.32179 61.6333 5.32179L62.0432 5.43177L62.3632 6.09164ZM58.3639 6.65154V6.57156H57.3641V5.36178H58.2239L58.4939 5.96167V5.31179H56.4843H56.9042V7.86131H56.4843H58.4839L58.5739 7.19144L58.2139 7.83132H57.3441V6.63154L58.3639 6.65154ZM53.1349 7.97129H53.4148L54.3147 5.47176L54.6146 5.35178H53.7548L54.2747 5.48176L53.4848 7.57137L52.705 5.37178H53.0749H51.9751H52.1851L53.1349 7.97129ZM47.386 7.97129H48.3158V7.91131L47.7759 7.75133V5.75171L49.5656 8.00129H49.6955V5.50176L50.0855 5.36178V5.3018H49.1656V5.36178L49.6555 5.51176V7.31141L48.0358 5.31179H47.326L47.7259 5.40178V7.75133L47.326 7.88131L47.386 7.97129ZM44.0366 7.97129H45.3663H44.9364V5.36178H45.3663H43.9766H44.3965V7.9213H43.9766L44.0366 7.97129ZM37.0379 5.76171C37.0352 5.70574 37.0438 5.64979 37.063 5.59717C37.0823 5.54456 37.1119 5.49633 37.1501 5.45533C37.1883 5.41434 37.2343 5.3814 37.2855 5.35847C37.3366 5.33553 37.3918 5.32306 37.4478 5.32179C37.6778 5.32179 37.7778 5.57175 37.7778 5.87169C37.7808 6.00062 37.7466 6.1277 37.6792 6.23766C37.6118 6.34762 37.5141 6.43578 37.3978 6.49157C37.2864 6.40516 37.1961 6.29455 37.1338 6.16811C37.0714 6.04166 37.0386 5.90269 37.0379 5.76171ZM37.3878 7.06146C37.6209 7.2714 37.8681 7.46516 38.1277 7.64135C37.9199 7.82499 37.6549 7.93098 37.3778 7.9413C37.0179 7.9413 36.7779 7.55137 36.7779 7.20143C36.7685 7.00543 36.8248 6.81187 36.9379 6.65154L37.3878 7.06146ZM39.3375 7.90131C39.1675 7.81133 38.8476 7.60136 38.4976 7.36141C38.6878 7.10287 38.8362 6.81611 38.9375 6.51157L39.2675 6.40159H38.3876L38.8776 6.51157C38.7867 6.80735 38.6446 7.08486 38.4576 7.33142C38.2077 7.15145 37.9477 6.95149 37.7178 6.76152L37.4378 6.53156C37.9077 6.41158 38.2177 6.14164 38.2177 5.86169C38.2177 5.58174 37.9477 5.2718 37.4578 5.2718C37.3559 5.26077 37.2527 5.27023 37.1545 5.29962C37.0562 5.329 36.9648 5.37772 36.8856 5.44291C36.8065 5.50811 36.7411 5.58847 36.6934 5.67927C36.6458 5.77007 36.6167 5.86948 36.608 5.97167C36.6243 6.21789 36.7312 6.44936 36.9079 6.62155C36.528 6.80818 36.338 7.04813 36.338 7.34141C36.338 7.76133 36.678 8.01129 37.2479 8.01129C37.5888 8.01688 37.921 7.90378 38.1877 7.69135C38.3388 7.79365 38.4957 7.88712 38.6576 7.97129H39.3375V7.90131ZM31.4289 6.09164V5.44177C31.1846 5.32873 30.9184 5.2707 30.6491 5.2718C30.5356 5.26083 30.421 5.27311 30.3124 5.30787C30.2037 5.34263 30.1033 5.39916 30.0172 5.474C29.9312 5.54884 29.8613 5.64043 29.8117 5.74318C29.7622 5.84593 29.7342 5.9577 29.7293 6.07165C29.7293 6.51157 30.0692 6.68154 30.3991 6.82151C30.7291 6.96148 31.079 7.05147 31.079 7.47139C31.081 7.54063 31.068 7.60947 31.0408 7.6732C31.0137 7.73693 30.9731 7.79403 30.9218 7.84057C30.8705 7.88712 30.8097 7.92201 30.7437 7.94285C30.6776 7.96369 30.6078 7.96998 30.5391 7.96129C30.3615 7.96733 30.1855 7.92591 30.0292 7.84131L29.7293 7.16145V7.85131C29.9835 7.95427 30.2548 8.00854 30.5291 8.01129C31.069 8.01129 31.5289 7.78133 31.5289 7.23144C31.5289 6.68154 31.089 6.54156 30.6991 6.40159C30.3092 6.26162 30.1292 6.14164 30.1292 5.8317C30.1292 5.52175 30.3292 5.32179 30.6791 5.32179L31.089 5.43177L31.4289 6.09164ZM27.5497 6.09164H27.5997V5.44177C27.3553 5.32873 27.0891 5.2707 26.8198 5.2718C26.7071 5.26226 26.5936 5.2756 26.4861 5.31102C26.3787 5.34644 26.2795 5.40319 26.1945 5.4779C26.1095 5.5526 26.0405 5.6437 25.9916 5.74573C25.9427 5.84776 25.915 5.95862 25.91 6.07165C25.91 6.51157 26.2399 6.68154 26.5699 6.82151C26.8998 6.96148 27.2597 7.05147 27.2597 7.47139C27.2603 7.5411 27.2459 7.61012 27.2176 7.67383C27.1893 7.73755 27.1478 7.7945 27.0957 7.84087C27.0437 7.88724 26.9823 7.92198 26.9158 7.94274C26.8492 7.96351 26.779 7.96983 26.7098 7.96129C26.5322 7.96733 26.3562 7.92591 26.1999 7.84131L25.91 7.16145V7.85131C26.1646 7.95315 26.4357 8.00738 26.7098 8.01129C27.2497 8.01129 27.7596 7.78133 27.7596 7.23144C27.7596 6.68154 27.3197 6.54156 26.9298 6.40159C26.5399 6.26162 26.3599 6.14164 26.3599 5.8317C26.3599 5.52175 26.5499 5.32179 26.9098 5.32179L27.3197 5.43177L27.5497 6.09164ZM23.5504 6.65154V6.57156H22.5506V5.36178H23.4904L23.7504 5.96167V5.31179H21.6708H22.0907V7.86131H21.6708H23.7504L23.8404 7.19144L23.4904 7.83132H22.6106V6.63154L23.5504 6.65154ZM16.9717 7.97129H17.9015V7.91131L17.4216 7.75133V5.75171L19.2112 8.00129H19.3412V5.50176L19.7311 5.36178V5.3018H18.8113V5.36178L19.3012 5.51176V7.31141L17.6815 5.31179H16.9717L17.3716 5.40178V7.75133L16.9717 7.88131V7.97129ZM13.6223 7.97129H14.942H14.4921V5.36178H14.912H13.6223H14.0422V7.9213H13.6223V7.97129ZM11.4027 6.09164H11.4927V5.44177C11.2487 5.32746 10.9822 5.26937 10.7128 5.2718C10.6001 5.26226 10.4866 5.2756 10.3791 5.31102C10.2717 5.34644 10.1725 5.40319 10.0875 5.4779C10.0025 5.5526 9.93354 5.6437 9.88465 5.74573C9.83576 5.84776 9.80799 5.95862 9.803 6.07165C9.803 6.51157 10.1429 6.68154 10.4729 6.82151C10.8028 6.96148 11.1527 7.05147 11.1527 7.47139C11.1533 7.5411 11.1389 7.61012 11.1106 7.67383C11.0823 7.73755 11.0408 7.7945 10.9887 7.84087C10.9367 7.88724 10.8753 7.92198 10.8088 7.94274C10.7423 7.96351 10.672 7.96983 10.6029 7.96129C10.4252 7.96733 10.2492 7.92591 10.0929 7.84131L9.793 7.16145V7.85131C10.0508 7.95414 10.3253 8.00838 10.6029 8.01129C11.1328 8.01129 11.6027 7.78133 11.6027 7.23144C11.6027 6.68154 11.1627 6.54156 10.7728 6.40159C10.3829 6.26162 10.2029 6.14164 10.2029 5.8317C10.2029 5.52175 10.4029 5.32179 10.7528 5.32179L11.1727 5.43177L11.4027 6.09164ZM6.40364 8.01129C6.88355 8.01129 7.33346 7.73134 7.33346 6.94149V5.48176L7.72339 5.36178H6.72358L7.24348 5.48176V6.93149C7.24348 7.55137 6.93354 7.9313 6.42363 7.9313C5.91373 7.9313 5.72376 7.70134 5.72376 7.02147V5.37178H6.12369H4.92392H5.27385V7.08146C5.27385 7.79133 5.78375 8.01129 6.41364 8.01129M1.68452 5.36178C1.76942 5.35674 1.85438 5.37044 1.93339 5.4019C2.01241 5.43336 2.08353 5.48181 2.14173 5.54382C2.19993 5.60584 2.24377 5.6799 2.27016 5.76075C2.29654 5.8416 2.30482 5.92726 2.29441 6.01166C2.30451 6.08978 2.29638 6.16917 2.27066 6.24362C2.24493 6.31807 2.2023 6.38555 2.14613 6.44076C2.08995 6.49597 2.02174 6.53741 1.94686 6.56184C1.87197 6.58627 1.79245 6.59302 1.71452 6.58156H1.49456V5.36178H1.68452ZM1.68452 6.62155C2.15443 6.62155 2.48437 6.77152 2.48437 7.26143C2.48931 7.35286 2.47426 7.44427 2.44026 7.52929C2.40626 7.61431 2.35414 7.69091 2.28752 7.75372C2.22089 7.81654 2.14137 7.86407 2.0545 7.89302C1.96763 7.92196 1.87549 7.93161 1.7845 7.9213H1.49456V6.62155H1.68452ZM0.604725 7.97129H1.91448C2.62435 7.97129 2.97428 7.65135 2.97428 7.21144C2.97428 6.77152 2.44438 6.57155 2.15443 6.56156C2.45438 6.50157 2.79431 6.28161 2.79431 5.96167C2.79431 5.64173 2.40439 5.32179 1.7945 5.32179H0.594727H1.01465V7.87132H0.594727L0.604725 7.97129Z" fill="#404040" fill-opacity="0.8"/>
<path d="M0.494629 12.0306V14.1602H9.27299V36.826H12.2224V14.1602H21.0008V12.0306H0.494629Z" fill="black" fill-opacity="0.4"/>
<path d="M18.6514 15.4498H21.1909V24.9181H34.1585V15.4498H36.698V36.8258H34.1585V26.7577H21.1909V36.8258H18.6514V15.4498Z" fill="black" fill-opacity="0.4"/>
<path d="M37.5776 15.4498H50.1453V17.2895H40.1172V24.9181H49.6354V26.7577H40.1172V34.9962H50.5952V36.8258H37.5776V15.4498Z" fill="black" fill-opacity="0.4"/>
<path d="M51.9849 12.0306H77.78V17.9995H63.1628V21.5189H77.1402V27.4877H63.1628V30.8571H78.08V36.826H51.9849V12.0306Z" fill="#404040" fill-opacity="0.8"/>
<path d="M89.218 31.4969H91.6776C95.2469 31.4969 96.0567 29.4973 96.0567 25.9879C96.0567 22.4786 95.1669 20.419 91.6476 20.419H89.218V31.4969ZM79.3599 15.4999H93.8072C101.166 15.4999 106.345 17.5795 106.345 26.2579C106.345 34.3363 100.756 36.8759 93.4072 36.8759H79.3599V15.4999Z" fill="#404040" fill-opacity="0.8"/>
<path d="M131.59 36.036C128.114 36.8709 124.547 37.264 120.972 37.2058C112.444 37.2058 105.605 33.4565 105.605 25.8379C105.605 18.6693 112.744 15.0799 120.972 15.0799C124.188 14.9933 127.403 15.2616 130.56 15.8798V21.6387C128.412 20.7842 126.113 20.3694 123.802 20.4189C118.912 20.4189 115.683 22.4186 115.683 26.3578C115.683 29.2973 117.113 31.8668 121.042 31.8668C121.747 31.9012 122.453 31.8407 123.142 31.6868V25.9879H131.59V36.036Z" fill="#404040" fill-opacity="0.8"/>
<path d="M132.44 15.4498H154.676V20.5989H142.068V23.6283H154.126V28.7773H142.068V31.6868H154.936V36.8258H132.44V15.4498Z" fill="#404040" fill-opacity="0.8"/>
<path d="M155.576 15.4598V15.7498H156.376V18.1293H156.665V15.7498H157.465V15.4698H155.576M159.955 15.4698L159.195 17.6294L158.465 15.4598H157.955V18.1193H158.255V15.7498L159.135 18.1293H159.315L160.195 15.7498V18.1293H160.495V15.4598L159.955 15.4698Z" fill="#404040" fill-opacity="0.8"/>
</g>
</g>
<defs>
<clipPath id="clip0_144_279">
<rect width="160" height="48" fill="white" transform="translate(0.494629 0.750977)"/>
</clipPath>
</defs>
</svg>
