<svg width="80" height="81" viewBox="0 0 80 81" fill="none" xmlns="http://www.w3.org/2000/svg">
<path fill-rule="evenodd" clip-rule="evenodd" d="M14.7706 12.8158C13.9688 12.8158 13.3129 13.4698 13.3129 14.2813V48.4449C13.3129 49.2563 13.9688 49.9103 14.7706 49.9103H65.2263C66.0368 49.9103 66.6879 49.2592 66.6879 48.4449V14.2813C66.6879 13.4708 66.0329 12.8158 65.2263 12.8158H14.7706ZM11.4863 14.2813C11.4863 12.4668 12.9543 10.9893 14.7706 10.9893H65.2263C67.0455 10.9893 68.5144 12.4659 68.5144 14.2813V48.4449C68.5144 50.2641 67.0494 51.7369 65.2263 51.7369H14.7706C12.9543 51.7369 11.4863 50.2593 11.4863 48.4449V14.2813Z" fill="#FF9D71"/>
<path fill-rule="evenodd" clip-rule="evenodd" d="M20.4467 19.0029C19.8723 19.0029 19.5218 19.4235 19.5218 19.7965V44.4219C19.5218 44.8038 19.8697 45.2193 20.4467 45.2193H59.5531C60.1301 45.2193 60.4818 44.8002 60.4818 44.4219V19.7965C60.4818 19.4259 60.1301 19.0029 59.5531 19.0029H20.4467ZM17.6953 19.7965C17.6953 18.2927 18.9899 17.1764 20.4467 17.1764H59.5531C61.0073 17.1764 62.3084 18.2904 62.3084 19.7965V44.4219C62.3084 45.9358 61.0073 47.0459 59.5531 47.0459H20.4467C18.9848 47.0459 17.6953 45.9322 17.6953 44.4219V19.7965Z" fill="#FF9D71"/>
<path fill-rule="evenodd" clip-rule="evenodd" d="M11.6147 50.3646C11.7795 50.0882 12.0775 49.9189 12.3992 49.9189H66.8246C67.1343 49.9189 67.4229 50.0759 67.5912 50.3358L77.3533 65.4115C77.5352 65.6924 77.5489 66.0502 77.389 66.3442C77.2292 66.6382 76.9213 66.8212 76.5867 66.8212H3.41327C3.08472 66.8212 2.78149 66.6447 2.6192 66.359C2.45691 66.0734 2.46057 65.7225 2.62879 65.4403L11.6147 50.3646ZM12.918 51.7455L5.02082 64.9946H74.9073L66.328 51.7455H12.918Z" fill="#FF9D71"/>
<path fill-rule="evenodd" clip-rule="evenodd" d="M14.9156 53.3193C15.0748 53.0231 15.3839 52.8383 15.7202 52.8383H63.6581C63.9778 52.8383 64.2742 53.0055 64.4396 53.2791L70.0235 62.516C70.194 62.798 70.1993 63.1501 70.0374 63.4371C69.8755 63.7242 69.5715 63.9017 69.2419 63.9017H10.758C10.4367 63.9017 10.1391 63.7329 9.97417 63.4572C9.80928 63.1814 9.80142 62.8393 9.95347 62.5563L14.9156 53.3193ZM16.2662 54.6648L12.2853 62.0752H67.6227L63.143 54.6648H16.2662Z" fill="#FF9D71"/>
<path fill-rule="evenodd" clip-rule="evenodd" d="M2.5 65.9078C2.5 65.4035 2.90888 64.9946 3.41327 64.9946H76.5829C77.0872 64.9946 77.4961 65.4035 77.4961 65.9078V68.8156C77.4961 69.32 77.0872 69.7289 76.5829 69.7289H3.41327C2.90888 69.7289 2.5 69.32 2.5 68.8156V65.9078ZM4.32654 66.8211V67.9024H75.6696V66.8211H4.32654Z" fill="#FF9D71"/>
<path fill-rule="evenodd" clip-rule="evenodd" d="M31.9253 32.9313C32.3997 32.966 32.7652 33.3255 32.7652 33.7573V33.7627C32.7652 33.8195 32.7589 33.875 32.7469 33.9286C32.6542 34.5115 32.8431 34.996 33.2646 35.5093C33.6762 36.0107 34.2513 36.473 34.936 37.0234C35.0224 37.0928 35.1105 37.1636 35.2002 37.2361C36.7124 38.4575 38.6142 40.086 38.2122 42.8278C38.1518 43.2396 37.7647 43.5472 37.3069 43.5472H24.1781C23.7205 43.5472 23.3336 43.2399 23.2729 42.8283C22.8687 40.0862 24.7699 38.4588 26.2814 37.2386C26.3709 37.1663 26.4589 37.0957 26.5451 37.0264C27.2296 36.4764 27.8042 36.0148 28.2152 35.5139C28.6451 34.9902 28.8324 34.4964 28.7245 33.8962C28.6813 33.6563 28.7564 33.4112 28.93 33.226C29.1035 33.0408 29.3579 32.934 29.6258 32.934H31.7469C31.8052 32.9279 31.8648 32.9269 31.9253 32.9313ZM30.9196 34.5914H30.5596C30.4724 35.3244 30.1308 35.9548 29.6801 36.504C29.1473 37.1531 28.4174 37.7378 27.7558 38.2679C27.6676 38.3385 27.5806 38.4082 27.4954 38.477C26.1733 39.5443 25.1458 40.4993 25.0518 41.8897H36.4325C36.3372 40.4989 35.3087 39.5427 33.9858 38.4741C33.9005 38.4053 33.8134 38.3355 33.7251 38.2647C33.0631 37.7341 32.333 37.1489 31.7998 36.4995C31.3499 35.9514 31.0083 35.3225 30.9196 34.5914Z" fill="#FF9D71"/>
<path fill-rule="evenodd" clip-rule="evenodd" d="M30.7371 24.1427C28.135 24.1427 26.0072 26.2866 26.0072 28.9605C26.0072 30.2724 26.5171 31.2067 27.3115 31.8343C28.1315 32.482 29.3256 32.8547 30.7371 32.8547C32.1486 32.8547 33.3438 32.482 34.1648 31.834C34.9602 31.2063 35.4706 30.272 35.4706 28.9605C35.4706 26.2873 33.34 24.1427 30.7371 24.1427ZM24.1807 28.9605C24.1807 25.3054 27.0988 22.3162 30.7371 22.3162C34.3746 22.3162 37.2971 25.3046 37.2971 28.9605C37.2971 30.8136 36.5442 32.283 35.2963 33.2678C34.074 34.2325 32.4458 34.6812 30.7371 34.6812C29.0284 34.6812 27.4009 34.2325 26.1793 33.2676C24.9323 32.2825 24.1807 30.8131 24.1807 28.9605Z" fill="#FF9D71"/>
<path fill-rule="evenodd" clip-rule="evenodd" d="M40.5293 31.1071C40.5293 30.6027 40.9382 30.1938 41.4426 30.1938H55.8695C56.3739 30.1938 56.7828 30.6027 56.7828 31.1071C56.7828 31.6115 56.3739 32.0204 55.8695 32.0204H41.4426C40.9382 32.0204 40.5293 31.6115 40.5293 31.1071Z" fill="#FF9D71"/>
<path fill-rule="evenodd" clip-rule="evenodd" d="M40.5293 35.1927C40.5293 34.6884 40.9382 34.2795 41.4426 34.2795H55.8695C56.3739 34.2795 56.7828 34.6884 56.7828 35.1927C56.7828 35.6971 56.3739 36.106 55.8695 36.106H41.4426C40.9382 36.106 40.5293 35.6971 40.5293 35.1927Z" fill="#FF9D71"/>
<path fill-rule="evenodd" clip-rule="evenodd" d="M40.5293 39.2783C40.5293 38.7739 40.9382 38.365 41.4426 38.365H55.8695C56.3739 38.365 56.7828 38.7739 56.7828 39.2783C56.7828 39.7826 56.3739 40.1915 55.8695 40.1915H41.4426C40.9382 40.1915 40.5293 39.7826 40.5293 39.2783Z" fill="#FF9D71"/>
<g style="mix-blend-mode:multiply" opacity="0.8">
<path d="M58.7201 56.9261C59.9601 51.1661 64.2801 48.0061 70.2401 48.0061C76.4001 48.0061 79.0801 51.5261 78.3201 55.9261C77.6401 59.7661 74.9201 61.8061 72.7601 62.4861V62.6461C75.4801 63.6061 77.0801 65.8461 76.4001 69.6861C75.5201 74.6061 71.4401 78.1261 65.3201 78.1261C59.2401 78.1261 55.3201 75.2461 56.2801 68.6461H62.9201C62.5601 70.9261 63.5201 72.4461 66.0401 72.4461C68.1601 72.4461 69.6001 71.0861 69.9201 69.1661C70.3601 66.5661 68.9601 65.5261 65.4401 65.5261H64.1601L65.1601 59.9661H66.4401C68.7201 59.9661 71.0801 59.4061 71.5601 56.7661C71.8801 54.8061 70.9601 53.7261 69.0801 53.7261C66.8801 53.7261 65.8001 55.3261 65.3601 56.9261H58.7201Z" fill="url(#paint0_linear_144_2705)"/>
</g>
<defs>
<linearGradient id="paint0_linear_144_2705" x1="56.1357" y1="63.0661" x2="78.446" y2="63.0661" gradientUnits="userSpaceOnUse">
<stop stop-color="#961E27"/>
<stop offset="0.5" stop-color="#FA3B3B"/>
<stop offset="1" stop-color="#FF9D71"/>
</linearGradient>
</defs>
</svg>
