<svg width="161" height="49" viewBox="0 0 161 49" fill="none" xmlns="http://www.w3.org/2000/svg">
<g clip-path="url(#clip0_144_263)">
<g style="mix-blend-mode:luminosity">
<path fill-rule="evenodd" clip-rule="evenodd" d="M52.8041 13.8843C53.8443 14.0777 54.7644 13.6776 55.6445 14.071C56.698 14.5377 56.8513 16.9114 55.4578 16.978C54.7477 16.9171 54.0622 16.6886 53.4576 16.3113C53.3242 16.1579 53.3509 15.8846 53.2642 15.6846C53.0508 15.1778 52.2907 14.6044 52.8041 13.8843ZM54.3177 10.3439C54.8511 10.4772 55.1111 10.2305 55.5845 10.4105C56.0579 10.5906 56.0979 11.024 56.5313 11.0773C56.952 11.1291 57.3785 11.1066 57.7914 11.0106C58.7249 10.7039 58.8849 9.14371 58.2982 8.61031C57.8391 8.39009 57.3488 8.24167 56.8447 8.17025C55.9245 7.92355 54.6977 7.29681 54.071 8.11025C54.3977 8.82367 53.7843 9.79713 54.3177 10.3439ZM57.7314 15.9046C57.4181 16.3846 56.938 16.838 56.658 17.2381C56.538 17.4048 56.5313 17.6448 56.4046 17.8048C56.2779 17.9648 55.8579 18.1982 55.6445 18.4716C54.7496 19.4829 53.9857 20.603 53.3709 21.8053C52.9496 22.162 52.5695 22.5646 52.2374 23.0055C51.8107 23.4655 51.0439 24.1456 51.4173 24.6524C52.1907 25.6992 52.6708 26.6526 54.7511 26.2926C55.3378 25.9925 55.4178 25.2058 55.8245 24.7124C56.6646 22.0454 57.2314 19.0917 58.5382 16.8847C59.1316 17.0181 59.0183 17.6448 59.205 18.0182C59.685 18.845 60.7652 18.7983 61.5453 19.3517C61.5453 20.3718 61.0919 20.9186 60.9719 21.812C60.7918 22.1387 60.3451 22.1987 60.4718 22.8255C61.1783 22.9668 61.8984 23.0294 62.6187 23.0122C63.1174 22.6052 63.5651 22.1395 63.9522 21.6253C64.3833 21.1058 64.7442 20.5319 65.0257 19.9184C65.2924 19.0783 65.2124 18.1915 65.6524 17.6448C65.8695 17.4289 66.1361 17.2693 66.4289 17.1798C66.7217 17.0903 67.032 17.0737 67.3327 17.1314C67.5394 17.8448 67.1926 18.5582 67.266 19.3383C67.3393 20.1184 68.1061 22.6721 68.7195 22.6721C69.1462 22.6721 69.5129 21.9187 69.733 21.5986C70.0535 21.1716 70.3096 20.6999 70.4931 20.1985C70.7264 19.4117 70.5664 18.4316 70.9331 17.7982C71.4799 18.2649 71.5132 18.6983 72.1333 18.9983C72.5933 19.2183 73.2868 19.0583 73.7135 19.3784C74.2669 19.7784 73.9535 21.9053 74.0335 23.2255C74.0747 24.4482 74.0524 25.6722 73.9668 26.8927C73.9135 28.0395 74.1535 29.2463 74.1602 30.3664C74.1602 32.4534 73.7468 35.3404 76.0538 34.787C76.9139 33.7202 76.6539 32.12 76.9339 30.6198C77.1539 29.4663 77.2273 28.3328 77.3806 27.206C77.5691 26.4992 77.7182 25.7824 77.8273 25.0591C77.8273 24.8724 77.714 24.6057 77.7007 24.3923C77.6606 23.7656 77.9474 23.1655 77.954 22.5654C77.954 22.3721 77.8273 22.1854 77.8273 21.992C77.8273 21.7987 77.954 21.5253 77.954 21.3253C77.954 20.9786 77.814 20.6585 77.8273 20.3185C77.894 18.865 78.0274 17.3114 77.954 16.0246C77.954 15.5445 78.1274 15.1111 78.1407 14.6311C78.1407 14.5044 78.0207 14.3244 78.014 14.191C78.014 13.3776 78.3207 12.5908 78.2074 11.724C78.0612 10.8663 77.9721 9.99988 77.9407 9.13038C77.9407 7.94356 78.6941 6.08999 78.1941 4.6498C77.8366 3.96364 77.3142 3.37709 76.6739 2.94292C75.9842 2.55081 75.1703 2.43862 74.4002 2.62955C73.7335 2.91625 74.0335 3.59633 74.0869 4.26975C74.2069 5.84996 73.7468 7.27014 74.0869 8.62364C74.1402 8.84367 74.3069 9.01703 74.3402 9.25706C74.4669 10.1505 73.9535 11.1573 73.9602 12.0974C73.9602 12.4308 74.1402 12.7642 74.1535 13.1109C74.1535 13.7243 74.0002 14.371 74.0269 15.0045C74.0535 15.6379 74.4469 16.3913 73.9002 16.9647C72.8283 16.4786 71.8456 15.816 70.9931 15.0045C71.1998 13.671 71.5332 12.1841 70.9265 11.0906C70.7598 10.7773 70.4064 10.6372 70.3597 10.2705C69.4196 10.2705 69.4263 9.07704 68.5328 9.19705C68.0794 9.25706 67.8661 9.96382 67.8661 10.3972C67.7127 11.7974 67.9461 14.3977 67.366 15.5112C66.8726 15.6045 66.1325 15.4712 65.9725 14.9445C65.7725 14.2777 66.0258 13.611 65.8458 13.0442C65.4458 11.8107 64.0122 11.5907 63.6389 10.3772C63.1121 10.0638 62.412 9.60377 61.932 10.2505C61.5786 11.7774 62.4654 13.6243 61.872 15.4245C61.3252 15.5979 60.8518 15.8446 60.2918 15.9979C59.8717 15.7246 59.3183 15.5779 59.2183 15.0511C59.165 14.7644 59.5917 14.3844 59.1516 14.1644C58.2982 14.351 58.1182 15.2978 57.7314 15.9046ZM84.1948 15.7979C85.0549 15.4579 86.2551 14.9578 87.3486 14.5311C88.7759 13.9634 90.257 13.5412 91.7691 13.2709C93.1026 13.0575 93.9227 12.8775 94.8629 13.5843C95.5296 14.071 95.3963 14.4244 96.003 15.1645C96.263 15.4912 96.7164 15.5579 96.8231 15.9846C97.0298 16.8314 95.9563 17.8382 96.3164 19.0183C95.7306 20.6472 95.3499 22.3427 95.1829 24.0656C95.1829 24.2656 95.0029 24.4923 94.9895 24.699C94.9762 24.9057 95.0829 25.1591 95.0562 25.3658C94.9829 25.9125 94.2961 27.226 93.536 27.266C92.7759 27.306 92.0225 26.0792 91.4557 25.9992C90.669 25.8925 89.8289 27.0593 88.7421 26.946C88.362 26.906 88.022 26.4259 87.7286 26.4393C87.3219 26.4393 87.3352 26.9193 86.9685 27.0127C86.4418 27.146 85.715 26.5726 85.455 26.1259C84.9749 25.2924 85.1549 23.6122 85.0749 22.5254C84.9362 20.9589 84.7136 19.4009 84.4082 17.8582C84.236 17.1857 84.1641 16.4914 84.1948 15.7979ZM91.3891 23.2455C91.7091 22.9855 91.5424 22.6388 91.5824 22.2387C91.7825 20.1118 91.9825 17.1781 92.0892 15.1045C91.1824 15.7312 90.589 16.678 89.5622 17.1847C89.3688 17.5581 88.9954 17.7581 88.8954 18.1982C89.0378 18.7134 89.263 19.2021 89.5622 19.6451C90.809 19.0917 91.9691 19.9384 91.6491 21.2253C91.4157 22.1454 89.8955 22.5588 88.8688 22.5588C88.7808 22.9544 88.7184 23.3553 88.6821 23.7589C89.3955 23.6456 90.4956 23.2055 91.3891 23.2255V23.2455ZM110.498 13.7576C110.305 13.4176 109.831 13.4043 109.491 13.1842C109.151 12.9642 108.585 12.5175 108.545 12.3041C108.378 11.324 110.545 10.6972 110.752 9.90381C110.805 8.05024 110.618 6.32335 111.192 5.03652C111.46 4.94328 111.745 4.90641 112.028 4.9282C112.312 4.95 112.587 5.03 112.838 5.1632C113.145 5.33656 113.339 5.73661 113.592 5.98998C114.259 6.65673 115.005 6.93676 114.412 8.19692C114.659 8.777 115.559 8.69699 115.806 9.27039C115.946 10.8839 114.779 11.1973 114.165 12.0507C115.192 12.3975 116.832 12.1508 116.752 13.5643C116.752 14.071 116.352 14.231 116.086 14.5777C114.352 14.5044 113.265 15.4178 113.305 16.9114C113.645 17.2648 114.239 17.0914 114.505 17.4181C115.425 18.5249 113.392 19.6717 112.992 20.3251C113.712 20.3251 114.992 20.1451 115.072 21.1452C114.972 21.7947 114.663 22.3938 114.192 22.8521C113.739 23.1922 112.665 23.2522 112.485 24.239C112.49 24.4623 112.51 24.6851 112.545 24.9057C112.545 25.6658 112.385 26.6726 112.292 27.6794C112.198 28.6862 112.392 29.9397 112.358 30.8998C112.305 32.32 112.678 34.7603 110.972 34.7537C109.265 34.747 109.731 32.7534 109.391 30.9665C110.007 29.5111 110.184 27.907 109.898 26.3526C109.296 26.5681 108.738 26.8911 108.251 27.306C107.838 27.5994 107.171 28.2928 106.671 28.3128C106.041 28.1977 105.453 27.9144 104.971 27.4927C104.791 27.3699 104.639 27.211 104.524 27.0262C104.41 26.8414 104.335 26.6347 104.304 26.4193C104.351 25.5992 105.924 25.0858 106.578 24.7124C107.064 24.419 107.498 23.9256 107.965 23.5789C108.431 23.2322 109.078 23.0255 109.358 22.5054C108.451 22.192 107.038 22.2987 106.891 21.3653C106.744 20.4318 107.691 20.4785 108.345 20.1051C109.318 19.545 110.545 18.6116 110.345 17.5114C109.911 17.5114 109.845 17.8782 109.525 18.0849C109.205 18.2915 108.858 18.3049 108.451 18.5249C107.885 18.8383 107.358 19.405 106.938 19.5984C106.596 19.7655 106.235 19.893 105.864 19.9784C105.604 19.9784 105.404 19.7117 104.791 19.4117C104.537 19.285 104.197 19.285 103.971 19.1583C103.604 18.9516 102.831 18.3116 102.831 18.0849C102.831 17.5048 103.651 17.6248 104.031 17.0714C104.844 17.0714 105.117 16.598 105.798 16.5047C107.204 15.3578 109.165 14.8244 110.498 13.7576ZM117.006 14.8311C118.086 14.8311 118.206 15.8646 119.006 16.1646C120.179 15.3578 120.633 13.831 121.72 12.9375C121.752 12.7071 121.817 12.4825 121.913 12.2708C120.993 12.1374 120.059 13.8843 119.133 13.9777C118.606 14.031 116.786 13.2309 116.986 12.4641C117.059 12.1708 117.366 12.2041 117.806 12.0174C118.126 11.8907 118.573 11.5907 119.139 11.3907C120.76 10.8039 122.393 10.6372 123.493 9.61711C124.76 9.8438 125.287 10.7172 125.893 11.764C126.159 12.1111 126.373 12.4952 126.527 12.9042C126.536 13.161 126.483 13.4162 126.373 13.6484C126.263 13.8805 126.098 14.0826 125.893 14.2377C125.524 14.3361 125.142 14.3788 124.76 14.3644C122.836 14.7353 121.034 15.581 119.519 16.8247C119.486 18.2382 118.633 19.7317 119.139 21.0586C119.239 20.8652 119.213 20.5385 119.393 20.3918C120.246 20.3918 120.546 19.9851 121.22 19.6317C121.893 19.2783 122.74 19.0583 123.18 18.7516C123.847 18.3049 124.013 17.4181 125.14 17.8048C125.799 18.2965 126.393 18.8701 126.907 19.5117C127.047 19.9164 127.111 20.3438 127.094 20.7719C127.047 21.0852 126.62 21.3719 126.427 21.7187C126.094 22.2454 125.62 23.4522 125.167 24.179C124.967 24.499 124.713 24.7657 124.72 24.9391C124.753 25.5125 125.92 25.7258 126.494 26.0792C127.067 26.4326 127.507 26.8526 128.134 27.2127C129.627 28.0728 132.048 29.3663 133.061 30.5465C134.075 31.7266 132.914 32.7534 131.101 32.7601C130.439 32.6556 129.77 32.6131 129.101 32.6334C128.448 32.8016 127.769 32.8446 127.1 32.7601C126.447 32.4357 125.866 31.982 125.393 31.4266C124.293 30.2998 123.833 29.0063 122.68 27.8861C121.346 29.0796 120.499 30.7998 118.319 31.1732C118.006 31.6866 118.413 32.1467 118.386 32.6267C118.339 33.3668 117.446 34.0269 116.426 34.0136C115.755 33.4152 115.348 32.5767 115.292 31.6799C115.232 30.8532 115.792 30.5198 115.792 29.593C115.792 28.1128 115.706 25.9992 115.792 24.3523C115.866 23.1055 116.112 21.852 116.239 20.6252C116.332 19.6584 116.352 18.7116 116.492 17.7848C116.563 16.7834 116.744 15.7929 117.032 14.8311H117.006ZM120.86 26.5726C121.186 25.8525 120.499 25.1324 120.033 24.679C119.693 24.3567 119.312 24.0809 118.899 23.8589C118.819 25.7792 118.639 27.5994 118.393 29.353C119.006 28.7529 120.586 27.2327 120.886 26.5726H120.86ZM121.993 23.3522C122.7 22.7588 122.78 21.532 123.133 20.5785C122.166 20.9852 121.8 21.992 120.286 21.8387C120.033 21.692 119.719 21.2719 119.466 21.3319C120.299 22.0454 121.166 22.7121 122.02 23.3522H121.993ZM31.9348 18.0182C33.3284 17.7357 34.7008 17.357 36.042 16.8847C36.3154 15.8512 36.5821 14.8178 36.8621 13.791C36.4608 13.7743 36.0644 13.8839 35.7286 14.1043C35.1952 13.7776 34.6885 14.4177 34.2751 13.9777C33.7734 14.2028 33.2407 14.3511 32.6949 14.4177C32.2983 14.357 31.9198 14.2104 31.5858 13.9881C31.2518 13.7659 30.9704 13.4733 30.7613 13.1309C30.2556 9.91077 30.0037 6.65589 30.0079 3.39631C30.868 2.46286 32.1415 4.00305 32.9149 4.59646C33.8084 5.26321 34.5151 5.84329 35.0619 6.36336C35.1085 6.63672 35.1352 6.91676 35.1819 7.19013C36.5154 6.39669 38.2423 5.29656 40.1759 5.73661C40.4692 6.07666 40.4426 6.73007 40.5559 7.25014C41.296 5.59659 42.2561 4.15641 42.7629 2.26283C41.7494 2.50286 40.4159 3.40965 39.2291 4.08973C38.909 4.27642 38.5623 4.3631 38.2823 4.53646C38.0022 4.70981 37.8756 4.94317 37.6155 4.97651C37.1088 5.02985 35.9687 4.24308 35.6619 3.84303C34.8618 3.54966 33.3417 2.76956 34.3951 1.94279C35.0619 1.90279 35.942 1.36272 36.6687 1.27604C37.8556 1.09602 39.4758 1.18936 40.9026 1.02267C41.656 0.935995 42.2961 0.775974 42.9029 0.769307C43.4949 0.722589 44.0905 0.765298 44.6698 0.895991C45.0098 1.04934 45.0031 1.39605 45.3365 1.84278C45.4632 2.03614 45.8099 2.20949 45.9699 2.41619C46.2252 2.86188 46.448 3.32536 46.6367 3.80303C47.2034 4.91651 47.8835 5.4099 47.2034 6.77007C47.0434 7.09678 46.6834 7.43683 46.4433 7.91022C45.9566 8.837 45.2632 10.6706 44.4431 11.244C44.163 11.4373 43.7763 11.4173 43.4963 11.5574C43.1362 11.7507 42.9562 12.1708 42.6162 12.3775C41.9494 12.7642 41.1093 12.7642 40.6559 13.3909C39.5891 13.5376 38.549 13.3909 37.5622 13.7043C37.8156 14.1244 38.1356 14.0043 38.569 14.371C39.2357 14.9978 39.4291 16.438 40.7226 15.5712C41.216 15.2378 41.3893 14.5044 42.2961 14.5644C43.3152 14.7155 44.2542 15.2038 44.9631 15.9513C45.2832 16.258 45.6299 16.338 45.4699 17.0914C45.3299 17.6248 44.7431 17.6448 44.2697 18.0982C43.2763 17.8848 42.3361 18.3849 41.4894 18.4782C40.7693 18.5582 39.8225 18.1915 39.4891 18.7916C39.4066 19.2552 39.4294 19.7315 39.5558 20.1851C39.8025 20.6118 40.2225 20.4118 40.6893 20.4985C41.1506 20.6449 41.5971 20.8347 42.0228 21.0652C42.3761 21.2453 43.0229 21.4986 43.1562 21.732C43.3284 22.2194 43.3721 22.743 43.2829 23.2522C43.1669 23.5353 42.9958 23.7925 42.7794 24.0089C42.5631 24.2252 42.3059 24.3964 42.0228 24.5123C41.1026 24.799 39.5424 24.1456 39.1157 25.1791C38.9311 25.7943 38.9104 26.447 39.0557 27.0727C39.4424 27.4127 39.9692 27.1594 40.5692 27.1394C41.6094 27.0993 42.5695 27.5461 43.4096 26.946C44.003 27.2194 44.8365 27.206 45.4099 27.4527C45.7709 27.6058 46.0957 27.8329 46.3633 28.1195C46.8034 28.8396 45.9699 30.6331 45.4765 30.9598C44.8098 31.3799 44.083 31.2265 43.2029 31.2732C42.3228 31.3199 41.3493 31.5132 40.4892 31.5266C40.2759 31.5266 40.0492 31.4532 39.8558 31.4666C39.069 31.5132 38.3023 31.9266 37.5155 31.9666C37.2622 31.9666 37.0088 31.8866 36.7621 31.9066C36.3887 31.9066 36.022 32.1133 35.6219 32.16C34.2884 32.3133 32.9549 32.3267 31.9615 32.9201C31.1747 32.9201 30.2146 33.2001 29.3745 32.6667C28.9605 32.3207 28.5989 31.9164 28.301 31.4666C28.081 30.8865 28.1877 30.2197 27.921 29.573C28.4077 28.9062 29.5012 28.5195 30.588 28.3062C31.5257 28.1063 32.474 27.9593 33.4283 27.8661C33.9417 27.8261 34.3618 27.9928 34.6885 27.6727C34.7734 27.4937 34.8123 27.2963 34.8019 27.0984C34.7914 26.9005 34.7318 26.7084 34.6285 26.5393C33.6617 26.4393 33.1283 26.9993 32.4149 26.726C31.9881 26.5659 31.7481 25.9259 31.4081 25.5258C31.068 25.1258 30.488 24.7057 30.4479 24.239C30.6213 23.6656 31.228 23.7856 31.7815 23.6722C32.4716 23.4325 33.1407 23.1359 33.7817 22.7855C34.3685 22.5254 35.0485 22.5188 35.2952 22.0254C35.5419 21.532 35.2952 20.7385 35.4886 19.8184C34.5753 19.7377 33.6621 19.973 32.9016 20.4852C32.0348 21.0052 31.4747 22.2121 30.3746 22.3787C29.9279 22.4454 29.7479 22.1987 29.3611 22.1254C28.501 21.9587 27.7943 22.1254 27.5943 21.1119C27.2475 19.4117 28.261 18.0382 28.9278 17.0714C29.2478 16.5913 29.4678 16.0513 29.8745 16.0646C30.8613 16.0579 31.3681 17.4248 31.9615 17.9848L31.9348 18.0182ZM35.1552 11.3507C36.4887 10.9706 37.7822 10.5706 39.2024 10.2772C39.57 9.63633 39.8866 8.96751 40.1492 8.27694C39.0316 8.78156 37.9548 9.37231 36.9288 10.0438C36.262 9.61711 35.762 8.98369 34.9285 8.71033C35.1019 9.5771 34.6285 10.6172 35.1552 11.2907V11.3507Z" fill="black" fill-opacity="0.6"/>
<path d="M33.6553 40.6945V43.3615H33.4486C33.4099 42.9363 33.2851 42.5234 33.0818 42.148C32.9065 41.8418 32.6475 41.592 32.3351 41.4279C32.028 41.2539 31.6812 41.1621 31.3283 41.1612C30.9692 41.1493 30.6197 41.2785 30.3548 41.5212C30.237 41.6221 30.1416 41.7467 30.075 41.8868C30.0084 42.027 29.972 42.1796 29.9681 42.3347C29.9647 42.5799 30.0526 42.8175 30.2148 43.0014C30.7043 43.4684 31.2675 43.8514 31.8817 44.1349C32.3912 44.3925 32.8815 44.6866 33.3486 45.015C33.6003 45.2113 33.8071 45.4591 33.9553 45.7418C34.0946 46.0143 34.1677 46.3158 34.1687 46.6219C34.17 46.9049 34.1112 47.1849 33.9963 47.4435C33.8813 47.7021 33.7128 47.9334 33.5019 48.1221C33.029 48.5508 32.4061 48.776 31.7683 48.7488C31.5563 48.7509 31.3444 48.7353 31.1349 48.7022C30.8891 48.6464 30.6465 48.5773 30.4082 48.4955C30.1929 48.4121 29.9694 48.3518 29.7414 48.3154C29.6996 48.3129 29.6578 48.3193 29.6187 48.3342C29.5796 48.3492 29.5441 48.3723 29.5147 48.4021C29.4431 48.5042 29.4015 48.6243 29.3947 48.7488H29.1547V46.1218H29.3614C29.4193 46.5528 29.5524 46.9704 29.7548 47.3553C29.9468 47.639 30.2086 47.8686 30.5149 48.0221C30.8631 48.2016 31.2499 48.2932 31.6417 48.2888C32.0471 48.3127 32.4461 48.1789 32.7551 47.9154C32.884 47.8076 32.9877 47.673 33.0591 47.521C33.1305 47.369 33.1679 47.2032 33.1685 47.0353C33.1648 46.8336 33.1097 46.6363 33.0085 46.4619C32.8886 46.2517 32.7249 46.0698 32.5284 45.9285C32.1393 45.6671 31.7365 45.4267 31.3216 45.2084C30.835 44.9479 30.3671 44.6538 29.9214 44.3283C29.6648 44.1316 29.4515 43.8842 29.2947 43.6015C29.1494 43.336 29.0759 43.0373 29.0813 42.7347C29.0782 42.4663 29.1332 42.2004 29.2425 41.9553C29.3519 41.7101 29.513 41.4915 29.7148 41.3145C29.9298 41.1136 30.1825 40.9571 30.4583 40.8541C30.7341 40.7511 31.0275 40.7037 31.3216 40.7145C31.769 40.7233 32.2095 40.8255 32.6151 41.0145C32.7546 41.0872 32.9058 41.1346 33.0618 41.1545C33.1057 41.1573 33.1496 41.1511 33.1909 41.1361C33.2322 41.1212 33.27 41.098 33.3019 41.0678C33.3867 40.9677 33.44 40.8448 33.4552 40.7145L33.6553 40.6945Z" fill="black" fill-opacity="0.6"/>
<path d="M38.3623 48.3287V48.5355H35.0752V48.3287H35.3485C35.4738 48.3372 35.5993 48.3162 35.7151 48.2676C35.8308 48.219 35.9336 48.1441 36.0153 48.0487C36.1392 47.7777 36.1876 47.4782 36.1553 47.1819V42.228C36.1693 41.9702 36.1445 41.7117 36.082 41.4612C36.034 41.3552 35.9518 41.2683 35.8486 41.2145C35.6886 41.1286 35.5101 41.0828 35.3285 41.0812H35.0552V40.8678H38.3423V41.0812H38.0622C37.9375 41.0719 37.8123 41.0918 37.6966 41.1393C37.5809 41.1867 37.4778 41.2604 37.3955 41.3545C37.2654 41.6261 37.2145 41.9288 37.2488 42.228V47.1819C37.2353 47.4398 37.26 47.6981 37.3221 47.9487C37.373 48.0533 37.4576 48.1378 37.5622 48.1887C37.7176 48.2806 37.895 48.329 38.0756 48.3287H38.3623Z" fill="black" fill-opacity="0.6"/>
<path d="M38.4889 40.8678H40.5692L45.2364 46.6219V42.2013C45.2735 41.8963 45.2177 41.5873 45.0764 41.3145C44.9884 41.2303 44.8833 41.1659 44.7683 41.1256C44.6533 41.0854 44.531 41.0702 44.4096 41.0812H44.1429V40.8678H46.81V41.0812H46.5366C46.41 41.0721 46.2831 41.0941 46.1669 41.1452C46.0507 41.1964 45.9487 41.2751 45.8698 41.3745C45.7643 41.6366 45.7232 41.9201 45.7498 42.2013V48.6621H45.5431L40.4891 42.468V47.1886C40.4534 47.4907 40.5067 47.7966 40.6425 48.0687C40.73 48.1541 40.8347 48.2198 40.9498 48.2612C41.0648 48.3026 41.1874 48.3188 41.3092 48.3087H41.5826V48.5154H38.9156V48.3087H39.1556C39.2822 48.3172 39.4089 48.295 39.525 48.2439C39.6411 48.1928 39.7431 48.1144 39.8224 48.0154C39.9304 47.754 39.9739 47.4704 39.9491 47.1886V41.8546C39.7958 41.6687 39.6262 41.4969 39.4423 41.3412C39.2843 41.2417 39.114 41.1632 38.9356 41.1078C38.7717 41.0704 38.6036 41.0547 38.4355 41.0612L38.4889 40.8678Z" fill="black" fill-opacity="0.6"/>
<path d="M62.6389 40.6945L62.819 43.3015H62.6389C62.4822 42.6517 62.1338 42.0639 61.6388 41.6146C61.1932 41.2693 60.6422 41.088 60.0786 41.1012C59.5665 41.089 59.0636 41.2392 58.642 41.5302C58.2205 41.8213 57.9018 42.2382 57.7316 42.7214C57.4783 43.3965 57.3582 44.1143 57.3783 44.835C57.3647 45.4516 57.4782 46.0644 57.7116 46.6353C57.9176 47.1195 58.2695 47.5275 58.7184 47.8021C59.1791 48.0783 59.7082 48.2193 60.2453 48.2088C60.7101 48.2202 61.1698 48.1098 61.5788 47.8888C62.0789 47.5567 62.5055 47.1255 62.8323 46.6219L63.0056 46.7353C62.6949 47.3381 62.2361 47.852 61.6721 48.2288C61.1206 48.5572 60.4868 48.7214 59.8452 48.7022C59.276 48.7296 58.7089 48.6154 58.1946 48.3699C57.6803 48.1244 57.2349 47.7552 56.8982 47.2953C56.3733 46.5764 56.0992 45.705 56.1181 44.815C56.1114 44.081 56.2878 43.3568 56.6315 42.7081C56.9533 42.0875 57.4431 41.57 58.045 41.2146C58.6523 40.8625 59.3433 40.6805 60.0453 40.6878C60.6166 40.6911 61.1788 40.8305 61.6855 41.0946C61.7875 41.1625 61.9039 41.2058 62.0255 41.2212C62.1227 41.2202 62.2157 41.182 62.2856 41.1146C62.394 40.9943 62.4678 40.8468 62.4989 40.6878L62.6389 40.6945Z" fill="black" fill-opacity="0.6"/>
<path d="M65.7725 44.4283H69.333V42.2346C69.3507 41.9746 69.3259 41.7133 69.2597 41.4612C69.2162 41.3522 69.1327 41.264 69.0263 41.2145C68.8687 41.1286 68.6924 41.0828 68.5129 41.0812H68.2395V40.8678H71.5199V41.0812H71.2466C71.0675 41.0796 70.891 41.1232 70.7332 41.2078C70.6759 41.2346 70.6245 41.2726 70.5822 41.3196C70.5398 41.3665 70.5073 41.4215 70.4865 41.4812C70.4279 41.7278 70.4055 41.9816 70.4198 42.2346V47.1819C70.4064 47.4398 70.4311 47.6981 70.4931 47.9487C70.541 48.0532 70.6235 48.1379 70.7265 48.1887C70.8848 48.2797 71.064 48.3279 71.2466 48.3287H71.5199V48.5355H68.2395V48.3287H68.4929C68.6183 48.3382 68.7441 48.3178 68.86 48.2691C68.976 48.2204 69.0786 48.1449 69.1596 48.0487C69.2836 47.7777 69.332 47.4782 69.2997 47.1819V44.8416H65.7725V47.1819C65.7591 47.4398 65.7838 47.6981 65.8459 47.9487C65.8968 48.0533 65.9813 48.1378 66.0859 48.1887C66.2414 48.2806 66.4187 48.329 66.5993 48.3287H66.8794V48.5355H63.5923V48.3287H63.8656C63.9909 48.3372 64.1164 48.3162 64.2321 48.2676C64.3479 48.219 64.4507 48.1441 64.5324 48.0487C64.6528 47.7767 64.6988 47.4776 64.6657 47.1819V42.2346C64.6835 41.9746 64.6587 41.7133 64.5924 41.4612C64.5494 41.3541 64.4688 41.2664 64.3657 41.2145C64.2057 41.1286 64.0272 41.0828 63.8456 41.0812H63.5723V40.8678H66.8594V41.0812H66.5793C66.4003 41.0796 66.2237 41.1232 66.0659 41.2078C65.9515 41.2637 65.8631 41.3617 65.8192 41.4812C65.7641 41.7284 65.7417 41.9817 65.7525 42.2346L65.7725 44.4283Z" fill="black" fill-opacity="0.6"/>
<path d="M74.1734 41.2879V44.3216H75.8603C76.1658 44.3576 76.4744 44.287 76.7338 44.1215C76.8465 43.9988 76.9335 43.8548 76.9896 43.6979C77.0457 43.541 77.0698 43.3745 77.0605 43.2081H77.2738V45.8751H77.0605C77.0422 45.6292 76.9906 45.387 76.9071 45.155C76.8308 45.0188 76.7144 44.9094 76.5738 44.8416C76.3457 44.7578 76.1029 44.7215 75.8603 44.735H74.1734V47.262C74.1597 47.4676 74.1754 47.6742 74.2201 47.8754C74.2502 47.9526 74.307 48.0164 74.3801 48.0554C74.5163 48.1062 74.6619 48.1266 74.8069 48.1154H76.1404C76.4584 48.1283 76.7767 48.0992 77.0871 48.0287C77.3017 47.9548 77.4958 47.8315 77.6539 47.6687C77.9423 47.3546 78.1827 46.9996 78.3673 46.6152H78.594L77.9273 48.5355H71.9932V48.3287H72.2665C72.446 48.3271 72.6223 48.2813 72.7799 48.1954C72.8939 48.1423 72.9825 48.0465 73.0266 47.9287C73.0779 47.6855 73.0981 47.4369 73.0866 47.1886V42.208C73.1242 41.9001 73.0733 41.5879 72.94 41.3079C72.8513 41.2248 72.746 41.1616 72.631 41.1225C72.5161 41.0834 72.3941 41.0693 72.2732 41.0812H71.9998V40.8678H77.9073L77.9939 42.548H77.7739C77.7337 42.259 77.6434 41.9793 77.5072 41.7212C77.4049 41.5637 77.2556 41.4424 77.0805 41.3745C76.8227 41.3017 76.5545 41.2724 76.287 41.2879H74.1734Z" fill="black" fill-opacity="0.6"/>
<path d="M89.6623 40.8678V41.0811C89.4956 41.0721 89.3295 41.109 89.1823 41.1878C89.0302 41.2884 88.9063 41.4261 88.8222 41.5878C88.6806 41.894 88.5625 42.2106 88.4688 42.5346L86.3286 48.7088H86.1019L84.355 43.8015L82.6214 48.7021H82.4147L80.1411 42.3413C79.9677 41.8612 79.8611 41.5812 79.8144 41.4945C79.7504 41.3585 79.6423 41.248 79.5077 41.1811C79.3441 41.1012 79.1628 41.0645 78.981 41.0744V40.8611H81.828V41.0744H81.688C81.5238 41.0646 81.3613 41.1117 81.2279 41.2078C81.1804 41.248 81.1421 41.298 81.1156 41.3544C81.0891 41.4108 81.0751 41.4722 81.0746 41.5345C81.1183 41.8481 81.2012 42.155 81.3213 42.448L82.8281 46.7485L84.0949 43.1347L83.8682 42.468L83.6882 41.9546C83.6171 41.779 83.5277 41.6114 83.4215 41.4545C83.3756 41.3819 83.3141 41.3204 83.2415 41.2745C83.157 41.2102 83.0624 41.1606 82.9615 41.1278C82.8488 41.1103 82.7341 41.1103 82.6214 41.1278V40.9144H85.6085V41.1278H85.4018C85.2372 41.1137 85.0733 41.1612 84.9417 41.2611C84.8923 41.3081 84.8536 41.3652 84.8283 41.4285C84.803 41.4918 84.7916 41.5598 84.795 41.6278C84.8288 41.9742 84.9142 42.3136 85.0484 42.6346L86.5153 46.8018L87.9754 42.5813C88.104 42.2704 88.1871 41.9425 88.2221 41.6078C88.2213 41.5194 88.1934 41.4333 88.1421 41.3611C88.0907 41.29 88.0185 41.2364 87.9354 41.2078C87.7548 41.1488 87.5653 41.1217 87.3754 41.1278V40.9144L89.6623 40.8678Z" fill="black" fill-opacity="0.6"/>
<path d="M98.4103 48.5354V48.3287H98.697C98.8255 48.3367 98.9539 48.3121 99.0705 48.2574C99.187 48.2026 99.2879 48.1194 99.3637 48.0154C99.4716 47.7515 99.515 47.4658 99.4904 47.1819V42.2279C99.5278 41.9187 99.472 41.6053 99.3304 41.3278C99.2443 41.2401 99.1399 41.1725 99.0247 41.1298C98.9094 41.0872 98.7861 41.0705 98.6637 41.0811H98.377V40.8678H101.497C102.386 40.8262 103.274 40.9599 104.111 41.2612C104.724 41.538 105.232 42.0057 105.558 42.5947C105.926 43.2323 106.113 43.9587 106.098 44.6949C106.129 45.6748 105.783 46.6292 105.131 47.3619C104.693 47.7884 104.169 48.1161 103.594 48.3231C103.019 48.5302 102.407 48.6116 101.797 48.5621L98.4103 48.5354ZM100.597 47.982C100.993 48.0781 101.397 48.1317 101.804 48.142C102.211 48.1526 102.616 48.0759 102.99 47.9172C103.365 47.7585 103.702 47.5215 103.978 47.2219C104.54 46.5083 104.845 45.6265 104.845 44.7183C104.845 43.81 104.54 42.9282 103.978 42.2146C103.693 41.9137 103.349 41.6766 102.966 41.5192C102.583 41.3617 102.171 41.2874 101.757 41.3012C101.366 41.3081 100.976 41.3618 100.597 41.4612V47.982Z" fill="black" fill-opacity="0.6"/>
<path d="M111.872 45.9685H108.905L108.385 47.182C108.281 47.3907 108.215 47.6166 108.191 47.8487C108.193 47.9094 108.208 47.969 108.237 48.0223C108.266 48.0757 108.308 48.1213 108.358 48.1554C108.58 48.2727 108.827 48.3324 109.078 48.3288V48.5355H106.665V48.3288C106.886 48.3067 107.099 48.2312 107.285 48.1087C107.574 47.7849 107.8 47.4094 107.951 47.0019L110.652 40.6945H110.845L113.512 47.0753C113.639 47.4412 113.836 47.7787 114.092 48.0687C114.301 48.2336 114.559 48.3249 114.826 48.3288V48.5355H111.799V48.3288C112.016 48.3393 112.231 48.286 112.419 48.1754C112.468 48.1382 112.509 48.0898 112.536 48.0343C112.564 47.9787 112.579 47.9175 112.579 47.8554C112.551 47.5837 112.475 47.3193 112.352 47.0753L111.872 45.9685ZM111.712 45.5551L110.412 42.468L109.078 45.5684L111.712 45.5551Z" fill="black" fill-opacity="0.6"/>
<path d="M118.499 48.3287V48.5355H115.219V48.3287H115.492C115.617 48.3366 115.743 48.3155 115.858 48.2669C115.974 48.2183 116.077 48.1436 116.159 48.0487C116.279 47.7767 116.325 47.4776 116.292 47.1819V42.228C116.31 41.9701 116.285 41.7111 116.219 41.4612C116.175 41.3522 116.092 41.264 115.985 41.2145C115.828 41.1278 115.652 41.082 115.472 41.0812H115.199V40.8678H118.499V41.0812H118.226C118.101 41.0739 117.977 41.0947 117.861 41.1421C117.746 41.1894 117.643 41.262 117.559 41.3545C117.435 41.628 117.387 41.9296 117.419 42.228V47.1819C117.406 47.4398 117.43 47.6981 117.492 47.9487C117.543 48.0533 117.628 48.1378 117.732 48.1887C117.888 48.2806 118.065 48.329 118.246 48.3287H118.499Z" fill="black" fill-opacity="0.6"/>
<path d="M125.427 46.4152L125.614 46.4552L124.947 48.5355H119.013V48.3287H119.299C119.428 48.336 119.557 48.3104 119.674 48.2544C119.79 48.1985 119.891 48.1139 119.966 48.0087C120.071 47.7443 120.113 47.4587 120.086 47.1753V42.228C120.123 41.9187 120.068 41.6053 119.926 41.3279C119.84 41.2397 119.736 41.1719 119.621 41.1292C119.505 41.0865 119.382 41.0701 119.259 41.0812H118.973V40.8678H122.5V41.0812C122.21 41.0565 121.919 41.0952 121.646 41.1945C121.501 41.2517 121.381 41.3579 121.306 41.4945C121.227 41.774 121.198 42.0651 121.22 42.3547V47.1753C121.199 47.4012 121.229 47.6288 121.306 47.842C121.354 47.925 121.43 47.9886 121.52 48.022C121.81 48.0722 122.105 48.0901 122.4 48.0754H122.96C123.377 48.0964 123.795 48.0537 124.2 47.9487C124.458 47.8545 124.687 47.6962 124.867 47.4886C125.109 47.1628 125.298 46.8004 125.427 46.4152Z" fill="black" fill-opacity="0.6"/>
<path d="M130.221 40.8678H132.888V41.0812H132.741C132.592 41.0941 132.447 41.1372 132.315 41.2078C132.122 41.2992 131.948 41.4259 131.801 41.5812C131.584 41.8261 131.392 42.0919 131.228 42.3747L129.381 45.2884V47.2086C129.345 47.5107 129.398 47.8166 129.534 48.0887C129.623 48.1728 129.728 48.2375 129.842 48.2788C129.957 48.3201 130.079 48.3371 130.201 48.3287H130.501V48.5355H127.241V48.3287H127.514C127.641 48.3378 127.768 48.3158 127.884 48.2647C128 48.2136 128.102 48.1348 128.181 48.0354C128.292 47.775 128.336 47.4905 128.307 47.2086V45.395L126.201 42.1813C126.048 41.9362 125.881 41.7002 125.7 41.4745C125.541 41.3352 125.361 41.2206 125.167 41.1345C125.063 41.0949 124.952 41.0767 124.84 41.0812V40.8678H128.121V41.0812H127.947C127.778 41.0798 127.61 41.121 127.461 41.2012C127.391 41.2354 127.333 41.2887 127.293 41.3548C127.253 41.421 127.232 41.4972 127.234 41.5746C127.292 41.8443 127.411 42.0973 127.581 42.3146L129.181 44.7816L130.688 42.4213C130.862 42.1878 130.976 41.9155 131.021 41.6279C131.023 41.5286 130.995 41.431 130.941 41.3479C130.885 41.2595 130.804 41.1898 130.708 41.1478C130.561 41.0946 130.404 41.0719 130.248 41.0812L130.221 40.8678Z" fill="black" fill-opacity="0.6"/>
<path d="M27.1543 37.8407H133.835" stroke="black" stroke-opacity="0.6" stroke-width="0.75"/>
</g>
</g>
<defs>
<clipPath id="clip0_144_263">
<rect width="160" height="48" fill="white" transform="translate(0.494629 0.750977)"/>
</clipPath>
</defs>
</svg>
