<svg width="128" height="32" viewBox="0 0 128 32" fill="none" xmlns="http://www.w3.org/2000/svg">
<path d="M11.0791 11.5922C11.073 12.3824 10.9268 13.1652 10.6471 13.9042C10.5191 14.2322 10.1991 14.7042 8.99914 14.7042C7.79914 14.7042 7.47914 14.2642 7.35114 13.9042C7.0729 13.1704 6.92665 12.3931 6.91914 11.6082V2.55225H1.80714V11.6882C1.80592 12.6772 1.88619 13.6645 2.04714 14.6402C2.23829 15.7155 2.77138 16.7003 3.56714 17.4482C4.10986 17.9976 4.76862 18.4185 5.49514 18.6802C6.19387 18.9414 6.92196 19.1161 7.66314 19.2002L8.34314 19.2642H8.99914H9.65514L10.3271 19.2002C11.0713 19.1135 11.802 18.9362 12.5031 18.6722C13.2155 18.4085 13.8623 17.9936 14.3991 17.4562C15.1937 16.7041 15.7264 15.7172 15.9191 14.6402C16.0807 13.6565 16.161 12.6612 16.1591 11.6642V2.55225H11.0791V11.5922Z" fill="#961E27"/>
<path d="M30.7019 10.7362L24.3419 2.55225H19.5259V18.8882H24.6379V10.6882L31.0059 18.8882H35.8139V2.55225H30.7019V10.7362Z" fill="#961E27"/>
<path d="M44.2736 2.55225H39.1616V18.8882H44.2736V2.55225Z" fill="#961E27"/>
<path d="M51.9272 18.9506H61.5992V14.7346H56.7992V12.7986H61.3912V8.57463H56.7992V6.70263H61.5992V2.49463H51.9272V18.9506ZM60.5912 9.35063V11.9986H55.9992V15.4706H60.7992V18.1666H52.6872V3.25463H60.8392V5.95063H55.9992V9.32663L60.5912 9.35063Z" fill="#961E27"/>
<path d="M76.6907 11.4181L69.8667 2.61812L69.7467 2.47412H65.1147V18.9541H69.9147V10.0101L76.7387 18.8101L76.8507 18.9541H81.4907V2.49812H76.6907V11.4181ZM77.4427 12.8501V3.25012H80.8027V18.1941H77.2507L69.9067 8.72212L69.7947 8.57812H69.1867V18.1781H65.8747V3.25812H69.3787L76.7308 12.7061L76.8427 12.8501H77.4427Z" fill="#961E27"/>
<path d="M91.887 6.06383C91.3572 5.60909 90.6721 5.37689 89.975 5.41583H88.271V10.3998H89.975C90.6665 10.4354 91.3461 10.2099 91.879 9.76783C92.1265 9.53527 92.3205 9.25171 92.4476 8.93677C92.5747 8.62183 92.6318 8.28303 92.615 7.94383C92.6373 7.59642 92.5837 7.24832 92.458 6.92369C92.3323 6.59905 92.1374 6.30565 91.887 6.06383ZM91.887 7.91183C91.9029 8.14348 91.8682 8.37581 91.7853 8.5927C91.7025 8.80959 91.5734 9.00585 91.407 9.16783C91.0111 9.48309 90.5121 9.63991 90.007 9.60783H89.063V6.16783H90.007C90.515 6.1338 91.0165 6.29715 91.407 6.62383C91.568 6.79499 91.6911 6.99816 91.7683 7.22008C91.8455 7.44201 91.875 7.67772 91.855 7.91183H91.887Z" fill="#961E27"/>
<path d="M95.5418 10.823C96.1762 9.91352 96.5092 8.82782 96.4938 7.719C96.5564 6.96318 96.4331 6.20353 96.1347 5.5063C95.8363 4.80908 95.3718 4.19546 94.7818 3.719C93.5813 2.87102 92.1391 2.43331 90.6698 2.47099H84.1978V18.951H88.9978V13.767L92.1978 18.775L92.3098 18.951H98.3978L93.3578 12.391C94.2449 12.136 95.0165 11.582 95.5418 10.823ZM92.7498 18.191L89.0138 12.327L88.9018 12.151H88.2698V18.191H84.9578V3.25499H90.6618C91.969 3.21841 93.2534 3.60261 94.3258 4.351C94.8155 4.7565 95.1995 5.27485 95.4448 5.8615C95.69 6.44815 95.7892 7.08557 95.7338 7.719C95.7533 8.67143 95.4734 9.60598 94.9338 10.391C94.6639 10.7651 94.3216 11.0811 93.9272 11.3203C93.5327 11.5594 93.0942 11.7168 92.6378 11.783L92.0138 11.887L96.8138 18.191H92.7498Z" fill="#961E27"/>
<path d="M121.305 14.7346V2.49463H116.505V18.9506H126.217V14.7346H121.305ZM125.433 15.4946V18.1906H117.233V3.25463H120.553V15.4946H125.433Z" fill="#961E27"/>
<path d="M102.402 4.49085C101.17 5.25404 100.193 6.36556 99.5933 7.68463C98.9939 9.0037 98.7994 10.471 99.0345 11.9007C99.2696 13.3304 99.9236 14.6581 100.914 15.7158C101.904 16.7735 103.186 17.5136 104.597 17.8422C106.008 18.1709 107.485 18.0734 108.841 17.5621C110.196 17.0508 111.37 16.1486 112.212 14.9699C113.055 13.7913 113.529 12.389 113.574 10.9409C113.619 9.49267 113.233 8.06368 112.466 6.83485C111.438 5.19387 109.803 4.02624 107.917 3.58704C106.032 3.14785 104.049 3.47278 102.402 4.49085ZM109.874 16.4909C108.73 17.2179 107.397 17.5891 106.042 17.5572C104.688 17.5253 103.373 17.0918 102.265 16.3117C101.157 15.5316 100.306 14.44 99.8196 13.1755C99.333 11.9109 99.233 10.5303 99.5321 9.20882C99.8313 7.88731 100.516 6.68442 101.5 5.75273C102.484 4.82104 103.722 4.20253 105.058 3.97564C106.394 3.74875 107.767 3.92371 109.003 4.47833C110.239 5.03295 111.283 5.94223 112.002 7.09085C112.481 7.8516 112.805 8.69937 112.955 9.58555C113.106 10.4717 113.08 11.3789 112.879 12.2551C112.679 13.1313 112.307 13.9593 111.786 14.6917C111.265 15.424 110.604 16.0463 109.842 16.5229L109.874 16.4909Z" fill="#961E27"/>
<path d="M105.662 11.0538L105.39 10.4858L103.902 7.19775C102.993 7.79864 102.355 8.73015 102.122 9.79429C101.89 10.8584 102.081 11.9713 102.656 12.8964C103.232 13.8215 104.145 14.4859 105.202 14.7483C106.259 15.0107 107.377 14.8505 108.318 14.3018L106.014 11.4618L105.662 11.0538ZM106.198 12.4538L106.086 12.6458L105.094 14.3978L105.254 12.4378C104.962 12.2796 104.716 12.048 104.542 11.7658C104.368 11.4839 104.271 11.161 104.262 10.8298L102.398 10.1018L104.39 9.96575H104.614C104.475 10.2292 104.407 10.5246 104.418 10.8223C104.43 11.1201 104.519 11.4096 104.678 11.6618C104.834 11.9135 105.054 12.1198 105.315 12.2602C105.576 12.4006 105.87 12.4701 106.166 12.4618L106.198 12.4538Z" fill="#961E27"/>
<path d="M104.13 7.09079L106.402 9.86679L106.794 10.3548L107.026 10.8668L108.546 14.1948C109.455 13.5939 110.093 12.6624 110.326 11.5983C110.558 10.5341 110.367 9.42122 109.792 8.49613C109.217 7.57104 108.303 6.90668 107.246 6.64425C106.189 6.38182 105.071 6.54202 104.13 7.09079ZM108.002 11.4428H107.778C107.918 11.1794 107.985 10.8839 107.974 10.5862C107.963 10.2885 107.873 9.99895 107.714 9.74679C107.557 9.4956 107.337 9.28969 107.076 9.1494C106.816 9.00911 106.523 8.93928 106.226 8.94679L106.402 8.80279L107.394 7.06679L107.234 9.03479C107.524 9.19215 107.769 9.42065 107.946 9.69879C108.119 9.98158 108.215 10.3039 108.226 10.6348L110.058 11.3548L108.002 11.4428Z" fill="#961E27"/>
<path d="M111.906 8.31366C111.362 7.00219 110.378 5.92151 109.122 5.25766L108.194 6.46566L108.514 4.97766C107.199 4.4435 105.739 4.38688 104.386 4.81766L104.554 6.12966L103.842 5.01766C102.538 5.57103 101.464 6.55709 100.802 7.80966L102.01 8.73766L100.522 8.41766C99.9949 9.73726 99.9412 11.1989 100.37 12.5537L101.682 12.3857L100.57 13.0977C101.114 14.4114 102.099 15.4947 103.354 16.1617L104.282 14.9457L103.962 16.4417C105.279 16.9679 106.737 17.0244 108.09 16.6017L107.922 15.2817L108.634 16.4017C109.947 15.851 111.027 14.8612 111.69 13.6017L110.482 12.6737L111.97 13.0017C112.498 11.6793 112.551 10.2151 112.122 8.85766L110.81 9.03366L111.906 8.31366ZM108.626 14.4017L108.938 15.0817L108.978 15.1617L108.45 14.5137C107.465 15.1268 106.276 15.3234 105.146 15.0601C104.015 14.7968 103.036 14.0952 102.422 13.1097C101.809 12.1241 101.613 10.9354 101.876 9.80488C102.139 8.67441 102.841 7.69484 103.826 7.08166L103.482 6.28166L103.538 6.34566L104.01 6.92166C105.002 6.30954 106.197 6.11653 107.331 6.38508C108.465 6.65363 109.446 7.36175 110.058 8.35366C110.671 9.34557 110.864 10.54 110.595 11.6742C110.326 12.8085 109.618 13.7895 108.626 14.4017Z" fill="#961E27"/>
<path d="M108.528 2.9432C108.745 2.80356 108.909 2.59559 108.995 2.35218C109.08 2.10877 109.082 1.84381 109 1.5992C108.894 1.3117 108.678 1.07812 108.4 0.94985C108.121 0.821575 107.804 0.80911 107.516 0.915197C107.229 1.02128 106.995 1.23723 106.867 1.51554C106.738 1.79384 106.726 2.1117 106.832 2.3992C106.867 2.50291 106.918 2.60022 106.984 2.6872C104.9 2.48288 102.818 3.08823 101.168 4.37779C99.5184 5.66734 98.4282 7.5422 98.1235 9.61376C97.8187 11.6853 98.3227 13.7947 99.5311 15.5047C100.739 17.2147 102.559 18.3942 104.614 18.7987C106.668 19.2032 108.8 18.8017 110.566 17.6774C112.332 16.5531 113.598 14.7922 114.102 12.7597C114.605 10.7273 114.307 8.57906 113.269 6.7604C112.232 4.94175 110.534 3.59209 108.528 2.9912V2.9432ZM107.728 1.4072C107.874 1.35791 108.032 1.36707 108.171 1.43275C108.31 1.49843 108.418 1.61548 108.472 1.7592C108.519 1.87899 108.523 2.01115 108.483 2.13351C108.444 2.25587 108.364 2.36098 108.256 2.4312C108.263 2.38614 108.263 2.34026 108.256 2.2952C108.236 2.23809 108.204 2.18564 108.163 2.14092C108.122 2.09621 108.072 2.06013 108.017 2.0348C107.962 2.00947 107.902 1.99539 107.842 1.9934C107.781 1.99141 107.721 2.00154 107.664 2.0232C107.565 2.05453 107.481 2.12342 107.432 2.2152C107.431 2.19656 107.431 2.17783 107.432 2.1592C107.374 2.02084 107.372 1.8656 107.426 1.72562C107.479 1.58564 107.585 1.47163 107.72 1.4072H107.728ZM110.256 17.1752C108.977 17.9707 107.491 18.3692 105.986 18.3204C104.481 18.2716 103.024 17.7776 101.8 16.9009C100.575 16.0242 99.6381 14.8041 99.1068 13.395C98.5756 11.9858 98.474 10.4508 98.815 8.98388C99.156 7.51701 99.9243 6.18416 101.023 5.15382C102.121 4.12347 103.5 3.44189 104.986 3.19523C106.471 2.94857 107.997 3.1479 109.369 3.76802C110.742 4.38814 111.899 5.40122 112.696 6.6792C113.226 7.52862 113.584 8.47433 113.747 9.46211C113.911 10.4499 113.879 11.4603 113.651 12.4354C113.424 13.4105 113.006 14.3312 112.422 15.1445C111.838 15.9579 111.099 16.648 110.248 17.1752H110.256Z" fill="#961E27"/>
<path d="M34.5846 28.0006C34.9686 27.2006 35.3846 26.4006 35.7446 25.6006H36.6406C36.6635 25.725 36.6795 25.8505 36.6886 25.9766C36.6886 26.4966 36.6886 27.0086 36.6886 27.5286C36.6886 27.6646 36.6886 27.8006 36.6886 27.9286C36.8326 27.9926 36.8726 27.9286 36.9046 27.8246L37.7046 26.1366L37.9686 25.6086H38.3926C38.3926 25.6086 38.4326 25.6966 38.3926 25.7126C38.2326 26.0726 38.0646 26.4246 37.8966 26.7766C37.4886 27.5766 37.0966 28.4406 36.6806 29.2646C36.3715 29.3248 36.0537 29.3248 35.7446 29.2646C35.7446 29.1206 35.6966 29.0086 35.6886 28.8886C35.6886 28.3526 35.6886 27.8166 35.6886 27.2886C35.6886 27.1686 35.6886 27.0486 35.6886 26.9286C35.5526 26.9286 35.5206 26.9766 35.4806 27.0566C35.2166 27.6166 34.9526 28.1846 34.6806 28.7446C34.6006 28.9206 34.5046 29.0886 34.4086 29.2726H33.6006C33.5686 29.1711 33.5471 29.0666 33.5366 28.9606V25.9686C33.5433 25.84 33.5566 25.7119 33.5766 25.5846C33.8425 25.5551 34.1108 25.5551 34.3766 25.5846C34.4044 25.7088 34.4258 25.8343 34.4406 25.9606C34.4406 26.5126 34.4406 27.0646 34.4406 27.6166C34.4327 27.7365 34.4327 27.8568 34.4406 27.9766H34.5446" fill="#961E27"/>
<path d="M71.1294 25.6009H71.6094C71.5923 25.6768 71.571 25.7515 71.5454 25.8249C70.9854 26.9769 70.4174 28.1289 69.8574 29.2729C69.5522 29.3451 69.2345 29.3451 68.9294 29.2729C68.8778 29.0096 68.8616 28.7405 68.8814 28.4729C68.8814 28.2249 68.8814 27.9689 68.8814 27.7209C68.8989 27.4546 68.8989 27.1873 68.8814 26.9209H68.7854C68.7854 26.9209 68.7454 26.9209 68.7374 26.9209C68.3694 27.7209 67.9934 28.4569 67.6174 29.2329C67.3221 29.297 67.0166 29.297 66.7214 29.2329C66.697 29.1781 66.6756 29.122 66.6574 29.0649L66.6094 25.8649C66.6159 25.7708 66.6293 25.6772 66.6494 25.5849C66.9129 25.527 67.1858 25.527 67.4494 25.5849C67.5854 25.6969 67.5534 25.8489 67.5614 25.9849C67.5614 26.5209 67.5614 27.0569 67.5614 27.5849C67.5614 27.6969 67.5614 27.8169 67.6174 28.0169C67.8803 27.6314 68.1003 27.2183 68.2734 26.7849C68.4734 26.3929 68.6654 25.9849 68.8654 25.5849H69.7534C69.8974 26.3849 69.7534 27.1849 69.8894 28.0489C70.1596 27.6455 70.39 27.2168 70.5774 26.7689C70.7774 26.3769 70.9614 25.9689 71.1534 25.5849" fill="#961E27"/>
<path d="M52.6543 28.8862C52.5101 28.9802 52.3605 29.0657 52.2063 29.1422C52.0334 29.2278 51.8507 29.2923 51.6623 29.3342C51.5617 29.3561 51.4576 29.3571 51.3566 29.3372C51.2556 29.3173 51.1597 29.2768 51.0749 29.2183C50.9902 29.1598 50.9183 29.0845 50.8639 28.9971C50.8094 28.9097 50.7735 28.812 50.7583 28.7102C50.7264 28.5329 50.7264 28.3514 50.7583 28.1742C50.9103 27.3742 51.0783 26.5742 51.2383 25.7182C51.2614 25.6617 51.291 25.608 51.3263 25.5582C51.6314 25.5145 51.9412 25.5145 52.2463 25.5582C52.2463 25.7582 52.2463 25.9342 52.1663 26.1022C52.0223 26.8302 51.8703 27.5662 51.7263 28.3022C51.6986 28.4203 51.6825 28.5409 51.6783 28.6622C51.6736 28.7077 51.6811 28.7537 51.7002 28.7953C51.7193 28.8369 51.7492 28.8727 51.7867 28.8988C51.8243 28.9249 51.8682 28.9405 51.9139 28.9439C51.9595 28.9473 52.0053 28.9384 52.0463 28.9182C52.2445 28.8462 52.4215 28.7257 52.5612 28.5678C52.7009 28.41 52.7989 28.2196 52.8463 28.0142C52.9983 27.3422 53.1263 26.6542 53.2623 25.9742C53.2623 25.8382 53.3343 25.7022 53.3743 25.5582C53.6777 25.4943 53.991 25.4943 54.2943 25.5582C54.3026 25.6673 54.3026 25.777 54.2943 25.8862C54.0863 26.9342 53.8863 27.9822 53.6543 29.0222C53.5508 29.4169 53.4143 29.8023 53.2463 30.1742C53.1062 30.5111 52.8587 30.7924 52.5423 30.9742C52.2904 31.1084 52.0116 31.1846 51.7265 31.197C51.4413 31.2095 51.157 31.1579 50.8943 31.0462C50.9032 30.9974 50.9223 30.9511 50.9503 30.9102C51.1023 30.7502 51.2543 30.6062 51.4143 30.4462C51.5743 30.5102 51.7183 30.5742 51.8703 30.6222C52.1583 30.7182 52.3343 30.6222 52.3823 30.3502C52.5095 29.8704 52.5952 29.3806 52.6383 28.8862" fill="#961E27"/>
<path d="M40.6552 25.9425C40.7766 25.8613 40.9021 25.7866 41.0312 25.7185C41.1918 25.6385 41.3609 25.5768 41.5352 25.5345C41.6298 25.5146 41.7275 25.5157 41.8216 25.5375C41.9157 25.5593 42.004 25.6013 42.0801 25.6608C42.1563 25.7202 42.2186 25.7955 42.2627 25.8815C42.3067 25.9674 42.3315 26.062 42.3352 26.1585C42.368 26.4242 42.368 26.6928 42.3352 26.9585C42.2712 27.4225 42.1672 27.8705 42.0872 28.3265C42.0755 28.4676 42.0755 28.6094 42.0872 28.7505C42.0892 28.7861 42.0992 28.8207 42.1167 28.8518C42.1341 28.8828 42.1585 28.9094 42.1879 28.9295C42.2173 28.9497 42.2509 28.9627 42.2862 28.9677C42.3215 28.9728 42.3574 28.9696 42.3912 28.9585C42.5436 28.9088 42.6849 28.83 42.8072 28.7265C42.9672 28.5665 43.0952 28.3745 43.2472 28.1985C43.2472 28.1505 43.3352 28.1265 43.4312 28.0625C43.4355 28.1502 43.4222 28.2379 43.3919 28.3204C43.3617 28.4028 43.3152 28.4783 43.2552 28.5425C43.0052 28.9459 42.6052 29.2336 42.1432 29.3425C41.9495 29.3856 41.7469 29.3631 41.5672 29.2785C41.4485 29.2361 41.3449 29.1596 41.2694 29.0586C41.194 28.9575 41.1501 28.8364 41.1432 28.7105C41.1393 28.4988 41.1554 28.2872 41.1913 28.0785C41.2633 27.6225 41.3672 27.1665 41.4392 26.7105C41.5271 26.4785 41.5271 26.2225 41.4392 25.9905C41.3745 25.9559 41.3007 25.942 41.2277 25.9506C41.1548 25.9592 41.0862 25.9898 41.0312 26.0385C40.7325 26.2368 40.5229 26.544 40.4473 26.8945C40.3193 27.5505 40.1832 28.1905 40.0552 28.8385L39.9592 29.2545C39.6551 29.3345 39.3354 29.3345 39.0312 29.2545C39.1007 28.6701 39.2048 28.0905 39.3432 27.5185C39.4472 26.9425 39.5672 26.3665 39.6952 25.7905C39.8232 25.2145 39.8952 24.6385 40.0792 24.0625H40.9272C40.9352 24.1423 40.9352 24.2227 40.9272 24.3025C40.8712 24.6465 40.7912 24.9985 40.7272 25.3505C40.6819 25.5506 40.6819 25.7584 40.7272 25.9585" fill="#961E27"/>
<path d="M22.9741 29.2068L23.9981 24.3108C24.0202 24.2232 24.0496 24.1375 24.0861 24.0548C24.3718 24.0026 24.6645 24.0026 24.9501 24.0548C24.9501 24.5668 24.7261 25.0308 24.7421 25.5668L25.2221 25.5188C25.4944 25.4821 25.7701 25.5538 25.9901 25.7183C26.21 25.8829 26.3566 26.1273 26.3981 26.3988C26.4272 26.5193 26.4407 26.6429 26.4381 26.7668C26.4167 27.4124 26.2203 28.0401 25.8701 28.5828C25.6615 28.8991 25.3368 29.1204 24.9661 29.1988C24.313 29.2862 23.6512 29.2862 22.9981 29.1988L22.9741 29.2068ZM25.5661 26.9908C25.5834 26.7421 25.5423 26.4928 25.4461 26.2628C25.4017 26.1766 25.3369 26.1024 25.2575 26.0467C25.1781 25.991 25.0863 25.9553 24.9901 25.9428C24.9426 25.9311 24.8931 25.9297 24.845 25.9387C24.7969 25.9477 24.7512 25.9668 24.7111 25.9948C24.671 26.0228 24.6373 26.0591 24.6123 26.1012C24.5873 26.1433 24.5715 26.1902 24.5661 26.2388C24.4141 26.9668 24.2621 27.6948 24.1261 28.4228C24.0701 28.7108 24.1901 28.8468 24.4861 28.8708C24.5738 28.8871 24.6643 28.8801 24.7485 28.8506C24.8326 28.8212 24.9077 28.7702 24.9661 28.7028C25.0968 28.5614 25.2072 28.4026 25.2941 28.2308C25.4794 27.8441 25.5725 27.4196 25.5661 26.9908Z" fill="#961E27"/>
<path d="M98.3989 24.0469H99.1989C99.3189 24.1509 99.2789 24.2629 99.2629 24.3589C99.2149 24.6069 99.1589 24.8469 99.1109 25.0949C99.0629 25.3429 99.1109 25.3749 99.0629 25.4869C99.1669 25.6309 99.2789 25.5509 99.3749 25.5349C99.5565 25.4853 99.7477 25.4816 99.9311 25.5241C100.114 25.5667 100.284 25.6542 100.426 25.7788C100.567 25.9033 100.675 26.061 100.74 26.2377C100.805 26.4144 100.825 26.6045 100.799 26.7909C100.794 27.4344 100.603 28.0626 100.247 28.5989C100.053 28.9051 99.7499 29.1256 99.3989 29.2149C98.7464 29.311 98.0834 29.311 97.4309 29.2149C97.4189 29.1488 97.4189 29.081 97.4309 29.0149C97.7509 27.3749 98.0789 25.7349 98.4149 24.0469H98.3989ZM99.9589 27.0389C99.9819 26.7408 99.915 26.4426 99.7669 26.1829C99.7089 26.0935 99.6249 26.0241 99.5261 25.984C99.4274 25.9439 99.3188 25.9352 99.2149 25.9589C98.9989 25.9589 98.9509 26.1669 98.9189 26.3429C98.7909 26.9509 98.6709 27.5669 98.5509 28.1749C98.5509 28.2949 98.4949 28.4149 98.4789 28.5349C98.4679 28.5971 98.4797 28.6612 98.512 28.7155C98.5443 28.7698 98.595 28.8108 98.6549 28.8309C98.7672 28.8877 98.8948 28.9067 99.0188 28.885C99.1428 28.8634 99.2564 28.8023 99.3429 28.7109C99.4727 28.5688 99.583 28.4101 99.6709 28.2389C99.8418 27.8606 99.9395 27.4535 99.9589 27.0389Z" fill="#961E27"/>
<path d="M76.7992 28.0966C76.7188 28.3998 76.5558 28.6747 76.3284 28.8908C76.101 29.1069 75.8181 29.2557 75.5113 29.3206C75.3401 29.3745 75.155 29.3625 74.9922 29.287C74.8295 29.2116 74.7007 29.078 74.6313 28.9126L74.5032 28.6566L74.1993 28.9286C74.0063 29.1114 73.7693 29.2409 73.5113 29.3046C73.3752 29.3481 73.2317 29.3629 73.0897 29.348C72.9477 29.3332 72.8103 29.289 72.6862 29.2183C72.5622 29.1476 72.4541 29.052 72.3689 28.9374C72.2837 28.8228 72.2232 28.6918 72.1913 28.5526C72.157 28.4328 72.1382 28.3092 72.1353 28.1846C72.1468 27.5752 72.3178 26.9794 72.6313 26.4566C72.7957 26.1781 73.0296 25.947 73.31 25.7857C73.5904 25.6245 73.9078 25.5387 74.2313 25.5366H75.9032C75.9492 25.5881 75.979 25.6519 75.9889 25.7202C75.9989 25.7885 75.9886 25.8582 75.9592 25.9206L75.4792 28.2166C75.4476 28.3377 75.4235 28.4606 75.4073 28.5846C75.4073 28.9046 75.5912 29.0646 75.8792 28.9046C76.0738 28.7815 76.2536 28.6366 76.4152 28.4726C76.4961 28.3807 76.5684 28.2817 76.6312 28.1766C76.6689 28.1427 76.7122 28.1156 76.7592 28.0966H76.7992ZM73.1193 28.0966C73.1448 28.2756 73.1849 28.4522 73.2393 28.6246C73.2516 28.6727 73.2747 28.7174 73.3068 28.7553C73.3389 28.7932 73.3793 28.8233 73.4247 28.8433C73.4702 28.8633 73.5196 28.8728 73.5692 28.8709C73.6188 28.8691 73.6674 28.856 73.7113 28.8326C73.9006 28.7596 74.0709 28.6446 74.2094 28.4964C74.348 28.3481 74.4512 28.1704 74.5113 27.9766C74.6633 27.4486 74.7273 26.8966 74.8393 26.3766C74.8503 26.2927 74.8389 26.2074 74.8062 26.1293C74.7736 26.0512 74.7209 25.9831 74.6535 25.9319C74.5861 25.8807 74.5064 25.8483 74.4224 25.8379C74.3384 25.8275 74.2531 25.8395 74.1753 25.8726C73.949 25.9769 73.7594 26.147 73.6313 26.3606C73.2972 26.8882 73.112 27.4964 73.0953 28.1206" fill="#961E27"/>
<path d="M78.2077 29.2314C77.8882 29.2952 77.5593 29.2952 77.2397 29.2314C77.3094 28.6111 77.4217 27.9963 77.5757 27.3914C77.6718 26.787 77.8027 26.1887 77.9677 25.5994C78.2624 25.5593 78.5611 25.5593 78.8557 25.5994C78.8557 25.7434 78.8557 25.8794 78.9037 26.0634L79.2237 25.8554C79.437 25.6932 79.6926 25.5959 79.9597 25.5754C80.0517 25.5618 80.1455 25.5666 80.2356 25.5895C80.3257 25.6124 80.4104 25.6529 80.4848 25.7087C80.5592 25.7645 80.6218 25.8344 80.6689 25.9145C80.7161 25.9946 80.747 26.0833 80.7597 26.1754C80.7957 26.4221 80.7957 26.6727 80.7597 26.9194C80.7037 27.3194 80.5997 27.7194 80.5277 28.1274C80.4902 28.3549 80.4688 28.5848 80.4637 28.8154C80.4641 28.8466 80.4715 28.8773 80.4853 28.9053C80.4991 28.9332 80.5191 28.9577 80.5437 28.9769C80.5683 28.9961 80.5968 29.0096 80.6273 29.0162C80.6578 29.0229 80.6894 29.0226 80.7197 29.0154C80.8588 28.9847 80.9897 28.9247 81.1037 28.8394C81.272 28.6594 81.4296 28.4697 81.5757 28.2714C81.6317 28.2074 81.6637 28.1114 81.7757 28.1114C81.8877 28.1114 81.8237 28.1834 81.8157 28.1994C81.7256 28.4511 81.5825 28.6806 81.3962 28.8724C81.21 29.0642 80.9847 29.2139 80.7357 29.3114C80.6125 29.3788 80.4738 29.4127 80.3334 29.4095C80.193 29.4063 80.0559 29.3662 79.9359 29.2932C79.8159 29.2203 79.7172 29.117 79.6498 28.9938C79.5823 28.8706 79.5485 28.7318 79.5517 28.5914C79.5425 28.3421 79.5613 28.0925 79.6077 27.8474C79.6717 27.4474 79.7597 27.0474 79.8317 26.6394C79.8595 26.5185 79.8756 26.3953 79.8797 26.2714C79.8797 25.9994 79.6957 25.8714 79.4477 25.9994C79.2503 26.0839 79.0752 26.2132 78.9364 26.377C78.7975 26.5409 78.6987 26.7348 78.6477 26.9434C78.5277 27.4634 78.4397 27.9914 78.3357 28.5434L78.1837 29.3034" fill="#961E27"/>
<path d="M62.0702 25.6006C62.3707 25.5361 62.6816 25.5361 62.9822 25.6006C62.9822 25.7526 62.9822 25.8886 62.9342 26.0246C62.7982 26.8246 62.6542 27.5686 62.5102 28.3366C62.4944 28.4587 62.4944 28.5824 62.5102 28.7046C62.5044 28.7496 62.512 28.7954 62.532 28.8362C62.5521 28.877 62.5837 28.911 62.6229 28.9341C62.6621 28.9571 62.7071 28.968 62.7525 28.9656C62.7979 28.9633 62.8416 28.9476 62.8782 28.9206C63.1832 28.7157 63.4354 28.4416 63.6142 28.1206C63.7182 28.1206 63.7742 28.1206 63.7342 28.2406C63.5403 28.703 63.1726 29.0707 62.7102 29.2646C62.6222 29.3187 62.5236 29.3531 62.4211 29.3653C62.3186 29.3775 62.2146 29.3673 62.1164 29.3353C62.0183 29.3033 61.9282 29.2504 61.8525 29.1802C61.7769 29.1099 61.7174 29.0241 61.6782 28.9286L61.5822 28.7606C61.4939 28.8119 61.4084 28.868 61.3262 28.9286C61.1268 29.106 60.8924 29.2396 60.6382 29.3206C60.5423 29.3637 60.4378 29.3841 60.3328 29.3801C60.2277 29.3761 60.1251 29.3478 60.0328 29.2974C59.9406 29.247 59.8613 29.1759 59.8011 29.0897C59.741 29.0035 59.7016 28.9045 59.6862 28.8006C59.6463 28.6079 59.6463 28.4092 59.6862 28.2166C59.8302 27.3606 59.9982 26.5046 60.1662 25.6486C60.4504 25.5722 60.7473 25.5559 61.0382 25.6006C61.0956 25.8046 61.0956 26.0205 61.0382 26.2246C60.8942 26.9766 60.7422 27.7286 60.6062 28.4806C60.5903 28.6027 60.5903 28.7264 60.6062 28.8486C60.6127 28.8745 60.6243 28.8989 60.6404 28.9202C60.6564 28.9416 60.6766 28.9595 60.6998 28.9729C60.7229 28.9864 60.7484 28.995 60.775 28.9984C60.8015 29.0018 60.8284 28.9998 60.8542 28.9926C60.9384 28.9718 61.0175 28.9336 61.0862 28.8806C61.3783 28.6385 61.5625 28.2903 61.5982 27.9126C61.7342 27.1126 61.8942 26.3766 62.0462 25.5686" fill="#961E27"/>
<path d="M93.7458 26.9458C93.7266 27.3804 93.6147 27.8059 93.4178 28.1938C93.2855 28.4668 93.0953 28.7077 92.8605 28.8998C92.6256 29.0918 92.3517 29.2304 92.0578 29.3058C91.8602 29.3621 91.6522 29.3724 91.45 29.3357C91.2477 29.2991 91.0566 29.2166 90.8912 29.0945C90.7259 28.9724 90.5907 28.814 90.4962 28.6315C90.4016 28.449 90.3502 28.2473 90.3458 28.0418C90.3265 27.5684 90.4427 27.0994 90.6808 26.6899C90.9189 26.2803 91.2689 25.9472 91.6898 25.7298C91.9769 25.5841 92.296 25.5125 92.6178 25.5218C92.9156 25.5218 93.2013 25.6395 93.4126 25.8493C93.6239 26.0592 93.7437 26.344 93.7458 26.6418V26.9458ZM92.9458 27.0498C92.8898 26.8578 92.8498 26.6098 92.7618 26.3858C92.7311 26.2627 92.6617 26.1527 92.5638 26.072C92.4658 25.9914 92.3445 25.9443 92.2178 25.9378C91.9538 25.9378 91.8178 26.1378 91.7058 26.3458C91.4577 26.842 91.3341 27.3911 91.3458 27.9458C91.3508 28.0707 91.3723 28.1945 91.4098 28.3138C91.4818 28.5858 91.6098 28.8178 91.9218 28.8498C92.0461 28.8554 92.1692 28.8233 92.2749 28.7576C92.3806 28.6919 92.4639 28.5957 92.5138 28.4818C92.7552 28.0251 92.9021 27.5245 92.9458 27.0098" fill="#961E27"/>
<path d="M47.0379 26.864C47.0181 27.3808 46.8755 27.8853 46.6219 28.336C46.349 28.8017 45.9082 29.1452 45.3899 29.296C45.1985 29.3549 44.9963 29.3708 44.798 29.3426C44.5997 29.3143 44.4101 29.2426 44.2427 29.1325C44.0753 29.0225 43.9343 28.8768 43.8297 28.7059C43.7252 28.535 43.6597 28.3432 43.6379 28.144C43.5925 27.5628 43.7527 26.9841 44.0904 26.5089C44.4282 26.0337 44.9221 25.6922 45.4859 25.544H45.7019C45.8836 25.517 46.0691 25.533 46.2435 25.5906C46.4179 25.6482 46.5764 25.7458 46.7062 25.8757C46.8361 26.0056 46.9338 26.1641 46.9914 26.3385C47.049 26.5129 47.0649 26.6983 47.0379 26.88V26.864ZM46.1899 27.2C46.2109 26.8085 46.079 26.4241 45.8219 26.128C45.7822 26.0795 45.7321 26.0403 45.6754 26.0135C45.6187 25.9866 45.5567 25.9727 45.4939 25.9727C45.4312 25.9727 45.3692 25.9866 45.3125 26.0135C45.2557 26.0403 45.2057 26.0795 45.1659 26.128C45.0682 26.2292 44.9872 26.3454 44.9259 26.472C44.6873 26.97 44.5799 27.5208 44.6139 28.072C44.6216 28.1947 44.6459 28.3158 44.6859 28.432C44.6986 28.5573 44.7533 28.6747 44.8409 28.7652C44.9286 28.8556 45.0442 28.9139 45.1691 28.9306C45.2939 28.9472 45.4208 28.9213 45.5291 28.8569C45.6374 28.7926 45.7208 28.6936 45.7659 28.576C46.0121 28.1564 46.1572 27.6854 46.1899 27.2Z" fill="#961E27"/>
<path d="M58.401 26.9916C58.3851 27.4323 58.2644 27.8629 58.049 28.2476C57.9234 28.4981 57.7479 28.7203 57.5333 28.9005C57.3186 29.0808 57.0694 29.2152 56.801 29.2956C56.5955 29.3659 56.3762 29.3859 56.1614 29.354C55.9466 29.3222 55.7425 29.2393 55.5663 29.1125C55.3901 28.9856 55.2468 28.8183 55.1484 28.6247C55.0501 28.4311 54.9995 28.2168 55.001 27.9996C54.9865 27.4832 55.1326 26.975 55.4192 26.5451C55.7058 26.1152 56.1187 25.7849 56.601 25.5996C56.8328 25.5106 57.0811 25.4724 57.329 25.4876C57.4726 25.4897 57.6143 25.5202 57.746 25.5773C57.8778 25.6344 57.9969 25.717 58.0965 25.8204C58.1962 25.9238 58.2744 26.0458 58.3267 26.1796C58.3789 26.3133 58.4042 26.4561 58.401 26.5996C58.401 26.6876 58.401 26.7756 58.401 26.9916ZM56.001 27.8956C56.001 27.9676 56.001 28.1676 56.065 28.3516C56.0803 28.4761 56.1328 28.593 56.2156 28.6872C56.2983 28.7813 56.4076 28.8484 56.529 28.8796C56.817 28.9436 56.993 28.7676 57.145 28.5596C57.1665 28.5322 57.1852 28.5027 57.201 28.4716C57.4375 28.031 57.5638 27.5397 57.569 27.0396C57.5611 26.8286 57.5178 26.6203 57.441 26.4236C57.4062 26.3232 57.3518 26.2308 57.281 26.1516C57.2436 26.0776 57.1865 26.0153 57.1158 25.9719C57.0452 25.9284 56.9639 25.9054 56.881 25.9054C56.7981 25.9054 56.7167 25.9284 56.6461 25.9719C56.5755 26.0153 56.5183 26.0776 56.481 26.1516C56.3784 26.2744 56.2948 26.412 56.233 26.5596C56.0619 26.9931 55.9697 27.4537 55.961 27.9196" fill="#961E27"/>
<path d="M84.2322 25.6013C84.2322 25.8093 84.1762 25.9213 84.0082 25.9533C83.8402 25.9853 83.8002 25.9533 83.6802 26.0013C83.6418 26.1194 83.6097 26.2396 83.5842 26.3613C83.4482 27.0093 83.3122 27.6493 83.1922 28.2973C83.1561 28.4519 83.14 28.6105 83.1442 28.7693C83.143 28.8051 83.1507 28.8408 83.1667 28.8729C83.1828 28.9051 83.2065 28.9327 83.2359 28.9534C83.2653 28.974 83.2994 28.987 83.3351 28.9912C83.3707 28.9954 83.4069 28.9906 83.4402 28.9773C83.5785 28.9384 83.7067 28.8701 83.8162 28.7773C83.9863 28.6017 84.144 28.4146 84.2882 28.2173C84.3442 28.1453 84.3842 28.0573 84.5122 28.1133C84.5122 28.1133 84.5122 28.2013 84.5122 28.2413C84.3806 28.5229 84.1858 28.7705 83.943 28.9647C83.7002 29.159 83.4159 29.2946 83.1122 29.3613C83.0121 29.3874 82.9075 29.3911 82.8058 29.3722C82.7041 29.3533 82.6079 29.3122 82.5238 29.2519C82.4398 29.1915 82.3701 29.1134 82.3197 29.0231C82.2693 28.9328 82.2395 28.8324 82.2322 28.7293C82.1945 28.4271 82.2135 28.1205 82.2882 27.8253C82.3682 27.4253 82.4562 27.0253 82.5362 26.6253C82.5362 26.4333 82.6002 26.2413 82.6322 26.0413L82.2882 25.9053C82.2882 25.5853 82.5122 25.5613 82.7522 25.5213C82.8082 25.2813 82.8642 25.0413 82.9122 24.8013C82.9178 24.7288 82.949 24.6608 83.0004 24.6094C83.0518 24.5581 83.1198 24.5268 83.1922 24.5213L83.9042 24.3853C83.9119 24.4945 83.9119 24.6041 83.9042 24.7133C83.8305 24.9738 83.7902 25.2426 83.7842 25.5133L84.2402 25.6013" fill="#961E27"/>
<path d="M88.1596 24.5914C88.2131 24.5575 88.2693 24.5281 88.3276 24.5034L89.1276 24.3594C89.1389 24.447 89.1389 24.5357 89.1276 24.6234C89.0636 24.8954 89.0316 25.1754 88.9516 25.4794L89.4876 25.5834C89.4876 25.6954 89.4076 25.7914 89.3676 25.8954L88.8876 25.9834C88.8396 26.1834 88.7836 26.3674 88.7516 26.5594C88.6316 27.1514 88.5196 27.7434 88.3996 28.3354L88.3516 28.5434C88.3516 28.6954 88.3516 28.8474 88.4796 28.9274C88.5444 28.9581 88.6168 28.9691 88.6879 28.9592C88.759 28.9492 88.8256 28.9187 88.8796 28.8714C89.1187 28.7175 89.3209 28.5126 89.4715 28.2714C89.538 28.1739 89.6102 28.0804 89.6876 27.9914C89.6876 28.1034 89.7436 28.1594 89.6876 28.1914C89.5803 28.4361 89.4253 28.657 89.2316 28.8411C89.0379 29.0252 88.8094 29.1687 88.5596 29.2634C88.4261 29.3134 88.2858 29.343 88.1436 29.3514C87.9914 29.3622 87.8401 29.3215 87.7138 29.2359C87.5876 29.1503 87.4938 29.0247 87.4476 28.8794C87.3614 28.6439 87.342 28.3892 87.3916 28.1434C87.5036 27.6074 87.6156 27.0634 87.7196 26.5434C87.7196 26.3914 87.7676 26.2314 87.7996 26.0554L87.4716 25.8954C87.4716 25.5754 87.6876 25.5754 87.9116 25.5114L88.1356 24.6154" fill="#961E27"/>
<path d="M28.399 27.8527C28.3651 28.1002 28.4251 28.3513 28.567 28.5567C28.6482 28.69 28.7688 28.7947 28.9121 28.8563C29.0555 28.918 29.2144 28.9335 29.367 28.9007C29.6769 28.8574 29.9608 28.7041 30.167 28.4687C30.287 28.3487 30.399 28.2207 30.519 28.0767C30.519 28.1407 30.583 28.1807 30.575 28.1967C30.413 28.5646 30.1401 28.8726 29.7944 29.0778C29.4487 29.2829 29.0475 29.3748 28.647 29.3407C28.3958 29.3447 28.1511 29.2616 27.9542 29.1055C27.7573 28.9495 27.6205 28.7302 27.567 28.4847C27.5098 28.298 27.4802 28.104 27.479 27.9087C27.4818 27.2819 27.6992 26.6749 28.095 26.1887C28.2299 26 28.4042 25.8429 28.6059 25.7282C28.8076 25.6135 29.0318 25.5441 29.263 25.5247C29.3975 25.4988 29.5364 25.5078 29.6664 25.5509C29.7964 25.594 29.9131 25.6698 30.0055 25.7709C30.0978 25.8721 30.1626 25.9953 30.1937 26.1287C30.2248 26.2621 30.2211 26.4012 30.183 26.5327C30.1349 26.8241 30.0012 27.0945 29.7989 27.3097C29.5966 27.5248 29.3349 27.6748 29.047 27.7407C28.855 27.7887 28.663 27.8127 28.439 27.8527H28.399ZM28.439 27.4447C28.519 27.4447 28.567 27.4927 28.615 27.4447C28.777 27.4222 28.933 27.3678 29.0739 27.2847C29.2149 27.2016 29.338 27.0915 29.4361 26.9606C29.5343 26.8297 29.6056 26.6807 29.6459 26.5221C29.6862 26.3636 29.6947 26.1986 29.671 26.0367C29.6672 26.0016 29.6553 25.9678 29.6364 25.938C29.6175 25.9081 29.5921 25.8829 29.562 25.8644C29.5319 25.8459 29.4979 25.8345 29.4628 25.8311C29.4276 25.8277 29.3921 25.8323 29.359 25.8447C29.261 25.8809 29.1692 25.9322 29.087 25.9967C28.7017 26.3679 28.4703 26.8706 28.439 27.4047" fill="#961E27"/>
<path d="M102.704 27.8633C102.732 28.0227 102.77 28.1802 102.816 28.3353C102.846 28.4431 102.899 28.5433 102.97 28.6295C103.042 28.7158 103.13 28.786 103.231 28.8358C103.331 28.8856 103.44 28.9137 103.552 28.9185C103.664 28.9232 103.776 28.9044 103.88 28.8633C104.145 28.7661 104.38 28.6005 104.56 28.3833L104.904 28.0313C104.904 28.1753 104.904 28.2313 104.904 28.2633C104.777 28.5186 104.596 28.7432 104.374 28.9215C104.151 29.0997 103.893 29.2273 103.616 29.2953C103.374 29.3444 103.126 29.3579 102.88 29.3353C102.674 29.3197 102.477 29.244 102.313 29.1174C102.149 28.9908 102.027 28.819 101.96 28.6233C101.888 28.4228 101.847 28.2122 101.84 27.9993C101.819 27.3918 102.002 26.7949 102.36 26.3033C102.555 25.9825 102.85 25.735 103.2 25.5993C103.332 25.5539 103.469 25.5244 103.608 25.5113C103.743 25.4883 103.882 25.5005 104.011 25.5468C104.141 25.5931 104.256 25.6719 104.346 25.7755C104.436 25.8792 104.498 26.0043 104.525 26.1387C104.553 26.2732 104.546 26.4125 104.504 26.5433C104.457 26.835 104.321 27.1051 104.115 27.3169C103.908 27.5287 103.642 27.672 103.352 27.7273C103.168 27.7833 102.976 27.7993 102.72 27.8473L102.704 27.8633ZM102.784 27.4313C103.584 27.6393 104.136 26.6313 104.016 26.0473C104.011 26.0125 103.997 25.9794 103.977 25.9507C103.957 25.922 103.93 25.8985 103.899 25.8821C103.867 25.8658 103.833 25.857 103.798 25.8565C103.762 25.856 103.728 25.8638 103.696 25.8793C103.508 25.941 103.347 26.0652 103.24 26.2313C102.978 26.5804 102.82 26.9964 102.784 27.4313Z" fill="#961E27"/>
</svg>
