<svg width="78" height="78" viewBox="0 0 78 78" fill="none" xmlns="http://www.w3.org/2000/svg">
<path d="M14.6264 50.9863V49.9005H13.5406V50.9863H14.6264ZM40.5436 53.4256V52.3398C39.9494 52.3398 39.4655 52.8177 39.4581 53.412C39.4505 54.0063 39.9222 54.4961 40.5165 54.511L40.5436 53.4256ZM39.7836 61.2013V60.1156C39.1875 60.1156 38.7031 60.596 38.6979 61.1919C38.6928 61.788 39.1689 62.2766 39.7648 62.2869L39.7836 61.2013ZM38.3396 68.5196V67.4339C37.7433 67.4339 37.2585 67.9147 37.2538 68.5109C37.2491 69.1072 37.7261 69.5958 38.3222 69.6052L38.3396 68.5196ZM14.6264 73.1699H13.5406V73.954L14.285 74.2004L14.6264 73.1699ZM2.69382 50.09H13.9423V47.9185H2.69382V50.09ZM13.4646 49.6123V74.925H15.6361V49.6123H13.4646ZM13.9423 74.4473H2.69382V76.6187H13.9423V74.4473ZM3.17153 74.925V49.6123H1.00004V74.925H3.17153ZM2.69382 74.4473C2.95766 74.4473 3.17153 74.6611 3.17153 74.925H1.00004C1.00004 75.8605 1.75837 76.6187 2.69382 76.6187V74.4473ZM13.4646 74.925C13.4646 74.6611 13.6785 74.4473 13.9423 74.4473V76.6187C14.8778 76.6187 15.6361 75.8605 15.6361 74.925H13.4646ZM13.9423 50.09C13.6785 50.09 13.4646 49.8761 13.4646 49.6123H15.6361C15.6361 48.6767 14.8778 47.9185 13.9423 47.9185V50.09ZM2.69382 47.9185C1.75837 47.9185 1.00004 48.6767 1.00004 49.6123H3.17153C3.17153 49.8761 2.95766 50.09 2.69382 50.09V47.9185ZM14.6264 52.072H15.4323V49.9005H14.6264V52.072ZM21.7125 47.2893L26.1839 31.074L24.0906 30.4968L19.619 46.712L21.7125 47.2893ZM26.5898 30.6797C27.7765 30.949 29.116 31.7622 29.937 33.6152C30.775 35.5066 31.1181 38.5901 29.994 43.4454L32.1094 43.9353C33.2916 38.8295 33.0225 35.2185 31.9223 32.7356C30.8052 30.2141 28.8809 28.9729 27.0702 28.5622L26.5898 30.6797ZM32.8515 47.1168H48.7616V44.9454H32.8515V47.1168ZM48.7591 52.3398H40.5436V54.5113H48.7591V52.3398ZM40.5165 54.511L45.9119 54.6463L45.9662 52.4755L40.5708 52.3402L40.5165 54.511ZM45.8433 60.1156H39.7836V62.2871H45.8433V60.1156ZM39.7648 62.2869L45.0298 62.3779L45.0674 60.2068L39.8024 60.1158L39.7648 62.2869ZM44.9861 67.4339H38.3396V69.6054H44.9861V67.4339ZM38.3222 69.6052L44.307 69.7006L44.3416 67.5292L38.3568 67.4341L38.3222 69.6052ZM44.2661 74.8285H27.8735V77H44.2661V74.8285ZM18.5412 73.323L14.9678 72.1391L14.285 74.2004L17.8583 75.3843L18.5412 73.323ZM15.7121 73.1699V50.9863H13.5406V73.1699H15.7121ZM46.8303 72.2644C46.8303 73.6805 45.6823 74.8285 44.2661 74.8285V77C46.8815 77 49.0018 74.8797 49.0018 72.2644H46.8303ZM47.5143 64.9057C47.5143 66.302 46.3824 67.4339 44.9861 67.4339V69.6054C47.5816 69.6054 49.6858 67.5014 49.6858 64.9057H47.5143ZM45.0298 62.3779C46.4088 62.4018 47.5143 63.5265 47.5143 64.9057H49.6858C49.6858 62.3419 47.6308 60.2511 45.0674 60.2068L45.0298 62.3779ZM48.5783 57.3806C48.5783 58.891 47.3538 60.1156 45.8433 60.1156V62.2871C48.5532 62.2871 50.7498 60.0904 50.7498 57.3806H48.5783ZM51.3707 49.7284C51.3707 51.1707 50.2013 52.3398 48.7591 52.3398V54.5113C51.4007 54.5113 53.5422 52.3699 53.5422 49.7284H51.3707ZM48.7616 47.1168C50.203 47.1168 51.3707 48.2851 51.3707 49.7284H53.5422C53.5422 47.0877 51.4042 44.9454 48.7616 44.9454V47.1168ZM45.9119 54.6463C47.3952 54.6836 48.5783 55.8967 48.5783 57.3806H50.7498C50.7498 54.7187 48.6274 52.5423 45.9662 52.4755L45.9119 54.6463ZM44.307 69.7006C45.7069 69.7228 46.8303 70.8641 46.8303 72.2644H49.0018C49.0018 69.6783 46.9273 67.5705 44.3416 67.5292L44.307 69.7006ZM26.1839 31.074C26.2295 30.9092 26.3224 30.789 26.4083 30.7266C26.4829 30.6727 26.5371 30.6678 26.5898 30.6797L27.0702 28.5622C25.5605 28.2194 24.4085 29.3441 24.0906 30.4968L26.1839 31.074ZM29.994 43.4454C29.5754 45.2528 30.8957 47.1168 32.8515 47.1168V44.9454C32.3926 44.9454 31.9832 44.4805 32.1094 43.9353L29.994 43.4454ZM27.8735 74.8285C24.7022 74.8285 21.5516 74.3202 18.5412 73.323L17.8583 75.3843C21.0891 76.4544 24.4703 77 27.8735 77V74.8285ZM15.4323 52.072C18.3632 52.072 20.9333 50.1148 21.7125 47.2893L19.619 46.712C19.0996 48.5956 17.3862 49.9005 15.4323 49.9005V52.072Z" fill="#FB6C6C"/>
<path d="M61.2117 30.1533C61.2117 32.175 60.5112 33.7904 59.1104 34.9996C57.7096 36.1897 55.7694 36.7943 53.2896 36.8133V39.2504H52.0971V36.7849C49.8823 36.6148 47.9609 35.9348 46.333 34.7444C44.7241 33.5353 43.8059 31.7499 43.5788 29.3883H47.8096C48.0936 30.5974 48.614 31.5138 49.3713 32.1372C50.1284 32.7606 51.037 33.1386 52.0971 33.2707V27.036L51.87 26.9793C50.2421 26.6203 48.9263 26.2519 47.9231 25.8741C46.9389 25.4962 46.0869 24.901 45.3676 24.0887C44.6483 23.2762 44.2887 22.1615 44.2887 20.7446C44.2887 19.3844 44.6199 18.2318 45.2826 17.2871C45.945 16.3236 46.8536 15.6056 48.0083 15.1333C49.163 14.642 50.4786 14.3964 51.9552 14.3964H52.0971V11.9593H53.2896V14.4815C55.2204 14.6894 56.8579 15.3695 58.2019 16.522C59.5458 17.6745 60.3598 19.2425 60.6437 21.2263H56.4699C56.2616 20.3572 55.8831 19.6582 55.334 19.1292C54.785 18.6003 54.1037 18.2413 53.2896 18.0523V23.4936H53.318C54.9649 23.8526 56.3089 24.2304 57.3501 24.6271C58.4101 25.0239 59.3187 25.6663 60.0759 26.5543C60.8332 27.4422 61.2117 28.642 61.2117 30.1533ZM48.3491 20.4046C48.3491 21.1791 48.6614 21.7649 49.2861 22.1615C49.9297 22.5584 50.8667 22.9078 52.0971 23.2102V17.8822H51.87C50.8099 17.8822 49.9581 18.109 49.3145 18.5625C48.6708 18.9969 48.3491 19.6109 48.3491 20.4046ZM53.2896 33.3275C54.4444 33.3085 55.3624 33.0535 56.0439 32.5622C56.7442 32.0521 57.0946 31.3153 57.0946 30.3518C57.0946 29.5015 56.7727 28.8591 56.1292 28.4247C55.4855 27.9902 54.5391 27.6123 53.2896 27.2911V33.3275Z" fill="#FB6C6C"/>
</svg>
