<svg width="78" height="78" viewBox="0 0 78 78" fill="none" xmlns="http://www.w3.org/2000/svg">
<g clip-path="url(#clip0_356_682)">
<mask id="mask0_356_682" style="mask-type:luminance" maskUnits="userSpaceOnUse" x="0" y="0" width="78" height="78">
<path d="M78 0H0V78H78V0Z" fill="white"/>
</mask>
<g mask="url(#mask0_356_682)">
<path d="M10.8611 12.9706C18.7731 12.1388 31.2822 9.12115 38.8139 1.34094C39.2554 0.884928 40.1819 0.866231 40.7143 1.40743C43.7518 4.49571 48.4899 6.91339 53.3847 8.74336C58.308 10.584 63.5213 11.8776 67.6261 12.6565C68.9794 12.9132 69.9758 14.0712 70.0135 15.422C70.0428 16.4702 70.0804 17.5609 70.1195 18.6878C70.4136 27.1804 70.7794 37.7406 68.1111 47.8501C65.1121 59.2131 58.2849 69.9624 43.0634 76.3458C40.9817 77.2189 38.6192 77.2179 36.5378 76.3439C21.4856 70.0223 14.3248 59.3421 10.9362 48.0441C7.67997 37.1873 7.91093 25.7803 8.08766 17.0518C8.09596 16.6415 8.10415 16.2371 8.11185 15.839C8.14005 14.3805 9.32196 13.1325 10.8611 12.9706Z" stroke="#FB6C6C" stroke-width="2" stroke-linecap="round"/>
<path d="M56.14 37.6305C56.14 47.0981 48.6381 54.7299 39.4372 54.7299C30.2362 54.7299 22.7344 47.0981 22.7344 37.6305C22.7344 28.1628 30.2362 20.531 39.4372 20.531C48.6381 20.531 56.14 28.1628 56.14 37.6305Z" stroke="#FB6C6C" stroke-width="2"/>
<path d="M31.7834 38.6814L35.4047 42.3406C36.1536 43.0975 37.3764 43.0975 38.1253 42.3406L47.0843 33.288" stroke="#FB6C6C" stroke-width="2" stroke-linecap="round"/>
</g>
</g>
<defs>
<clipPath id="clip0_356_682">
<rect width="78" height="78" fill="white"/>
</clipPath>
</defs>
</svg>
